ISO-10303-21;
HEADER;
FILE_DESCRIPTION(('Open CASCADE Model'),'2;1');
FILE_NAME('Open CASCADE Shape Model','2026-09-14T15:15:55',('Author'),(
    'Open CASCADE'),'Open CASCADE STEP processor 7.8','Open CASCADE 7.8'
  ,'Unknown');
FILE_SCHEMA(('AUTOMOTIVE_DESIGN { 1 0 10303 214 1 1 1 1 }'));
ENDSEC;
DATA;
#1 = APPLICATION_PROTOCOL_DEFINITION('international standard',
  'automotive_design',2000,#2);
#2 = APPLICATION_CONTEXT(
  'core data for automotive mechanical design processes');
#3 = SHAPE_DEFINITION_REPRESENTATION(#4,#10);
#4 = PRODUCT_DEFINITION_SHAPE('','',#5);
#5 = PRODUCT_DEFINITION('design','',#6,#9);
#6 = PRODUCT_DEFINITION_FORMATION('','',#7);
#7 = PRODUCT('Open CASCADE STEP translator 7.8 29',
  'Open CASCADE STEP translator 7.8 29','',(#8));
#8 = PRODUCT_CONTEXT('',#2,'mechanical');
#9 = PRODUCT_DEFINITION_CONTEXT('part definition',#2,'design');
#10 = ADVANCED_BREP_SHAPE_REPRESENTATION('',(#11,#15),#1296);
#11 = AXIS2_PLACEMENT_3D('',#12,#13,#14);
#12 = CARTESIAN_POINT('',(0.,0.,0.));
#13 = DIRECTION('',(0.,0.,1.));
#14 = DIRECTION('',(1.,0.,-0.));
#15 = MANIFOLD_SOLID_BREP('',#16);
#16 = CLOSED_SHELL('',(#17,#168,#244,#293,#373,#400,#1199,#1209,#1236,
    #1292));
#17 = ADVANCED_FACE('',(#18,#137),#32,.F.);
#18 = FACE_BOUND('',#19,.F.);
#19 = EDGE_LOOP('',(#20,#55,#83,#111));
#20 = ORIENTED_EDGE('',*,*,#21,.F.);
#21 = EDGE_CURVE('',#22,#24,#26,.T.);
#22 = VERTEX_POINT('',#23);
#23 = CARTESIAN_POINT('',(207.5,-9.5,82.));
#24 = VERTEX_POINT('',#25);
#25 = CARTESIAN_POINT('',(207.5,-9.5,103.));
#26 = SURFACE_CURVE('',#27,(#31,#43),.PCURVE_S1.);
#27 = LINE('',#28,#29);
#28 = CARTESIAN_POINT('',(207.5,-9.5,82.));
#29 = VECTOR('',#30,1.);
#30 = DIRECTION('',(0.,0.,1.));
#31 = PCURVE('',#32,#37);
#32 = PLANE('',#33);
#33 = AXIS2_PLACEMENT_3D('',#34,#35,#36);
#34 = CARTESIAN_POINT('',(207.5,-9.5,82.));
#35 = DIRECTION('',(1.,0.,0.));
#36 = DIRECTION('',(0.,0.,1.));
#37 = DEFINITIONAL_REPRESENTATION('',(#38),#42);
#38 = LINE('',#39,#40);
#39 = CARTESIAN_POINT('',(0.,0.));
#40 = VECTOR('',#41,1.);
#41 = DIRECTION('',(1.,0.));
#42 = ( GEOMETRIC_REPRESENTATION_CONTEXT(2) 
PARAMETRIC_REPRESENTATION_CONTEXT() REPRESENTATION_CONTEXT('2D SPACE',''
  ) );
#43 = PCURVE('',#44,#49);
#44 = PLANE('',#45);
#45 = AXIS2_PLACEMENT_3D('',#46,#47,#48);
#46 = CARTESIAN_POINT('',(207.5,-9.5,82.));
#47 = DIRECTION('',(0.,1.,0.));
#48 = DIRECTION('',(0.,0.,1.));
#49 = DEFINITIONAL_REPRESENTATION('',(#50),#54);
#50 = LINE('',#51,#52);
#51 = CARTESIAN_POINT('',(0.,0.));
#52 = VECTOR('',#53,1.);
#53 = DIRECTION('',(1.,0.));
#54 = ( GEOMETRIC_REPRESENTATION_CONTEXT(2) 
PARAMETRIC_REPRESENTATION_CONTEXT() REPRESENTATION_CONTEXT('2D SPACE',''
  ) );
#55 = ORIENTED_EDGE('',*,*,#56,.T.);
#56 = EDGE_CURVE('',#22,#57,#59,.T.);
#57 = VERTEX_POINT('',#58);
#58 = CARTESIAN_POINT('',(207.5,9.5,82.));
#59 = SURFACE_CURVE('',#60,(#64,#71),.PCURVE_S1.);
#60 = LINE('',#61,#62);
#61 = CARTESIAN_POINT('',(207.5,-9.5,82.));
#62 = VECTOR('',#63,1.);
#63 = DIRECTION('',(0.,1.,0.));
#64 = PCURVE('',#32,#65);
#65 = DEFINITIONAL_REPRESENTATION('',(#66),#70);
#66 = LINE('',#67,#68);
#67 = CARTESIAN_POINT('',(0.,0.));
#68 = VECTOR('',#69,1.);
#69 = DIRECTION('',(0.,-1.));
#70 = ( GEOMETRIC_REPRESENTATION_CONTEXT(2) 
PARAMETRIC_REPRESENTATION_CONTEXT() REPRESENTATION_CONTEXT('2D SPACE',''
  ) );
#71 = PCURVE('',#72,#77);
#72 = PLANE('',#73);
#73 = AXIS2_PLACEMENT_3D('',#74,#75,#76);
#74 = CARTESIAN_POINT('',(207.5,-9.5,82.));
#75 = DIRECTION('',(0.,0.,1.));
#76 = DIRECTION('',(1.,0.,0.));
#77 = DEFINITIONAL_REPRESENTATION('',(#78),#82);
#78 = LINE('',#79,#80);
#79 = CARTESIAN_POINT('',(0.,0.));
#80 = VECTOR('',#81,1.);
#81 = DIRECTION('',(0.,1.));
#82 = ( GEOMETRIC_REPRESENTATION_CONTEXT(2) 
PARAMETRIC_REPRESENTATION_CONTEXT() REPRESENTATION_CONTEXT('2D SPACE',''
  ) );
#83 = ORIENTED_EDGE('',*,*,#84,.T.);
#84 = EDGE_CURVE('',#57,#85,#87,.T.);
#85 = VERTEX_POINT('',#86);
#86 = CARTESIAN_POINT('',(207.5,9.5,103.));
#87 = SURFACE_CURVE('',#88,(#92,#99),.PCURVE_S1.);
#88 = LINE('',#89,#90);
#89 = CARTESIAN_POINT('',(207.5,9.5,82.));
#90 = VECTOR('',#91,1.);
#91 = DIRECTION('',(0.,0.,1.));
#92 = PCURVE('',#32,#93);
#93 = DEFINITIONAL_REPRESENTATION('',(#94),#98);
#94 = LINE('',#95,#96);
#95 = CARTESIAN_POINT('',(0.,-19.));
#96 = VECTOR('',#97,1.);
#97 = DIRECTION('',(1.,0.));
#98 = ( GEOMETRIC_REPRESENTATION_CONTEXT(2) 
PARAMETRIC_REPRESENTATION_CONTEXT() REPRESENTATION_CONTEXT('2D SPACE',''
  ) );
#99 = PCURVE('',#100,#105);
#100 = PLANE('',#101);
#101 = AXIS2_PLACEMENT_3D('',#102,#103,#104);
#102 = CARTESIAN_POINT('',(207.5,9.5,82.));
#103 = DIRECTION('',(0.,1.,0.));
#104 = DIRECTION('',(0.,0.,1.));
#105 = DEFINITIONAL_REPRESENTATION('',(#106),#110);
#106 = LINE('',#107,#108);
#107 = CARTESIAN_POINT('',(0.,0.));
#108 = VECTOR('',#109,1.);
#109 = DIRECTION('',(1.,0.));
#110 = ( GEOMETRIC_REPRESENTATION_CONTEXT(2) 
PARAMETRIC_REPRESENTATION_CONTEXT() REPRESENTATION_CONTEXT('2D SPACE',''
  ) );
#111 = ORIENTED_EDGE('',*,*,#112,.F.);
#112 = EDGE_CURVE('',#24,#85,#113,.T.);
#113 = SURFACE_CURVE('',#114,(#118,#125),.PCURVE_S1.);
#114 = LINE('',#115,#116);
#115 = CARTESIAN_POINT('',(207.5,-9.5,103.));
#116 = VECTOR('',#117,1.);
#117 = DIRECTION('',(0.,1.,0.));
#118 = PCURVE('',#32,#119);
#119 = DEFINITIONAL_REPRESENTATION('',(#120),#124);
#120 = LINE('',#121,#122);
#121 = CARTESIAN_POINT('',(21.,0.));
#122 = VECTOR('',#123,1.);
#123 = DIRECTION('',(0.,-1.));
#124 = ( GEOMETRIC_REPRESENTATION_CONTEXT(2) 
PARAMETRIC_REPRESENTATION_CONTEXT() REPRESENTATION_CONTEXT('2D SPACE',''
  ) );
#125 = PCURVE('',#126,#131);
#126 = PLANE('',#127);
#127 = AXIS2_PLACEMENT_3D('',#128,#129,#130);
#128 = CARTESIAN_POINT('',(207.5,-9.5,103.));
#129 = DIRECTION('',(0.,0.,1.));
#130 = DIRECTION('',(1.,0.,0.));
#131 = DEFINITIONAL_REPRESENTATION('',(#132),#136);
#132 = LINE('',#133,#134);
#133 = CARTESIAN_POINT('',(0.,0.));
#134 = VECTOR('',#135,1.);
#135 = DIRECTION('',(0.,1.));
#136 = ( GEOMETRIC_REPRESENTATION_CONTEXT(2) 
PARAMETRIC_REPRESENTATION_CONTEXT() REPRESENTATION_CONTEXT('2D SPACE',''
  ) );
#137 = FACE_BOUND('',#138,.F.);
#138 = EDGE_LOOP('',(#139));
#139 = ORIENTED_EDGE('',*,*,#140,.F.);
#140 = EDGE_CURVE('',#141,#141,#143,.T.);
#141 = VERTEX_POINT('',#142);
#142 = CARTESIAN_POINT('',(207.5,1.469576158977E-15,98.5));
#143 = SURFACE_CURVE('',#144,(#149,#156),.PCURVE_S1.);
#144 = CIRCLE('',#145,6.);
#145 = AXIS2_PLACEMENT_3D('',#146,#147,#148);
#146 = CARTESIAN_POINT('',(207.5,0.,92.5));
#147 = DIRECTION('',(1.,0.,0.));
#148 = DIRECTION('',(-0.,0.,1.));
#149 = PCURVE('',#32,#150);
#150 = DEFINITIONAL_REPRESENTATION('',(#151),#155);
#151 = CIRCLE('',#152,6.);
#152 = AXIS2_PLACEMENT_2D('',#153,#154);
#153 = CARTESIAN_POINT('',(10.5,-9.5));
#154 = DIRECTION('',(1.,0.));
#155 = ( GEOMETRIC_REPRESENTATION_CONTEXT(2) 
PARAMETRIC_REPRESENTATION_CONTEXT() REPRESENTATION_CONTEXT('2D SPACE',''
  ) );
#156 = PCURVE('',#157,#162);
#157 = CYLINDRICAL_SURFACE('',#158,6.);
#158 = AXIS2_PLACEMENT_3D('',#159,#160,#161);
#159 = CARTESIAN_POINT('',(207.4,0.,92.5));
#160 = DIRECTION('',(1.,0.,0.));
#161 = DIRECTION('',(-0.,0.,1.));
#162 = DEFINITIONAL_REPRESENTATION('',(#163),#167);
#163 = LINE('',#164,#165);
#164 = CARTESIAN_POINT('',(0.,9.999999999999E-02));
#165 = VECTOR('',#166,1.);
#166 = DIRECTION('',(1.,0.));
#167 = ( GEOMETRIC_REPRESENTATION_CONTEXT(2) 
PARAMETRIC_REPRESENTATION_CONTEXT() REPRESENTATION_CONTEXT('2D SPACE',''
  ) );
#168 = ADVANCED_FACE('',(#169),#44,.F.);
#169 = FACE_BOUND('',#170,.F.);
#170 = EDGE_LOOP('',(#171,#194,#195,#218));
#171 = ORIENTED_EDGE('',*,*,#172,.F.);
#172 = EDGE_CURVE('',#22,#173,#175,.T.);
#173 = VERTEX_POINT('',#174);
#174 = CARTESIAN_POINT('',(250.5,-9.5,82.));
#175 = SURFACE_CURVE('',#176,(#180,#187),.PCURVE_S1.);
#176 = LINE('',#177,#178);
#177 = CARTESIAN_POINT('',(207.5,-9.5,82.));
#178 = VECTOR('',#179,1.);
#179 = DIRECTION('',(1.,0.,0.));
#180 = PCURVE('',#44,#181);
#181 = DEFINITIONAL_REPRESENTATION('',(#182),#186);
#182 = LINE('',#183,#184);
#183 = CARTESIAN_POINT('',(0.,0.));
#184 = VECTOR('',#185,1.);
#185 = DIRECTION('',(0.,1.));
#186 = ( GEOMETRIC_REPRESENTATION_CONTEXT(2) 
PARAMETRIC_REPRESENTATION_CONTEXT() REPRESENTATION_CONTEXT('2D SPACE',''
  ) );
#187 = PCURVE('',#72,#188);
#188 = DEFINITIONAL_REPRESENTATION('',(#189),#193);
#189 = LINE('',#190,#191);
#190 = CARTESIAN_POINT('',(0.,0.));
#191 = VECTOR('',#192,1.);
#192 = DIRECTION('',(1.,0.));
#193 = ( GEOMETRIC_REPRESENTATION_CONTEXT(2) 
PARAMETRIC_REPRESENTATION_CONTEXT() REPRESENTATION_CONTEXT('2D SPACE',''
  ) );
#194 = ORIENTED_EDGE('',*,*,#21,.T.);
#195 = ORIENTED_EDGE('',*,*,#196,.T.);
#196 = EDGE_CURVE('',#24,#197,#199,.T.);
#197 = VERTEX_POINT('',#198);
#198 = CARTESIAN_POINT('',(250.5,-9.5,103.));
#199 = SURFACE_CURVE('',#200,(#204,#211),.PCURVE_S1.);
#200 = LINE('',#201,#202);
#201 = CARTESIAN_POINT('',(207.5,-9.5,103.));
#202 = VECTOR('',#203,1.);
#203 = DIRECTION('',(1.,0.,0.));
#204 = PCURVE('',#44,#205);
#205 = DEFINITIONAL_REPRESENTATION('',(#206),#210);
#206 = LINE('',#207,#208);
#207 = CARTESIAN_POINT('',(21.,0.));
#208 = VECTOR('',#209,1.);
#209 = DIRECTION('',(0.,1.));
#210 = ( GEOMETRIC_REPRESENTATION_CONTEXT(2) 
PARAMETRIC_REPRESENTATION_CONTEXT() REPRESENTATION_CONTEXT('2D SPACE',''
  ) );
#211 = PCURVE('',#126,#212);
#212 = DEFINITIONAL_REPRESENTATION('',(#213),#217);
#213 = LINE('',#214,#215);
#214 = CARTESIAN_POINT('',(0.,0.));
#215 = VECTOR('',#216,1.);
#216 = DIRECTION('',(1.,0.));
#217 = ( GEOMETRIC_REPRESENTATION_CONTEXT(2) 
PARAMETRIC_REPRESENTATION_CONTEXT() REPRESENTATION_CONTEXT('2D SPACE',''
  ) );
#218 = ORIENTED_EDGE('',*,*,#219,.F.);
#219 = EDGE_CURVE('',#173,#197,#220,.T.);
#220 = SURFACE_CURVE('',#221,(#225,#232),.PCURVE_S1.);
#221 = LINE('',#222,#223);
#222 = CARTESIAN_POINT('',(250.5,-9.5,82.));
#223 = VECTOR('',#224,1.);
#224 = DIRECTION('',(0.,0.,1.));
#225 = PCURVE('',#44,#226);
#226 = DEFINITIONAL_REPRESENTATION('',(#227),#231);
#227 = LINE('',#228,#229);
#228 = CARTESIAN_POINT('',(0.,43.));
#229 = VECTOR('',#230,1.);
#230 = DIRECTION('',(1.,0.));
#231 = ( GEOMETRIC_REPRESENTATION_CONTEXT(2) 
PARAMETRIC_REPRESENTATION_CONTEXT() REPRESENTATION_CONTEXT('2D SPACE',''
  ) );
#232 = PCURVE('',#233,#238);
#233 = PLANE('',#234);
#234 = AXIS2_PLACEMENT_3D('',#235,#236,#237);
#235 = CARTESIAN_POINT('',(250.5,-9.5,82.));
#236 = DIRECTION('',(1.,0.,0.));
#237 = DIRECTION('',(0.,0.,1.));
#238 = DEFINITIONAL_REPRESENTATION('',(#239),#243);
#239 = LINE('',#240,#241);
#240 = CARTESIAN_POINT('',(0.,0.));
#241 = VECTOR('',#242,1.);
#242 = DIRECTION('',(1.,0.));
#243 = ( GEOMETRIC_REPRESENTATION_CONTEXT(2) 
PARAMETRIC_REPRESENTATION_CONTEXT() REPRESENTATION_CONTEXT('2D SPACE',''
  ) );
#244 = ADVANCED_FACE('',(#245),#126,.T.);
#245 = FACE_BOUND('',#246,.T.);
#246 = EDGE_LOOP('',(#247,#248,#249,#272));
#247 = ORIENTED_EDGE('',*,*,#112,.F.);
#248 = ORIENTED_EDGE('',*,*,#196,.T.);
#249 = ORIENTED_EDGE('',*,*,#250,.T.);
#250 = EDGE_CURVE('',#197,#251,#253,.T.);
#251 = VERTEX_POINT('',#252);
#252 = CARTESIAN_POINT('',(250.5,9.5,103.));
#253 = SURFACE_CURVE('',#254,(#258,#265),.PCURVE_S1.);
#254 = LINE('',#255,#256);
#255 = CARTESIAN_POINT('',(250.5,-9.5,103.));
#256 = VECTOR('',#257,1.);
#257 = DIRECTION('',(0.,1.,0.));
#258 = PCURVE('',#126,#259);
#259 = DEFINITIONAL_REPRESENTATION('',(#260),#264);
#260 = LINE('',#261,#262);
#261 = CARTESIAN_POINT('',(43.,0.));
#262 = VECTOR('',#263,1.);
#263 = DIRECTION('',(0.,1.));
#264 = ( GEOMETRIC_REPRESENTATION_CONTEXT(2) 
PARAMETRIC_REPRESENTATION_CONTEXT() REPRESENTATION_CONTEXT('2D SPACE',''
  ) );
#265 = PCURVE('',#233,#266);
#266 = DEFINITIONAL_REPRESENTATION('',(#267),#271);
#267 = LINE('',#268,#269);
#268 = CARTESIAN_POINT('',(21.,0.));
#269 = VECTOR('',#270,1.);
#270 = DIRECTION('',(0.,-1.));
#271 = ( GEOMETRIC_REPRESENTATION_CONTEXT(2) 
PARAMETRIC_REPRESENTATION_CONTEXT() REPRESENTATION_CONTEXT('2D SPACE',''
  ) );
#272 = ORIENTED_EDGE('',*,*,#273,.F.);
#273 = EDGE_CURVE('',#85,#251,#274,.T.);
#274 = SURFACE_CURVE('',#275,(#279,#286),.PCURVE_S1.);
#275 = LINE('',#276,#277);
#276 = CARTESIAN_POINT('',(207.5,9.5,103.));
#277 = VECTOR('',#278,1.);
#278 = DIRECTION('',(1.,0.,0.));
#279 = PCURVE('',#126,#280);
#280 = DEFINITIONAL_REPRESENTATION('',(#281),#285);
#281 = LINE('',#282,#283);
#282 = CARTESIAN_POINT('',(0.,19.));
#283 = VECTOR('',#284,1.);
#284 = DIRECTION('',(1.,0.));
#285 = ( GEOMETRIC_REPRESENTATION_CONTEXT(2) 
PARAMETRIC_REPRESENTATION_CONTEXT() REPRESENTATION_CONTEXT('2D SPACE',''
  ) );
#286 = PCURVE('',#100,#287);
#287 = DEFINITIONAL_REPRESENTATION('',(#288),#292);
#288 = LINE('',#289,#290);
#289 = CARTESIAN_POINT('',(21.,0.));
#290 = VECTOR('',#291,1.);
#291 = DIRECTION('',(0.,1.));
#292 = ( GEOMETRIC_REPRESENTATION_CONTEXT(2) 
PARAMETRIC_REPRESENTATION_CONTEXT() REPRESENTATION_CONTEXT('2D SPACE',''
  ) );
#293 = ADVANCED_FACE('',(#294,#342),#72,.F.);
#294 = FACE_BOUND('',#295,.F.);
#295 = EDGE_LOOP('',(#296,#297,#298,#321));
#296 = ORIENTED_EDGE('',*,*,#56,.F.);
#297 = ORIENTED_EDGE('',*,*,#172,.T.);
#298 = ORIENTED_EDGE('',*,*,#299,.T.);
#299 = EDGE_CURVE('',#173,#300,#302,.T.);
#300 = VERTEX_POINT('',#301);
#301 = CARTESIAN_POINT('',(250.5,9.5,82.));
#302 = SURFACE_CURVE('',#303,(#307,#314),.PCURVE_S1.);
#303 = LINE('',#304,#305);
#304 = CARTESIAN_POINT('',(250.5,-9.5,82.));
#305 = VECTOR('',#306,1.);
#306 = DIRECTION('',(0.,1.,0.));
#307 = PCURVE('',#72,#308);
#308 = DEFINITIONAL_REPRESENTATION('',(#309),#313);
#309 = LINE('',#310,#311);
#310 = CARTESIAN_POINT('',(43.,0.));
#311 = VECTOR('',#312,1.);
#312 = DIRECTION('',(0.,1.));
#313 = ( GEOMETRIC_REPRESENTATION_CONTEXT(2) 
PARAMETRIC_REPRESENTATION_CONTEXT() REPRESENTATION_CONTEXT('2D SPACE',''
  ) );
#314 = PCURVE('',#233,#315);
#315 = DEFINITIONAL_REPRESENTATION('',(#316),#320);
#316 = LINE('',#317,#318);
#317 = CARTESIAN_POINT('',(0.,0.));
#318 = VECTOR('',#319,1.);
#319 = DIRECTION('',(0.,-1.));
#320 = ( GEOMETRIC_REPRESENTATION_CONTEXT(2) 
PARAMETRIC_REPRESENTATION_CONTEXT() REPRESENTATION_CONTEXT('2D SPACE',''
  ) );
#321 = ORIENTED_EDGE('',*,*,#322,.F.);
#322 = EDGE_CURVE('',#57,#300,#323,.T.);
#323 = SURFACE_CURVE('',#324,(#328,#335),.PCURVE_S1.);
#324 = LINE('',#325,#326);
#325 = CARTESIAN_POINT('',(207.5,9.5,82.));
#326 = VECTOR('',#327,1.);
#327 = DIRECTION('',(1.,0.,0.));
#328 = PCURVE('',#72,#329);
#329 = DEFINITIONAL_REPRESENTATION('',(#330),#334);
#330 = LINE('',#331,#332);
#331 = CARTESIAN_POINT('',(0.,19.));
#332 = VECTOR('',#333,1.);
#333 = DIRECTION('',(1.,0.));
#334 = ( GEOMETRIC_REPRESENTATION_CONTEXT(2) 
PARAMETRIC_REPRESENTATION_CONTEXT() REPRESENTATION_CONTEXT('2D SPACE',''
  ) );
#335 = PCURVE('',#100,#336);
#336 = DEFINITIONAL_REPRESENTATION('',(#337),#341);
#337 = LINE('',#338,#339);
#338 = CARTESIAN_POINT('',(0.,0.));
#339 = VECTOR('',#340,1.);
#340 = DIRECTION('',(0.,1.));
#341 = ( GEOMETRIC_REPRESENTATION_CONTEXT(2) 
PARAMETRIC_REPRESENTATION_CONTEXT() REPRESENTATION_CONTEXT('2D SPACE',''
  ) );
#342 = FACE_BOUND('',#343,.F.);
#343 = EDGE_LOOP('',(#344));
#344 = ORIENTED_EDGE('',*,*,#345,.F.);
#345 = EDGE_CURVE('',#346,#346,#348,.T.);
#346 = VERTEX_POINT('',#347);
#347 = CARTESIAN_POINT('',(249.,-9.797174393179E-16,82.));
#348 = SURFACE_CURVE('',#349,(#354,#361),.PCURVE_S1.);
#349 = CIRCLE('',#350,4.);
#350 = AXIS2_PLACEMENT_3D('',#351,#352,#353);
#351 = CARTESIAN_POINT('',(245.,0.,82.));
#352 = DIRECTION('',(0.,0.,1.));
#353 = DIRECTION('',(1.,0.,-0.));
#354 = PCURVE('',#72,#355);
#355 = DEFINITIONAL_REPRESENTATION('',(#356),#360);
#356 = CIRCLE('',#357,4.);
#357 = AXIS2_PLACEMENT_2D('',#358,#359);
#358 = CARTESIAN_POINT('',(37.5,9.5));
#359 = DIRECTION('',(1.,0.));
#360 = ( GEOMETRIC_REPRESENTATION_CONTEXT(2) 
PARAMETRIC_REPRESENTATION_CONTEXT() REPRESENTATION_CONTEXT('2D SPACE',''
  ) );
#361 = PCURVE('',#362,#367);
#362 = CYLINDRICAL_SURFACE('',#363,4.);
#363 = AXIS2_PLACEMENT_3D('',#364,#365,#366);
#364 = CARTESIAN_POINT('',(245.,0.,74.9));
#365 = DIRECTION('',(0.,0.,1.));
#366 = DIRECTION('',(1.,0.,-0.));
#367 = DEFINITIONAL_REPRESENTATION('',(#368),#372);
#368 = LINE('',#369,#370);
#369 = CARTESIAN_POINT('',(0.,7.1));
#370 = VECTOR('',#371,1.);
#371 = DIRECTION('',(1.,0.));
#372 = ( GEOMETRIC_REPRESENTATION_CONTEXT(2) 
PARAMETRIC_REPRESENTATION_CONTEXT() REPRESENTATION_CONTEXT('2D SPACE',''
  ) );
#373 = ADVANCED_FACE('',(#374),#100,.T.);
#374 = FACE_BOUND('',#375,.T.);
#375 = EDGE_LOOP('',(#376,#377,#378,#379));
#376 = ORIENTED_EDGE('',*,*,#322,.F.);
#377 = ORIENTED_EDGE('',*,*,#84,.T.);
#378 = ORIENTED_EDGE('',*,*,#273,.T.);
#379 = ORIENTED_EDGE('',*,*,#380,.F.);
#380 = EDGE_CURVE('',#300,#251,#381,.T.);
#381 = SURFACE_CURVE('',#382,(#386,#393),.PCURVE_S1.);
#382 = LINE('',#383,#384);
#383 = CARTESIAN_POINT('',(250.5,9.5,82.));
#384 = VECTOR('',#385,1.);
#385 = DIRECTION('',(0.,0.,1.));
#386 = PCURVE('',#100,#387);
#387 = DEFINITIONAL_REPRESENTATION('',(#388),#392);
#388 = LINE('',#389,#390);
#389 = CARTESIAN_POINT('',(0.,43.));
#390 = VECTOR('',#391,1.);
#391 = DIRECTION('',(1.,0.));
#392 = ( GEOMETRIC_REPRESENTATION_CONTEXT(2) 
PARAMETRIC_REPRESENTATION_CONTEXT() REPRESENTATION_CONTEXT('2D SPACE',''
  ) );
#393 = PCURVE('',#233,#394);
#394 = DEFINITIONAL_REPRESENTATION('',(#395),#399);
#395 = LINE('',#396,#397);
#396 = CARTESIAN_POINT('',(0.,-19.));
#397 = VECTOR('',#398,1.);
#398 = DIRECTION('',(1.,0.));
#399 = ( GEOMETRIC_REPRESENTATION_CONTEXT(2) 
PARAMETRIC_REPRESENTATION_CONTEXT() REPRESENTATION_CONTEXT('2D SPACE',''
  ) );
#400 = ADVANCED_FACE('',(#401,#847),#157,.F.);
#401 = FACE_BOUND('',#402,.F.);
#402 = EDGE_LOOP('',(#403,#428,#450,#451,#641,#662,#663,#664));
#403 = ORIENTED_EDGE('',*,*,#404,.T.);
#404 = EDGE_CURVE('',#405,#407,#409,.T.);
#405 = VERTEX_POINT('',#406);
#406 = CARTESIAN_POINT('',(249.,2.449293598295E-16,98.5));
#407 = VERTEX_POINT('',#408);
#408 = CARTESIAN_POINT('',(250.5,1.469576158977E-15,98.5));
#409 = SEAM_CURVE('',#410,(#414,#421),.PCURVE_S1.);
#410 = LINE('',#411,#412);
#411 = CARTESIAN_POINT('',(207.4,1.469576158977E-15,98.5));
#412 = VECTOR('',#413,1.);
#413 = DIRECTION('',(1.,0.,0.));
#414 = PCURVE('',#157,#415);
#415 = DEFINITIONAL_REPRESENTATION('',(#416),#420);
#416 = LINE('',#417,#418);
#417 = CARTESIAN_POINT('',(6.28318530718,-0.));
#418 = VECTOR('',#419,1.);
#419 = DIRECTION('',(0.,1.));
#420 = ( GEOMETRIC_REPRESENTATION_CONTEXT(2) 
PARAMETRIC_REPRESENTATION_CONTEXT() REPRESENTATION_CONTEXT('2D SPACE',''
  ) );
#421 = PCURVE('',#157,#422);
#422 = DEFINITIONAL_REPRESENTATION('',(#423),#427);
#423 = LINE('',#424,#425);
#424 = CARTESIAN_POINT('',(0.,-0.));
#425 = VECTOR('',#426,1.);
#426 = DIRECTION('',(0.,1.));
#427 = ( GEOMETRIC_REPRESENTATION_CONTEXT(2) 
PARAMETRIC_REPRESENTATION_CONTEXT() REPRESENTATION_CONTEXT('2D SPACE',''
  ) );
#428 = ORIENTED_EDGE('',*,*,#429,.F.);
#429 = EDGE_CURVE('',#407,#407,#430,.T.);
#430 = SURFACE_CURVE('',#431,(#436,#443),.PCURVE_S1.);
#431 = CIRCLE('',#432,6.);
#432 = AXIS2_PLACEMENT_3D('',#433,#434,#435);
#433 = CARTESIAN_POINT('',(250.5,0.,92.5));
#434 = DIRECTION('',(1.,0.,0.));
#435 = DIRECTION('',(-0.,0.,1.));
#436 = PCURVE('',#157,#437);
#437 = DEFINITIONAL_REPRESENTATION('',(#438),#442);
#438 = LINE('',#439,#440);
#439 = CARTESIAN_POINT('',(0.,43.1));
#440 = VECTOR('',#441,1.);
#441 = DIRECTION('',(1.,0.));
#442 = ( GEOMETRIC_REPRESENTATION_CONTEXT(2) 
PARAMETRIC_REPRESENTATION_CONTEXT() REPRESENTATION_CONTEXT('2D SPACE',''
  ) );
#443 = PCURVE('',#233,#444);
#444 = DEFINITIONAL_REPRESENTATION('',(#445),#449);
#445 = CIRCLE('',#446,6.);
#446 = AXIS2_PLACEMENT_2D('',#447,#448);
#447 = CARTESIAN_POINT('',(10.5,-9.5));
#448 = DIRECTION('',(1.,0.));
#449 = ( GEOMETRIC_REPRESENTATION_CONTEXT(2) 
PARAMETRIC_REPRESENTATION_CONTEXT() REPRESENTATION_CONTEXT('2D SPACE',''
  ) );
#450 = ORIENTED_EDGE('',*,*,#404,.F.);
#451 = ORIENTED_EDGE('',*,*,#452,.F.);
#452 = EDGE_CURVE('',#453,#405,#455,.T.);
#453 = VERTEX_POINT('',#454);
#454 = CARTESIAN_POINT('',(241.,1.469576158977E-15,98.5));
#455 = SURFACE_CURVE('',#456,(#514,#575),.PCURVE_S1.);
#456 = B_SPLINE_CURVE_WITH_KNOTS('',6,(#457,#458,#459,#460,#461,#462,
    #463,#464,#465,#466,#467,#468,#469,#470,#471,#472,#473,#474,#475,
    #476,#477,#478,#479,#480,#481,#482,#483,#484,#485,#486,#487,#488,
    #489,#490,#491,#492,#493,#494,#495,#496,#497,#498,#499,#500,#501,
    #502,#503,#504,#505,#506,#507,#508,#509,#510,#511,#512,#513),
  .UNSPECIFIED.,.F.,.F.,(7,5,5,5,5,5,5,5,5,5,5,7),(0.,0.106311710024,
    0.193084291059,0.289857357158,0.397810028832,0.432343490771,
    0.49953699565,0.601023734027,0.710552749917,0.843543847509,
    0.933416206929,1.),.UNSPECIFIED.);
#457 = CARTESIAN_POINT('',(241.,4.440892098501E-16,98.5));
#458 = CARTESIAN_POINT('',(241.,-0.280806210288,98.5));
#459 = CARTESIAN_POINT('',(241.02365593129,-0.559034267417,
    98.48422912126));
#460 = CARTESIAN_POINT('',(241.07015141986,-0.830546661189,
    98.453233385742));
#461 = CARTESIAN_POINT('',(241.13741603797,-1.091336375402,
    98.408775634991));
#462 = CARTESIAN_POINT('',(241.22212788492,-1.337719705203,
    98.353773645366));
#463 = CARTESIAN_POINT('',(241.39896218595,-1.753198637806,
    98.241402973741));
#464 = CARTESIAN_POINT('',(241.48752715039,-1.929741006879,
    98.185903195613));
#465 = CARTESIAN_POINT('',(241.58382514117,-2.096286334378,
    98.126637298689));
#466 = CARTESIAN_POINT('',(241.68675538812,-2.25312875011,98.06467512513
    ));
#467 = CARTESIAN_POINT('',(241.79545149865,-2.400626833001,
    98.000942313929));
#468 = CARTESIAN_POINT('',(242.03617314251,-2.693641743865,
    97.864081300878));
#469 = CARTESIAN_POINT('',(242.16956162196,-2.837114584689,
    97.790650168376));
#470 = CARTESIAN_POINT('',(242.30856100461,-2.970085749523,
    97.717040020611));
#471 = CARTESIAN_POINT('',(242.45260536419,-3.093039395094,
    97.644184776787));
#472 = CARTESIAN_POINT('',(242.60136096373,-3.206375748947,
    97.572937865483));
#473 = CARTESIAN_POINT('',(242.92568032991,-3.426353581224,
    97.427417582195));
#474 = CARTESIAN_POINT('',(243.10246583386,-3.53078383501,
    97.353696169686));
#475 = CARTESIAN_POINT('',(243.28444342213,-3.623738514714,
    97.284341864061));
#476 = CARTESIAN_POINT('',(243.47116658857,-3.705233564879,
    97.220693762799));
#477 = CARTESIAN_POINT('',(243.66231138408,-3.775200591748,
    97.164074044696));
#478 = CARTESIAN_POINT('',(243.92015253126,-3.852036006218,
    97.100261360316));
#479 = CARTESIAN_POINT('',(243.98304838909,-3.869447552085,
    97.085648382908));
#480 = CARTESIAN_POINT('',(244.04632053981,-3.885637199125,
    97.071933001974));
#481 = CARTESIAN_POINT('',(244.10994233997,-3.900594535429,
    97.059156392686));
#482 = CARTESIAN_POINT('',(244.17388874141,-3.914310069001,
    97.047356207735));
#483 = CARTESIAN_POINT('',(244.36314600125,-3.951029318134,
    97.015572647322));
#484 = CARTESIAN_POINT('',(244.48933569608,-3.970556844841,
    96.998397373646));
#485 = CARTESIAN_POINT('',(244.6163990388,-3.985261096206,
    96.985319553062));
#486 = CARTESIAN_POINT('',(244.74404532463,-3.995084662169,
    96.976531969211));
#487 = CARTESIAN_POINT('',(244.87199913641,-4.,96.972135955));
#488 = CARTESIAN_POINT('',(245.19332806314,-4.,96.972135955));
#489 = CARTESIAN_POINT('',(245.38635273385,-3.988787387063,
    96.982164797394));
#490 = CARTESIAN_POINT('',(245.57830831479,-3.966427418495,
    97.002164268544));
#491 = CARTESIAN_POINT('',(245.76839439951,-3.933048610981,
    97.031639425457));
#492 = CARTESIAN_POINT('',(245.95570745483,-3.888863159495,
    97.069657068703));
#493 = CARTESIAN_POINT('',(246.33719157657,-3.775524883849,
    97.163824802198));
#494 = CARTESIAN_POINT('',(246.53088499054,-3.704625047383,
    97.221211207404));
#495 = CARTESIAN_POINT('',(246.72003768676,-3.621890581343,
    97.285811350486));
#496 = CARTESIAN_POINT('',(246.904314475,-3.527390502346,97.356249579563
    ));
#497 = CARTESIAN_POINT('',(247.08325066876,-3.4211046049,97.431133658968
    ));
#498 = CARTESIAN_POINT('',(247.4662884632,-3.159450660492,
    97.603666376604));
#499 = CARTESIAN_POINT('',(247.6676081845,-2.998419668101,
    97.702772749397));
#500 = CARTESIAN_POINT('',(247.85993343003,-2.819091166879,
    97.804222420677));
#501 = CARTESIAN_POINT('',(248.04227675171,-2.620210548596,
    97.905867424215));
#502 = CARTESIAN_POINT('',(248.21268375416,-2.400302810656,
    98.005084920387));
#503 = CARTESIAN_POINT('',(248.47282273982,-1.994319572059,
    98.161578889952));
#504 = CARTESIAN_POINT('',(248.57110106701,-1.819918786974,
    98.222205947339));
#505 = CARTESIAN_POINT('',(248.66136022969,-1.634811805043,
    98.279081944263));
#506 = CARTESIAN_POINT('',(248.74211935279,-1.439088837078,
    98.330838094546));
#507 = CARTESIAN_POINT('',(248.81177504141,-1.232991879056,
    98.376034730902));
#508 = CARTESIAN_POINT('',(248.91064146341,-0.856896604546,
    98.440715786854));
#509 = CARTESIAN_POINT('',(248.94565332998,-0.691390725797,
    98.463826984007));
#510 = CARTESIAN_POINT('',(248.97261220024,-0.521655714987,
    98.481741488113));
#511 = CARTESIAN_POINT('',(248.9908498492,-0.348969319362,
    98.493899893797));
#512 = CARTESIAN_POINT('',(249.,-0.174643708907,98.5));
#513 = CARTESIAN_POINT('',(249.,-4.440892098501E-16,98.5));
#514 = PCURVE('',#157,#515);
#515 = DEFINITIONAL_REPRESENTATION('',(#516),#574);
#516 = B_SPLINE_CURVE_WITH_KNOTS('',6,(#517,#518,#519,#520,#521,#522,
    #523,#524,#525,#526,#527,#528,#529,#530,#531,#532,#533,#534,#535,
    #536,#537,#538,#539,#540,#541,#542,#543,#544,#545,#546,#547,#548,
    #549,#550,#551,#552,#553,#554,#555,#556,#557,#558,#559,#560,#561,
    #562,#563,#564,#565,#566,#567,#568,#569,#570,#571,#572,#573),
  .UNSPECIFIED.,.F.,.F.,(7,5,5,5,5,5,5,5,5,5,5,7),(0.,0.106311710024,
    0.193084291059,0.289857357158,0.397810028832,0.432343490771,
    0.49953699565,0.601023734027,0.710552749917,0.843543847509,
    0.933416206929,1.),.UNSPECIFIED.);
#517 = CARTESIAN_POINT('',(0.,33.6));
#518 = CARTESIAN_POINT('',(4.680103504793E-02,33.6));
#519 = CARTESIAN_POINT('',(9.317245719528E-02,33.62365593129));
#520 = CARTESIAN_POINT('',(0.138608661315,33.670151419862));
#521 = CARTESIAN_POINT('',(0.182611203753,33.737416037978));
#522 = CARTESIAN_POINT('',(0.224644266058,33.822127884929));
#523 = CARTESIAN_POINT('',(0.296378712936,33.998962185959));
#524 = CARTESIAN_POINT('',(0.327196982147,34.087527150398));
#525 = CARTESIAN_POINT('',(0.3566308299,34.183825141179));
#526 = CARTESIAN_POINT('',(0.384715307542,34.28675538812));
#527 = CARTESIAN_POINT('',(0.411483660246,34.395451498651));
#528 = CARTESIAN_POINT('',(0.465383947526,34.636173142516));
#529 = CARTESIAN_POINT('',(0.492228646802,34.769561621964));
#530 = CARTESIAN_POINT('',(0.517541081166,34.908561004611));
#531 = CARTESIAN_POINT('',(0.541347895269,35.052605364197));
#532 = CARTESIAN_POINT('',(0.563653506272,35.201360963732));
#533 = CARTESIAN_POINT('',(0.607612578001,35.525680329917));
#534 = CARTESIAN_POINT('',(0.628907832226,35.702465833862));
#535 = CARTESIAN_POINT('',(0.648228759988,35.884443422131));
#536 = CARTESIAN_POINT('',(0.665458712151,36.071166588571));
#537 = CARTESIAN_POINT('',(0.680458589057,36.262311384089));
#538 = CARTESIAN_POINT('',(0.697105026451,36.520152531269));
#539 = CARTESIAN_POINT('',(0.70089349032,36.583048389094));
#540 = CARTESIAN_POINT('',(0.704429818693,36.646320539819));
#541 = CARTESIAN_POINT('',(0.707708347049,36.70994233997));
#542 = CARTESIAN_POINT('',(0.710723854094,36.77388874141));
#543 = CARTESIAN_POINT('',(0.718817915651,36.963146001253));
#544 = CARTESIAN_POINT('',(0.723152128317,37.089335696088));
#545 = CARTESIAN_POINT('',(0.726431840162,37.216399038805));
#546 = CARTESIAN_POINT('',(0.728628606117,37.344045324631));
#547 = CARTESIAN_POINT('',(0.729727656227,37.471999136419));
#548 = CARTESIAN_POINT('',(0.729727656227,37.793328063144));
#549 = CARTESIAN_POINT('',(0.727220456383,37.986352733851));
#550 = CARTESIAN_POINT('',(0.722220537766,38.178308314799));
#551 = CARTESIAN_POINT('',(0.714799165546,38.368394399517));
#552 = CARTESIAN_POINT('',(0.705085665894,38.555707454832));
#553 = CARTESIAN_POINT('',(0.680526708059,38.937191576573));
#554 = CARTESIAN_POINT('',(0.665325630772,39.130884990546));
#555 = CARTESIAN_POINT('',(0.647835381398,39.32003768676));
#556 = CARTESIAN_POINT('',(0.628200406719,39.504314475002));
#557 = CARTESIAN_POINT('',(0.60654126406,39.683250668762));
#558 = CARTESIAN_POINT('',(0.554305068308,40.066288463203));
#559 = CARTESIAN_POINT('',(0.522806303228,40.267608184505));
#560 = CARTESIAN_POINT('',(0.488504436133,40.459933430038));
#561 = CARTESIAN_POINT('',(0.451337001959,40.642276751714));
#562 = CARTESIAN_POINT('',(0.411190806786,40.812683754169));
#563 = CARTESIAN_POINT('',(0.338673997905,41.072822739828));
#564 = CARTESIAN_POINT('',(0.307918050183,41.171101067013));
#565 = CARTESIAN_POINT('',(0.275677094663,41.261360229695));
#566 = CARTESIAN_POINT('',(0.241978674703,41.342119352798));
#567 = CARTESIAN_POINT('',(0.206849444269,41.411775041418));
#568 = CARTESIAN_POINT('',(0.143246663384,41.510641463412));
#569 = CARTESIAN_POINT('',(0.115408586592,41.545653329983));
#570 = CARTESIAN_POINT('',(8.69869868768E-02,41.57261220024));
#571 = CARTESIAN_POINT('',(5.816155879847E-02,41.590849849209));
#572 = CARTESIAN_POINT('',(2.910728481775E-02,41.6));
#573 = CARTESIAN_POINT('',(0.,41.6));
#574 = ( GEOMETRIC_REPRESENTATION_CONTEXT(2) 
PARAMETRIC_REPRESENTATION_CONTEXT() REPRESENTATION_CONTEXT('2D SPACE',''
  ) );
#575 = PCURVE('',#576,#581);
#576 = CYLINDRICAL_SURFACE('',#577,4.);
#577 = AXIS2_PLACEMENT_3D('',#578,#579,#580);
#578 = CARTESIAN_POINT('',(245.,0.,74.9));
#579 = DIRECTION('',(0.,0.,1.));
#580 = DIRECTION('',(1.,0.,-0.));
#581 = DEFINITIONAL_REPRESENTATION('',(#582),#640);
#582 = B_SPLINE_CURVE_WITH_KNOTS('',6,(#583,#584,#585,#586,#587,#588,
    #589,#590,#591,#592,#593,#594,#595,#596,#597,#598,#599,#600,#601,
    #602,#603,#604,#605,#606,#607,#608,#609,#610,#611,#612,#613,#614,
    #615,#616,#617,#618,#619,#620,#621,#622,#623,#624,#625,#626,#627,
    #628,#629,#630,#631,#632,#633,#634,#635,#636,#637,#638,#639),
  .UNSPECIFIED.,.F.,.F.,(7,5,5,5,5,5,5,5,5,5,5,7),(0.,0.106311710024,
    0.193084291059,0.289857357158,0.397810028832,0.432343490771,
    0.49953699565,0.601023734027,0.710552749917,0.843543847509,
    0.933416206929,1.),.UNSPECIFIED.);
#583 = CARTESIAN_POINT('',(3.14159265359,23.6));
#584 = CARTESIAN_POINT('',(3.211794206162,23.6));
#585 = CARTESIAN_POINT('',(3.281351189911,23.58422912126));
#586 = CARTESIAN_POINT('',(3.349852228207,23.553233385742));
#587 = CARTESIAN_POINT('',(3.416859990408,23.508775634991));
#588 = CARTESIAN_POINT('',(3.481829664284,23.453773645366));
#589 = CARTESIAN_POINT('',(3.594715976967,23.341402973741));
#590 = CARTESIAN_POINT('',(3.643997473466,23.285903195613));
#591 = CARTESIAN_POINT('',(3.691970705404,23.226637298689));
#592 = CARTESIAN_POINT('',(3.738765413315,23.16467512513));
#593 = CARTESIAN_POINT('',(3.784507437866,23.100942313929));
#594 = CARTESIAN_POINT('',(3.879311396055,22.964081300878));
#595 = CARTESIAN_POINT('',(3.928194785188,22.890650168376));
#596 = CARTESIAN_POINT('',(3.976164134425,22.817040020611));
#597 = CARTESIAN_POINT('',(4.023400150372,22.744184776787));
#598 = CARTESIAN_POINT('',(4.07008204732,22.672937865483));
#599 = CARTESIAN_POINT('',(4.168053120211,22.527417582195));
#600 = CARTESIAN_POINT('',(4.21928465786,22.453696169686));
#601 = CARTESIAN_POINT('',(4.270228052656,22.384341864061));
#602 = CARTESIAN_POINT('',(4.321021276707,22.320693762799));
#603 = CARTESIAN_POINT('',(4.371812748118,22.264074044696));
#604 = CARTESIAN_POINT('',(4.439074242534,22.200261360316));
#605 = CARTESIAN_POINT('',(4.45538647752,22.185648382908));
#606 = CARTESIAN_POINT('',(4.471709425291,22.171933001974));
#607 = CARTESIAN_POINT('',(4.488043805594,22.159156392686));
#608 = CARTESIAN_POINT('',(4.504390837642,22.147356207735));
#609 = CARTESIAN_POINT('',(4.552587449076,22.115572647322));
#610 = CARTESIAN_POINT('',(4.584487172011,22.098397373646));
#611 = CARTESIAN_POINT('',(4.616429793487,22.085319553062));
#612 = CARTESIAN_POINT('',(4.648400290032,22.076531969211));
#613 = CARTESIAN_POINT('',(4.680388764489,22.072135955));
#614 = CARTESIAN_POINT('',(4.760720996171,22.072135955));
#615 = CARTESIAN_POINT('',(4.808977122708,22.082164797394));
#616 = CARTESIAN_POINT('',(4.857169440263,22.102164268544));
#617 = CARTESIAN_POINT('',(4.90529693579,22.131639425457));
#618 = CARTESIAN_POINT('',(4.953331880657,22.169657068703));
#619 = CARTESIAN_POINT('',(5.052822992027,22.263824802198));
#620 = CARTESIAN_POINT('',(5.104289064941,22.321211207404));
#621 = CARTESIAN_POINT('',(5.1557573195,22.385811350486));
#622 = CARTESIAN_POINT('',(5.207382623218,22.456249579563));
#623 = CARTESIAN_POINT('',(5.259308968771,22.531133658968));
#624 = CARTESIAN_POINT('',(5.375277913589,22.703666376604));
#625 = CARTESIAN_POINT('',(5.439544969126,22.802772749397));
#626 = CARTESIAN_POINT('',(5.504997593737,22.904222420677));
#627 = CARTESIAN_POINT('',(5.572124105152,23.005867424214));
#628 = CARTESIAN_POINT('',(5.641397766221,23.105084920387));
#629 = CARTESIAN_POINT('',(5.761942022067,23.261578889952));
#630 = CARTESIAN_POINT('',(5.811907768899,23.322205947339));
#631 = CARTESIAN_POINT('',(5.863253206238,23.379081944263));
#632 = CARTESIAN_POINT('',(5.916021809718,23.430838094546));
#633 = CARTESIAN_POINT('',(5.970280629149,23.476034730902));
#634 = CARTESIAN_POINT('',(6.0674988839,23.540715786854));
#635 = CARTESIAN_POINT('',(6.109741126641,23.563826984007));
#636 = CARTESIAN_POINT('',(6.152621556706,23.581741488113));
#637 = CARTESIAN_POINT('',(6.195942978993,23.593899893797));
#638 = CARTESIAN_POINT('',(6.239524379953,23.6));
#639 = CARTESIAN_POINT('',(6.28318530718,23.6));
#640 = ( GEOMETRIC_REPRESENTATION_CONTEXT(2) 
PARAMETRIC_REPRESENTATION_CONTEXT() REPRESENTATION_CONTEXT('2D SPACE',''
  ) );
#641 = ORIENTED_EDGE('',*,*,#642,.F.);
#642 = EDGE_CURVE('',#141,#453,#643,.T.);
#643 = SEAM_CURVE('',#644,(#648,#655),.PCURVE_S1.);
#644 = LINE('',#645,#646);
#645 = CARTESIAN_POINT('',(207.4,1.469576158977E-15,98.5));
#646 = VECTOR('',#647,1.);
#647 = DIRECTION('',(1.,0.,0.));
#648 = PCURVE('',#157,#649);
#649 = DEFINITIONAL_REPRESENTATION('',(#650),#654);
#650 = LINE('',#651,#652);
#651 = CARTESIAN_POINT('',(6.28318530718,-0.));
#652 = VECTOR('',#653,1.);
#653 = DIRECTION('',(0.,1.));
#654 = ( GEOMETRIC_REPRESENTATION_CONTEXT(2) 
PARAMETRIC_REPRESENTATION_CONTEXT() REPRESENTATION_CONTEXT('2D SPACE',''
  ) );
#655 = PCURVE('',#157,#656);
#656 = DEFINITIONAL_REPRESENTATION('',(#657),#661);
#657 = LINE('',#658,#659);
#658 = CARTESIAN_POINT('',(0.,-0.));
#659 = VECTOR('',#660,1.);
#660 = DIRECTION('',(0.,1.));
#661 = ( GEOMETRIC_REPRESENTATION_CONTEXT(2) 
PARAMETRIC_REPRESENTATION_CONTEXT() REPRESENTATION_CONTEXT('2D SPACE',''
  ) );
#662 = ORIENTED_EDGE('',*,*,#140,.T.);
#663 = ORIENTED_EDGE('',*,*,#642,.T.);
#664 = ORIENTED_EDGE('',*,*,#665,.F.);
#665 = EDGE_CURVE('',#405,#453,#666,.T.);
#666 = SURFACE_CURVE('',#667,(#725,#786),.PCURVE_S1.);
#667 = B_SPLINE_CURVE_WITH_KNOTS('',6,(#668,#669,#670,#671,#672,#673,
    #674,#675,#676,#677,#678,#679,#680,#681,#682,#683,#684,#685,#686,
    #687,#688,#689,#690,#691,#692,#693,#694,#695,#696,#697,#698,#699,
    #700,#701,#702,#703,#704,#705,#706,#707,#708,#709,#710,#711,#712,
    #713,#714,#715,#716,#717,#718,#719,#720,#721,#722,#723,#724),
  .UNSPECIFIED.,.F.,.F.,(7,5,5,5,5,5,5,5,5,5,5,7),(0.,0.106311721247,
    0.193084311429,0.289857379511,0.397810061828,0.432343524443,
    0.499537025316,0.601023757642,0.710552767029,0.843543856758,
    0.933416210865,1.),.UNSPECIFIED.);
#668 = CARTESIAN_POINT('',(249.,2.449293598295E-16,98.5));
#669 = CARTESIAN_POINT('',(249.,0.280806210295,98.5));
#670 = CARTESIAN_POINT('',(248.9763440687,0.559034267415,98.484229121259
    ));
#671 = CARTESIAN_POINT('',(248.92984858013,0.830546661183,
    98.453233385743));
#672 = CARTESIAN_POINT('',(248.86258396202,1.091336375399,
    98.408775634992));
#673 = CARTESIAN_POINT('',(248.77787211506,1.337719705209,
    98.353773645364));
#674 = CARTESIAN_POINT('',(248.60103781405,1.753198637771,98.24140297375
    ));
#675 = CARTESIAN_POINT('',(248.5124728496,1.929741006886,98.185903195614
    ));
#676 = CARTESIAN_POINT('',(248.4161748588,2.096286334409,98.126637298678
    ));
#677 = CARTESIAN_POINT('',(248.31324461186,2.253128750119,
    98.064675125123));
#678 = CARTESIAN_POINT('',(248.20454850137,2.400626832974,
    98.000942313942));
#679 = CARTESIAN_POINT('',(247.96382686823,2.693641730778,
    97.864081306991));
#680 = CARTESIAN_POINT('',(247.83043835985,2.83711460211,97.79065015904)
  );
#681 = CARTESIAN_POINT('',(247.69143899593,2.970085751841,
    97.717040020258));
#682 = CARTESIAN_POINT('',(247.54739465421,3.093039378786,
    97.644184785942));
#683 = CARTESIAN_POINT('',(247.39863902425,3.206375757093,
    97.572937860094));
#684 = CARTESIAN_POINT('',(247.07431967012,3.426353581194,
    97.427417582215));
#685 = CARTESIAN_POINT('',(246.89753416612,3.530783835025,
    97.353696169678));
#686 = CARTESIAN_POINT('',(246.71555657782,3.623738514734,
    97.284341864044));
#687 = CARTESIAN_POINT('',(246.52883341141,3.705233564877,97.2206937628)
  );
#688 = CARTESIAN_POINT('',(246.33768861595,3.775200591735,
    97.164074044707));
#689 = CARTESIAN_POINT('',(246.07984747365,3.852036004751,
    97.100261361534));
#690 = CARTESIAN_POINT('',(246.0169516095,3.86944755222,97.085648382776)
  );
#691 = CARTESIAN_POINT('',(245.95367945517,3.885637200353,
    97.071933000936));
#692 = CARTESIAN_POINT('',(245.89005765875,3.900594535948,
    97.059156392263));
#693 = CARTESIAN_POINT('',(245.82611126367,3.914310068014,
    97.047356208589));
#694 = CARTESIAN_POINT('',(245.63685399874,3.951029318134,
    97.015572647322));
#695 = CARTESIAN_POINT('',(245.51066430391,3.970556844841,
    96.998397373646));
#696 = CARTESIAN_POINT('',(245.38360096119,3.985261096206,
    96.985319553062));
#697 = CARTESIAN_POINT('',(245.25595467536,3.995084662169,
    96.976531969211));
#698 = CARTESIAN_POINT('',(245.12800086358,4.,96.972135955));
#699 = CARTESIAN_POINT('',(244.80667193685,4.,96.972135955));
#700 = CARTESIAN_POINT('',(244.61364726614,3.988787387064,
    96.982164797394));
#701 = CARTESIAN_POINT('',(244.4216916852,3.966427418495,97.002164268544
    ));
#702 = CARTESIAN_POINT('',(244.23160560048,3.933048610981,
    97.031639425457));
#703 = CARTESIAN_POINT('',(244.04429254516,3.888863159495,
    97.069657068703));
#704 = CARTESIAN_POINT('',(243.66280842337,3.775524883834,97.16382480221
    ));
#705 = CARTESIAN_POINT('',(243.46911500946,3.70462504738,97.221211207406
    ));
#706 = CARTESIAN_POINT('',(243.27996231328,3.621890581364,
    97.285811350468));
#707 = CARTESIAN_POINT('',(243.09568552501,3.527390502363,
    97.356249579555));
#708 = CARTESIAN_POINT('',(242.91674933119,3.421104604869,
    97.431133658988));
#709 = CARTESIAN_POINT('',(242.53371153679,3.159450660492,
    97.603666376604));
#710 = CARTESIAN_POINT('',(242.33239181549,2.998419668101,
    97.702772749398));
#711 = CARTESIAN_POINT('',(242.14006656996,2.81909116688,97.804222420677
    ));
#712 = CARTESIAN_POINT('',(241.95772324828,2.620210548595,
    97.905867424215));
#713 = CARTESIAN_POINT('',(241.78731624583,2.400302810656,
    98.005084920387));
#714 = CARTESIAN_POINT('',(241.52717726017,1.994319572059,
    98.161578889952));
#715 = CARTESIAN_POINT('',(241.42889893298,1.819918786974,
    98.222205947339));
#716 = CARTESIAN_POINT('',(241.3386397703,1.634811805043,98.279081944263
    ));
#717 = CARTESIAN_POINT('',(241.2578806472,1.439088837078,98.330838094546
    ));
#718 = CARTESIAN_POINT('',(241.18822495858,1.232991879056,
    98.376034730902));
#719 = CARTESIAN_POINT('',(241.08935853658,0.856896604546,
    98.440715786854));
#720 = CARTESIAN_POINT('',(241.05434667001,0.691390725797,
    98.463826984007));
#721 = CARTESIAN_POINT('',(241.02738779976,0.521655714986,
    98.481741488113));
#722 = CARTESIAN_POINT('',(241.00915015079,0.348969319362,
    98.493899893797));
#723 = CARTESIAN_POINT('',(241.,0.174643708906,98.5));
#724 = CARTESIAN_POINT('',(241.,1.469576158977E-15,98.5));
#725 = PCURVE('',#157,#726);
#726 = DEFINITIONAL_REPRESENTATION('',(#727),#785);
#727 = B_SPLINE_CURVE_WITH_KNOTS('',6,(#728,#729,#730,#731,#732,#733,
    #734,#735,#736,#737,#738,#739,#740,#741,#742,#743,#744,#745,#746,
    #747,#748,#749,#750,#751,#752,#753,#754,#755,#756,#757,#758,#759,
    #760,#761,#762,#763,#764,#765,#766,#767,#768,#769,#770,#771,#772,
    #773,#774,#775,#776,#777,#778,#779,#780,#781,#782,#783,#784),
  .UNSPECIFIED.,.F.,.F.,(7,5,5,5,5,5,5,5,5,5,5,7),(0.,0.106311721247,
    0.193084311429,0.289857379511,0.397810061828,0.432343524443,
    0.499537025316,0.601023757642,0.710552767029,0.843543856758,
    0.933416210865,1.),.UNSPECIFIED.);
#728 = CARTESIAN_POINT('',(6.28318530718,41.6));
#729 = CARTESIAN_POINT('',(6.23638427213,41.6));
#730 = CARTESIAN_POINT('',(6.190012849985,41.576344068708));
#731 = CARTESIAN_POINT('',(6.144576645865,41.529848580139));
#732 = CARTESIAN_POINT('',(6.100574103427,41.462583962024));
#733 = CARTESIAN_POINT('',(6.05854104112,41.377872115068));
#734 = CARTESIAN_POINT('',(5.98680659425,41.201037814056));
#735 = CARTESIAN_POINT('',(5.955988325031,41.112472849604));
#736 = CARTESIAN_POINT('',(5.926554477274,41.016174858803));
#737 = CARTESIAN_POINT('',(5.898469999636,40.913244611867));
#738 = CARTESIAN_POINT('',(5.871701646939,40.804548501371));
#739 = CARTESIAN_POINT('',(5.817801362061,40.563826868235));
#740 = CARTESIAN_POINT('',(5.790956657076,40.430438359852));
#741 = CARTESIAN_POINT('',(5.765644225647,40.291438995939));
#742 = CARTESIAN_POINT('',(5.741837415035,40.147394654217));
#743 = CARTESIAN_POINT('',(5.719531799279,39.998639024258));
#744 = CARTESIAN_POINT('',(5.675572729184,39.674319670127));
#745 = CARTESIAN_POINT('',(5.654277474951,39.497534166127));
#746 = CARTESIAN_POINT('',(5.634956547187,39.315556577824));
#747 = CARTESIAN_POINT('',(5.617726595029,39.128833411417));
#748 = CARTESIAN_POINT('',(5.602726718126,38.937688615957));
#749 = CARTESIAN_POINT('',(5.586080281047,38.679847473655));
#750 = CARTESIAN_POINT('',(5.582291816828,38.616951609503));
#751 = CARTESIAN_POINT('',(5.578755488219,38.553679455171));
#752 = CARTESIAN_POINT('',(5.575476960019,38.490057658758));
#753 = CARTESIAN_POINT('',(5.572461453303,38.426111263678));
#754 = CARTESIAN_POINT('',(5.564367391529,38.236853998747));
#755 = CARTESIAN_POINT('',(5.560033178862,38.110664303912));
#756 = CARTESIAN_POINT('',(5.556753467018,37.983600961195));
#757 = CARTESIAN_POINT('',(5.554556701062,37.855954675369));
#758 = CARTESIAN_POINT('',(5.553457650953,37.728000863581));
#759 = CARTESIAN_POINT('',(5.553457650953,37.406671936856));
#760 = CARTESIAN_POINT('',(5.555964850797,37.213647266149));
#761 = CARTESIAN_POINT('',(5.560964769413,37.021691685201));
#762 = CARTESIAN_POINT('',(5.568386141634,36.831605600484));
#763 = CARTESIAN_POINT('',(5.578099641286,36.644292545168));
#764 = CARTESIAN_POINT('',(5.602658599124,36.262808423379));
#765 = CARTESIAN_POINT('',(5.617859676408,36.069115009467));
#766 = CARTESIAN_POINT('',(5.635349925777,35.879962313286));
#767 = CARTESIAN_POINT('',(5.654984900457,35.69568552501));
#768 = CARTESIAN_POINT('',(5.676644043126,35.516749331193));
#769 = CARTESIAN_POINT('',(5.728880238872,35.133711536797));
#770 = CARTESIAN_POINT('',(5.760379003952,34.932391815495));
#771 = CARTESIAN_POINT('',(5.794680871046,34.740066569964));
#772 = CARTESIAN_POINT('',(5.831848305221,34.557723248285));
#773 = CARTESIAN_POINT('',(5.871994500393,34.387316245831));
#774 = CARTESIAN_POINT('',(5.944511309275,34.127177260172));
#775 = CARTESIAN_POINT('',(5.975267256996,34.028898932988));
#776 = CARTESIAN_POINT('',(6.007508212516,33.938639770305));
#777 = CARTESIAN_POINT('',(6.041206632477,33.857880647202));
#778 = CARTESIAN_POINT('',(6.076335862911,33.788224958582));
#779 = CARTESIAN_POINT('',(6.139938643796,33.689358536588));
#780 = CARTESIAN_POINT('',(6.167776720588,33.654346670017));
#781 = CARTESIAN_POINT('',(6.196198320303,33.62738779976));
#782 = CARTESIAN_POINT('',(6.225023748381,33.609150150791));
#783 = CARTESIAN_POINT('',(6.254078022362,33.6));
#784 = CARTESIAN_POINT('',(6.28318530718,33.6));
#785 = ( GEOMETRIC_REPRESENTATION_CONTEXT(2) 
PARAMETRIC_REPRESENTATION_CONTEXT() REPRESENTATION_CONTEXT('2D SPACE',''
  ) );
#786 = PCURVE('',#576,#787);
#787 = DEFINITIONAL_REPRESENTATION('',(#788),#846);
#788 = B_SPLINE_CURVE_WITH_KNOTS('',6,(#789,#790,#791,#792,#793,#794,
    #795,#796,#797,#798,#799,#800,#801,#802,#803,#804,#805,#806,#807,
    #808,#809,#810,#811,#812,#813,#814,#815,#816,#817,#818,#819,#820,
    #821,#822,#823,#824,#825,#826,#827,#828,#829,#830,#831,#832,#833,
    #834,#835,#836,#837,#838,#839,#840,#841,#842,#843,#844,#845),
  .UNSPECIFIED.,.F.,.F.,(7,5,5,5,5,5,5,5,5,5,5,7),(0.,0.106311721247,
    0.193084311429,0.289857379511,0.397810061828,0.432343524443,
    0.499537025316,0.601023757642,0.710552767029,0.843543856758,
    0.933416210865,1.),.UNSPECIFIED.);
#789 = CARTESIAN_POINT('',(0.,23.6));
#790 = CARTESIAN_POINT('',(7.02015525737E-02,23.6));
#791 = CARTESIAN_POINT('',(0.139758536321,23.584229121259));
#792 = CARTESIAN_POINT('',(0.208259574616,23.553233385743));
#793 = CARTESIAN_POINT('',(0.275267336817,23.508775634992));
#794 = CARTESIAN_POINT('',(0.340237010696,23.453773645364));
#795 = CARTESIAN_POINT('',(0.453123323368,23.34140297375));
#796 = CARTESIAN_POINT('',(0.502404819878,23.285903195614));
#797 = CARTESIAN_POINT('',(0.550378051823,23.226637298678));
#798 = CARTESIAN_POINT('',(0.597172759728,23.164675125123));
#799 = CARTESIAN_POINT('',(0.642914784267,23.100942313942));
#800 = CARTESIAN_POINT('',(0.737718738231,22.964081306991));
#801 = CARTESIAN_POINT('',(0.786602137947,22.89065015904));
#802 = CARTESIAN_POINT('',(0.834571481127,22.817040020258));
#803 = CARTESIAN_POINT('',(0.881807490579,22.744184785942));
#804 = CARTESIAN_POINT('',(0.928489397358,22.672937860094));
#805 = CARTESIAN_POINT('',(1.026460466609,22.527417582215));
#806 = CARTESIAN_POINT('',(1.077692004275,22.453696169678));
#807 = CARTESIAN_POINT('',(1.128635399078,22.384341864044));
#808 = CARTESIAN_POINT('',(1.17942862312,22.3206937628));
#809 = CARTESIAN_POINT('',(1.230220094516,22.264074044707));
#810 = CARTESIAN_POINT('',(1.297481587659,22.200261361534));
#811 = CARTESIAN_POINT('',(1.313793824279,22.185648382776));
#812 = CARTESIAN_POINT('',(1.330116772992,22.171933000936));
#813 = CARTESIAN_POINT('',(1.346451152344,22.159156392263));
#814 = CARTESIAN_POINT('',(1.362798182756,22.147356208589));
#815 = CARTESIAN_POINT('',(1.410994795486,22.115572647322));
#816 = CARTESIAN_POINT('',(1.442894518421,22.098397373646));
#817 = CARTESIAN_POINT('',(1.474837139897,22.085319553062));
#818 = CARTESIAN_POINT('',(1.506807636442,22.076531969211));
#819 = CARTESIAN_POINT('',(1.5387961109,22.072135955));
#820 = CARTESIAN_POINT('',(1.619128342581,22.072135955));
#821 = CARTESIAN_POINT('',(1.667384469118,22.082164797394));
#822 = CARTESIAN_POINT('',(1.715576786673,22.102164268544));
#823 = CARTESIAN_POINT('',(1.763704282201,22.131639425457));
#824 = CARTESIAN_POINT('',(1.811739227067,22.169657068703));
#825 = CARTESIAN_POINT('',(1.91123033845,22.26382480221));
#826 = CARTESIAN_POINT('',(1.962696411348,22.321211207406));
#827 = CARTESIAN_POINT('',(2.014164665898,22.385811350468));
#828 = CARTESIAN_POINT('',(2.065789969623,22.456249579555));
#829 = CARTESIAN_POINT('',(2.117716315195,22.531133658988));
#830 = CARTESIAN_POINT('',(2.233685259999,22.703666376604));
#831 = CARTESIAN_POINT('',(2.297952315537,22.802772749398));
#832 = CARTESIAN_POINT('',(2.363404940147,22.904222420677));
#833 = CARTESIAN_POINT('',(2.430531451562,23.005867424215));
#834 = CARTESIAN_POINT('',(2.499805112631,23.105084920387));
#835 = CARTESIAN_POINT('',(2.620349368477,23.261578889952));
#836 = CARTESIAN_POINT('',(2.670315115309,23.322205947339));
#837 = CARTESIAN_POINT('',(2.721660552648,23.379081944263));
#838 = CARTESIAN_POINT('',(2.774429156129,23.430838094546));
#839 = CARTESIAN_POINT('',(2.82868797556,23.476034730902));
#840 = CARTESIAN_POINT('',(2.92590623031,23.540715786854));
#841 = CARTESIAN_POINT('',(2.968148473051,23.563826984007));
#842 = CARTESIAN_POINT('',(3.011028903116,23.581741488113));
#843 = CARTESIAN_POINT('',(3.054350325403,23.593899893797));
#844 = CARTESIAN_POINT('',(3.097931726363,23.6));
#845 = CARTESIAN_POINT('',(3.14159265359,23.6));
#846 = ( GEOMETRIC_REPRESENTATION_CONTEXT(2) 
PARAMETRIC_REPRESENTATION_CONTEXT() REPRESENTATION_CONTEXT('2D SPACE',''
  ) );
#847 = FACE_BOUND('',#848,.F.);
#848 = EDGE_LOOP('',(#849));
#849 = ORIENTED_EDGE('',*,*,#850,.T.);
#850 = EDGE_CURVE('',#851,#851,#853,.T.);
#851 = VERTEX_POINT('',#852);
#852 = CARTESIAN_POINT('',(249.,-9.797174393179E-16,86.5));
#853 = SURFACE_CURVE('',#854,(#967,#1083),.PCURVE_S1.);
#854 = B_SPLINE_CURVE_WITH_KNOTS('',6,(#855,#856,#857,#858,#859,#860,
    #861,#862,#863,#864,#865,#866,#867,#868,#869,#870,#871,#872,#873,
    #874,#875,#876,#877,#878,#879,#880,#881,#882,#883,#884,#885,#886,
    #887,#888,#889,#890,#891,#892,#893,#894,#895,#896,#897,#898,#899,
    #900,#901,#902,#903,#904,#905,#906,#907,#908,#909,#910,#911,#912,
    #913,#914,#915,#916,#917,#918,#919,#920,#921,#922,#923,#924,#925,
    #926,#927,#928,#929,#930,#931,#932,#933,#934,#935,#936,#937,#938,
    #939,#940,#941,#942,#943,#944,#945,#946,#947,#948,#949,#950,#951,
    #952,#953,#954,#955,#956,#957,#958,#959,#960,#961,#962,#963,#964,
    #965,#966),.UNSPECIFIED.,.T.,.F.,(7,5,5,5,5,5,5,5,5,5,5,5,5,5,5,5,5,
    5,5,5,5,5,7),(0.,5.319997524974E-02,9.662227701222E-02,
    0.145048967446,0.199070104026,0.216351166501,0.249975804476,
    0.30076129101,0.355571253874,0.422121994433,0.467095471482,
    0.522492934323,0.553657111996,0.596994733014,0.645326987434,
    0.699242774161,0.716490135805,0.750049200369,0.800735647096,
    0.855438721783,0.921859677773,0.966745449362,1.),.UNSPECIFIED.);
#855 = CARTESIAN_POINT('',(249.,-8.881784197001E-16,86.5));
#856 = CARTESIAN_POINT('',(249.,0.280806209908,86.5));
#857 = CARTESIAN_POINT('',(248.97634406877,0.559034267504,
    86.515770878697));
#858 = CARTESIAN_POINT('',(248.92984858006,0.830546661558,
    86.546766614311));
#859 = CARTESIAN_POINT('',(248.86258396191,1.091336375511,
    86.591224365075));
#860 = CARTESIAN_POINT('',(248.77787211522,1.337719704852,
    86.646226354539));
#861 = CARTESIAN_POINT('',(248.60103781408,1.753198637692,
    86.758597026228));
#862 = CARTESIAN_POINT('',(248.5124728496,1.929741006902,86.814096804385
    ));
#863 = CARTESIAN_POINT('',(248.41617485876,2.096286334478,
    86.873362701347));
#864 = CARTESIAN_POINT('',(248.31324461184,2.253128750139,
    86.935324874891));
#865 = CARTESIAN_POINT('',(248.20454850142,2.400626832913,86.99905768603
    ));
#866 = CARTESIAN_POINT('',(247.96382686823,2.693641730778,
    87.135918693009));
#867 = CARTESIAN_POINT('',(247.83043835985,2.83711460211,87.20934984096)
  );
#868 = CARTESIAN_POINT('',(247.69143899593,2.970085751841,
    87.282959979742));
#869 = CARTESIAN_POINT('',(247.54739465421,3.093039378786,
    87.355815214058));
#870 = CARTESIAN_POINT('',(247.39863902425,3.206375757093,
    87.427062139906));
#871 = CARTESIAN_POINT('',(247.07431967012,3.426353581195,
    87.572582417786));
#872 = CARTESIAN_POINT('',(246.89753416612,3.530783835025,
    87.646303830322));
#873 = CARTESIAN_POINT('',(246.71555657782,3.623738514733,
    87.715658135956));
#874 = CARTESIAN_POINT('',(246.52883341141,3.705233564877,87.7793062372)
  );
#875 = CARTESIAN_POINT('',(246.33768861595,3.775200591735,
    87.835925955293));
#876 = CARTESIAN_POINT('',(246.07984746873,3.852036006218,
    87.899738639684));
#877 = CARTESIAN_POINT('',(246.0169516109,3.869447552085,87.914351617092
    ));
#878 = CARTESIAN_POINT('',(245.95367946018,3.885637199125,
    87.928066998026));
#879 = CARTESIAN_POINT('',(245.89005766003,3.900594535429,
    87.940843607314));
#880 = CARTESIAN_POINT('',(245.82611125859,3.914310069001,
    87.952643792265));
#881 = CARTESIAN_POINT('',(245.63685399874,3.951029318134,
    87.984427352678));
#882 = CARTESIAN_POINT('',(245.51066430391,3.970556844841,
    88.001602626354));
#883 = CARTESIAN_POINT('',(245.38360096119,3.985261096206,
    88.014680446938));
#884 = CARTESIAN_POINT('',(245.25595467536,3.995084662169,
    88.023468030789));
#885 = CARTESIAN_POINT('',(245.12800086358,4.,88.027864045));
#886 = CARTESIAN_POINT('',(244.80667193685,4.,88.027864045));
#887 = CARTESIAN_POINT('',(244.61364726614,3.988787387064,
    88.017835202606));
#888 = CARTESIAN_POINT('',(244.4216916852,3.966427418495,87.997835731456
    ));
#889 = CARTESIAN_POINT('',(244.23160560048,3.933048610982,
    87.968360574543));
#890 = CARTESIAN_POINT('',(244.04429254516,3.888863159495,
    87.930342931297));
#891 = CARTESIAN_POINT('',(243.66280842342,3.775524883848,
    87.836175197802));
#892 = CARTESIAN_POINT('',(243.46911500945,3.704625047383,
    87.778788792596));
#893 = CARTESIAN_POINT('',(243.27996231324,3.621890581343,
    87.714188649514));
#894 = CARTESIAN_POINT('',(243.09568552499,3.527390502347,
    87.643750420437));
#895 = CARTESIAN_POINT('',(242.91674933123,3.421104604899,
    87.568866341032));
#896 = CARTESIAN_POINT('',(242.53371153679,3.159450660492,
    87.396333623396));
#897 = CARTESIAN_POINT('',(242.33239181549,2.998419668101,
    87.297227250602));
#898 = CARTESIAN_POINT('',(242.14006656996,2.81909116688,87.195777579324
    ));
#899 = CARTESIAN_POINT('',(241.95772324828,2.620210548595,
    87.094132575785));
#900 = CARTESIAN_POINT('',(241.78731624583,2.400302810656,
    86.994915079613));
#901 = CARTESIAN_POINT('',(241.52717726017,1.994319572059,
    86.838421110048));
#902 = CARTESIAN_POINT('',(241.42889893298,1.819918786974,
    86.777794052661));
#903 = CARTESIAN_POINT('',(241.3386397703,1.634811805043,86.720918055737
    ));
#904 = CARTESIAN_POINT('',(241.2578806472,1.439088837078,86.669161905454
    ));
#905 = CARTESIAN_POINT('',(241.18822495858,1.232991879056,
    86.623965269098));
#906 = CARTESIAN_POINT('',(241.06147908184,0.750841070484,
    86.541044728639));
#907 = CARTESIAN_POINT('',(241.01077750206,0.468634221783,
    86.507306266098));
#908 = CARTESIAN_POINT('',(240.98444200038,0.176771978399,
    86.489547335634));
#909 = CARTESIAN_POINT('',(240.98461531798,-0.117852819127,
    86.489726068406));
#910 = CARTESIAN_POINT('',(241.01078745603,-0.408246880904,
    86.507297984541));
#911 = CARTESIAN_POINT('',(241.08700150118,-0.844933669483,
    86.557682824661));
#912 = CARTESIAN_POINT('',(241.12155375831,-0.998465604652,
    86.580439760134));
#913 = CARTESIAN_POINT('',(241.16269384701,-1.147817295736,
    86.607382839459));
#914 = CARTESIAN_POINT('',(241.20983982874,-1.292536077179,
    86.63801429624));
#915 = CARTESIAN_POINT('',(241.26234549105,-1.432212504201,
    86.671782931524));
#916 = CARTESIAN_POINT('',(241.39896218596,-1.753198637806,
    86.758597026259));
#917 = CARTESIAN_POINT('',(241.48752715039,-1.929741006879,
    86.814096804387));
#918 = CARTESIAN_POINT('',(241.58382514117,-2.096286334378,
    86.873362701311));
#919 = CARTESIAN_POINT('',(241.68675538812,-2.25312875011,86.93532487487
    ));
#920 = CARTESIAN_POINT('',(241.79545149865,-2.400626833002,
    86.999057686071));
#921 = CARTESIAN_POINT('',(242.03617314251,-2.693641743865,
    87.135918699122));
#922 = CARTESIAN_POINT('',(242.16956162196,-2.837114584689,
    87.209349831624));
#923 = CARTESIAN_POINT('',(242.30856100461,-2.970085749523,
    87.282959979389));
#924 = CARTESIAN_POINT('',(242.45260536419,-3.093039395094,
    87.355815223213));
#925 = CARTESIAN_POINT('',(242.60136096373,-3.206375748947,
    87.427062134517));
#926 = CARTESIAN_POINT('',(242.92568032991,-3.426353581223,
    87.572582417804));
#927 = CARTESIAN_POINT('',(243.10246583386,-3.53078383501,
    87.646303830314));
#928 = CARTESIAN_POINT('',(243.28444342213,-3.623738514714,
    87.715658135939));
#929 = CARTESIAN_POINT('',(243.47116658857,-3.705233564879,
    87.779306237201));
#930 = CARTESIAN_POINT('',(243.66231138408,-3.775200591748,
    87.835925955304));
#931 = CARTESIAN_POINT('',(243.92015253126,-3.852036006218,
    87.899738639684));
#932 = CARTESIAN_POINT('',(243.98304838909,-3.869447552085,
    87.914351617092));
#933 = CARTESIAN_POINT('',(244.04632053981,-3.885637199125,
    87.928066998026));
#934 = CARTESIAN_POINT('',(244.10994233997,-3.900594535429,
    87.940843607314));
#935 = CARTESIAN_POINT('',(244.17388874141,-3.914310069001,
    87.952643792265));
#936 = CARTESIAN_POINT('',(244.36314600125,-3.951029318134,
    87.984427352678));
#937 = CARTESIAN_POINT('',(244.48933569608,-3.970556844841,
    88.001602626354));
#938 = CARTESIAN_POINT('',(244.6163990388,-3.985261096206,
    88.014680446938));
#939 = CARTESIAN_POINT('',(244.74404532463,-3.995084662169,
    88.023468030789));
#940 = CARTESIAN_POINT('',(244.87199913641,-4.,88.027864045));
#941 = CARTESIAN_POINT('',(245.19332806314,-4.,88.027864045));
#942 = CARTESIAN_POINT('',(245.38635273385,-3.988787387063,
    88.017835202606));
#943 = CARTESIAN_POINT('',(245.57830831479,-3.966427418495,
    87.997835731456));
#944 = CARTESIAN_POINT('',(245.76839439951,-3.933048610982,
    87.968360574543));
#945 = CARTESIAN_POINT('',(245.95570745483,-3.888863159495,
    87.930342931297));
#946 = CARTESIAN_POINT('',(246.33719157657,-3.775524883848,
    87.836175197802));
#947 = CARTESIAN_POINT('',(246.53088499054,-3.704625047383,
    87.778788792595));
#948 = CARTESIAN_POINT('',(246.72003768676,-3.621890581343,
    87.714188649514));
#949 = CARTESIAN_POINT('',(246.904314475,-3.527390502346,87.643750420437
    ));
#950 = CARTESIAN_POINT('',(247.08325066876,-3.4211046049,87.568866341032
    ));
#951 = CARTESIAN_POINT('',(247.4662884632,-3.159450660492,
    87.396333623396));
#952 = CARTESIAN_POINT('',(247.6676081845,-2.9984196681,87.297227250602)
  );
#953 = CARTESIAN_POINT('',(247.85993343003,-2.81909116688,
    87.195777579324));
#954 = CARTESIAN_POINT('',(248.04227675171,-2.620210548595,
    87.094132575785));
#955 = CARTESIAN_POINT('',(248.21268375416,-2.400302810657,
    86.994915079613));
#956 = CARTESIAN_POINT('',(248.47282273982,-1.994319572059,
    86.838421110048));
#957 = CARTESIAN_POINT('',(248.57110106701,-1.819918786974,
    86.777794052661));
#958 = CARTESIAN_POINT('',(248.66136022969,-1.634811805043,
    86.720918055737));
#959 = CARTESIAN_POINT('',(248.74211935279,-1.439088837078,
    86.669161905454));
#960 = CARTESIAN_POINT('',(248.81177504141,-1.232991879056,
    86.623965269098));
#961 = CARTESIAN_POINT('',(248.91064146341,-0.856896604545,
    86.559284213146));
#962 = CARTESIAN_POINT('',(248.94565332998,-0.691390725797,
    86.536173015993));
#963 = CARTESIAN_POINT('',(248.97261220024,-0.521655714986,
    86.518258511887));
#964 = CARTESIAN_POINT('',(248.9908498492,-0.348969319362,
    86.506100106203));
#965 = CARTESIAN_POINT('',(249.,-0.174643708906,86.5));
#966 = CARTESIAN_POINT('',(249.,-8.881784197001E-16,86.5));
#967 = PCURVE('',#157,#968);
#968 = DEFINITIONAL_REPRESENTATION('',(#969),#1082);
#969 = B_SPLINE_CURVE_WITH_KNOTS('',6,(#970,#971,#972,#973,#974,#975,
    #976,#977,#978,#979,#980,#981,#982,#983,#984,#985,#986,#987,#988,
    #989,#990,#991,#992,#993,#994,#995,#996,#997,#998,#999,#1000,#1001,
    #1002,#1003,#1004,#1005,#1006,#1007,#1008,#1009,#1010,#1011,#1012,
    #1013,#1014,#1015,#1016,#1017,#1018,#1019,#1020,#1021,#1022,#1023,
    #1024,#1025,#1026,#1027,#1028,#1029,#1030,#1031,#1032,#1033,#1034,
    #1035,#1036,#1037,#1038,#1039,#1040,#1041,#1042,#1043,#1044,#1045,
    #1046,#1047,#1048,#1049,#1050,#1051,#1052,#1053,#1054,#1055,#1056,
    #1057,#1058,#1059,#1060,#1061,#1062,#1063,#1064,#1065,#1066,#1067,
    #1068,#1069,#1070,#1071,#1072,#1073,#1074,#1075,#1076,#1077,#1078,
    #1079,#1080,#1081),.UNSPECIFIED.,.T.,.F.,(7,5,5,5,5,5,5,5,5,5,5,5,5,
    5,5,5,5,5,5,5,5,5,7),(0.,5.319997524974E-02,9.662227701222E-02,
    0.145048967446,0.199070104026,0.216351166501,0.249975804476,
    0.30076129101,0.355571253874,0.422121994433,0.467095471482,
    0.522492934323,0.553657111996,0.596994733014,0.645326987434,
    0.699242774161,0.716490135805,0.750049200369,0.800735647096,
    0.855438721783,0.921859677773,0.966745449362,1.),.UNSPECIFIED.);
#970 = CARTESIAN_POINT('',(3.14159265359,41.6));
#971 = CARTESIAN_POINT('',(3.188393688574,41.6));
#972 = CARTESIAN_POINT('',(3.2347651108,41.576344068773));
#973 = CARTESIAN_POINT('',(3.280201314966,41.529848580064));
#974 = CARTESIAN_POINT('',(3.324203857363,41.462583961914));
#975 = CARTESIAN_POINT('',(3.366236919587,41.37787211522));
#976 = CARTESIAN_POINT('',(3.437971366506,41.201037814089));
#977 = CARTESIAN_POINT('',(3.468789635741,41.112472849609));
#978 = CARTESIAN_POINT('',(3.498223483507,41.016174858761));
#979 = CARTESIAN_POINT('',(3.526307961137,40.91324461184));
#980 = CARTESIAN_POINT('',(3.553076313819,40.804548501422));
#981 = CARTESIAN_POINT('',(3.606976598709,40.563826868235));
#982 = CARTESIAN_POINT('',(3.633821303693,40.430438359852));
#983 = CARTESIAN_POINT('',(3.659133735123,40.291438995939));
#984 = CARTESIAN_POINT('',(3.682940545734,40.147394654217));
#985 = CARTESIAN_POINT('',(3.70524616149,39.998639024258));
#986 = CARTESIAN_POINT('',(3.749205231585,39.674319670126));
#987 = CARTESIAN_POINT('',(3.770500485819,39.497534166127));
#988 = CARTESIAN_POINT('',(3.789821413582,39.315556577825));
#989 = CARTESIAN_POINT('',(3.80705136574,39.128833411417));
#990 = CARTESIAN_POINT('',(3.822051242644,38.937688615957));
#991 = CARTESIAN_POINT('',(3.838697680041,38.679847468731));
#992 = CARTESIAN_POINT('',(3.84248614391,38.616951610906));
#993 = CARTESIAN_POINT('',(3.846022472283,38.553679460181));
#994 = CARTESIAN_POINT('',(3.849301000639,38.49005766003));
#995 = CARTESIAN_POINT('',(3.852316507684,38.42611125859));
#996 = CARTESIAN_POINT('',(3.860410569241,38.236853998747));
#997 = CARTESIAN_POINT('',(3.864744781907,38.110664303912));
#998 = CARTESIAN_POINT('',(3.868024493752,37.983600961195));
#999 = CARTESIAN_POINT('',(3.870221259707,37.855954675369));
#1000 = CARTESIAN_POINT('',(3.871320309817,37.728000863581));
#1001 = CARTESIAN_POINT('',(3.871320309817,37.406671936856));
#1002 = CARTESIAN_POINT('',(3.868813109973,37.213647266149));
#1003 = CARTESIAN_POINT('',(3.863813191356,37.021691685201));
#1004 = CARTESIAN_POINT('',(3.856391819136,36.831605600484));
#1005 = CARTESIAN_POINT('',(3.846678319484,36.644292545167));
#1006 = CARTESIAN_POINT('',(3.822119361649,36.262808423427));
#1007 = CARTESIAN_POINT('',(3.806918284362,36.069115009454));
#1008 = CARTESIAN_POINT('',(3.789428034987,35.87996231324));
#1009 = CARTESIAN_POINT('',(3.769793060309,35.695685524999));
#1010 = CARTESIAN_POINT('',(3.748133917649,35.516749331238));
#1011 = CARTESIAN_POINT('',(3.695897721897,35.133711536797));
#1012 = CARTESIAN_POINT('',(3.664398956817,34.932391815495));
#1013 = CARTESIAN_POINT('',(3.630097089723,34.740066569964));
#1014 = CARTESIAN_POINT('',(3.592929655548,34.557723248285));
#1015 = CARTESIAN_POINT('',(3.552783460376,34.387316245831));
#1016 = CARTESIAN_POINT('',(3.480266651495,34.127177260172));
#1017 = CARTESIAN_POINT('',(3.449510703773,34.028898932988));
#1018 = CARTESIAN_POINT('',(3.417269748253,33.938639770305));
#1019 = CARTESIAN_POINT('',(3.383571328292,33.857880647202));
#1020 = CARTESIAN_POINT('',(3.348442097859,33.788224958582));
#1021 = CARTESIAN_POINT('',(3.266903896478,33.661479081843));
#1022 = CARTESIAN_POINT('',(3.219596615428,33.610777502061));
#1023 = CARTESIAN_POINT('',(3.170992231009,33.584442000386));
#1024 = CARTESIAN_POINT('',(3.122024027115,33.584615317987));
#1025 = CARTESIAN_POINT('',(3.073608052075,33.610787456034));
#1026 = CARTESIAN_POINT('',(3.000344072857,33.687001501187));
#1027 = CARTESIAN_POINT('',(2.97448935096,33.72155375831));
#1028 = CARTESIAN_POINT('',(2.949213659236,33.762693847018));
#1029 = CARTESIAN_POINT('',(2.924575165082,33.809839828745));
#1030 = CARTESIAN_POINT('',(2.900633748838,33.86234549105));
#1031 = CARTESIAN_POINT('',(2.845213940654,33.99896218596));
#1032 = CARTESIAN_POINT('',(2.814395671442,34.087527150398));
#1033 = CARTESIAN_POINT('',(2.78496182369,34.183825141179));
#1034 = CARTESIAN_POINT('',(2.756877346048,34.28675538812));
#1035 = CARTESIAN_POINT('',(2.730108993344,34.395451498651));
#1036 = CARTESIAN_POINT('',(2.676208706064,34.636173142516));
#1037 = CARTESIAN_POINT('',(2.649364006787,34.769561621964));
#1038 = CARTESIAN_POINT('',(2.624051572423,34.908561004611));
#1039 = CARTESIAN_POINT('',(2.600244758321,35.052605364197));
#1040 = CARTESIAN_POINT('',(2.577939147317,35.201360963732));
#1041 = CARTESIAN_POINT('',(2.533980075589,35.525680329916));
#1042 = CARTESIAN_POINT('',(2.512684821364,35.702465833862));
#1043 = CARTESIAN_POINT('',(2.493363893602,35.884443422132));
#1044 = CARTESIAN_POINT('',(2.476133941439,36.071166588571));
#1045 = CARTESIAN_POINT('',(2.461134064533,36.262311384088));
#1046 = CARTESIAN_POINT('',(2.444487627139,36.520152531269));
#1047 = CARTESIAN_POINT('',(2.440699163269,36.583048389094));
#1048 = CARTESIAN_POINT('',(2.437162834897,36.646320539819));
#1049 = CARTESIAN_POINT('',(2.433884306541,36.70994233997));
#1050 = CARTESIAN_POINT('',(2.430868799496,36.773888741409));
#1051 = CARTESIAN_POINT('',(2.422774737939,36.963146001253));
#1052 = CARTESIAN_POINT('',(2.418440525273,37.089335696088));
#1053 = CARTESIAN_POINT('',(2.415160813428,37.216399038805));
#1054 = CARTESIAN_POINT('',(2.412964047473,37.344045324631));
#1055 = CARTESIAN_POINT('',(2.411864997363,37.471999136419));
#1056 = CARTESIAN_POINT('',(2.411864997363,37.793328063144));
#1057 = CARTESIAN_POINT('',(2.414372197207,37.986352733851));
#1058 = CARTESIAN_POINT('',(2.419372115824,38.178308314799));
#1059 = CARTESIAN_POINT('',(2.426793488044,38.368394399516));
#1060 = CARTESIAN_POINT('',(2.436506987696,38.555707454833));
#1061 = CARTESIAN_POINT('',(2.461065945531,38.937191576573));
#1062 = CARTESIAN_POINT('',(2.476267022817,39.130884990547));
#1063 = CARTESIAN_POINT('',(2.493757272192,39.32003768676));
#1064 = CARTESIAN_POINT('',(2.51339224687,39.504314475002));
#1065 = CARTESIAN_POINT('',(2.53505138953,39.683250668762));
#1066 = CARTESIAN_POINT('',(2.587287585282,40.066288463203));
#1067 = CARTESIAN_POINT('',(2.618786350362,40.267608184506));
#1068 = CARTESIAN_POINT('',(2.653088217457,40.459933430036));
#1069 = CARTESIAN_POINT('',(2.690255651631,40.642276751715));
#1070 = CARTESIAN_POINT('',(2.730401846804,40.812683754169));
#1071 = CARTESIAN_POINT('',(2.802918655685,41.072822739828));
#1072 = CARTESIAN_POINT('',(2.833674603407,41.171101067013));
#1073 = CARTESIAN_POINT('',(2.865915558927,41.261360229695));
#1074 = CARTESIAN_POINT('',(2.899613978887,41.342119352798));
#1075 = CARTESIAN_POINT('',(2.934743209321,41.411775041418));
#1076 = CARTESIAN_POINT('',(2.998345990206,41.510641463413));
#1077 = CARTESIAN_POINT('',(3.026184066998,41.545653329983));
#1078 = CARTESIAN_POINT('',(3.054605666713,41.57261220024));
#1079 = CARTESIAN_POINT('',(3.083431094791,41.590849849209));
#1080 = CARTESIAN_POINT('',(3.112485368772,41.6));
#1081 = CARTESIAN_POINT('',(3.14159265359,41.6));
#1082 = ( GEOMETRIC_REPRESENTATION_CONTEXT(2) 
PARAMETRIC_REPRESENTATION_CONTEXT() REPRESENTATION_CONTEXT('2D SPACE',''
  ) );
#1083 = PCURVE('',#362,#1084);
#1084 = DEFINITIONAL_REPRESENTATION('',(#1085),#1198);
#1085 = B_SPLINE_CURVE_WITH_KNOTS('',6,(#1086,#1087,#1088,#1089,#1090,
    #1091,#1092,#1093,#1094,#1095,#1096,#1097,#1098,#1099,#1100,#1101,
    #1102,#1103,#1104,#1105,#1106,#1107,#1108,#1109,#1110,#1111,#1112,
    #1113,#1114,#1115,#1116,#1117,#1118,#1119,#1120,#1121,#1122,#1123,
    #1124,#1125,#1126,#1127,#1128,#1129,#1130,#1131,#1132,#1133,#1134,
    #1135,#1136,#1137,#1138,#1139,#1140,#1141,#1142,#1143,#1144,#1145,
    #1146,#1147,#1148,#1149,#1150,#1151,#1152,#1153,#1154,#1155,#1156,
    #1157,#1158,#1159,#1160,#1161,#1162,#1163,#1164,#1165,#1166,#1167,
    #1168,#1169,#1170,#1171,#1172,#1173,#1174,#1175,#1176,#1177,#1178,
    #1179,#1180,#1181,#1182,#1183,#1184,#1185,#1186,#1187,#1188,#1189,
    #1190,#1191,#1192,#1193,#1194,#1195,#1196,#1197),.UNSPECIFIED.,.F.,
  .F.,(7,5,5,5,5,5,5,5,5,5,5,5,5,5,5,5,5,5,5,5,5,5,7),(0.,
    5.319997524974E-02,9.662227701222E-02,0.145048967446,0.199070104026,
    0.216351166501,0.249975804476,0.30076129101,0.355571253874,
    0.422121994433,0.467095471482,0.522492934323,0.553657111996,
    0.596994733014,0.645326987434,0.699242774161,0.716490135805,
    0.750049200369,0.800735647096,0.855438721783,0.921859677773,
    0.966745449362,1.),.UNSPECIFIED.);
#1086 = CARTESIAN_POINT('',(0.,11.6));
#1087 = CARTESIAN_POINT('',(7.020155247691E-02,11.6));
#1088 = CARTESIAN_POINT('',(0.139758536343,11.615770878697));
#1089 = CARTESIAN_POINT('',(0.208259574707,11.646766614311));
#1090 = CARTESIAN_POINT('',(0.275267336854,11.691224365075));
#1091 = CARTESIAN_POINT('',(0.340237010599,11.746226354539));
#1092 = CARTESIAN_POINT('',(0.453123323346,11.858597026228));
#1093 = CARTESIAN_POINT('',(0.50240481988,11.914096804385));
#1094 = CARTESIAN_POINT('',(0.550378051843,11.973362701347));
#1095 = CARTESIAN_POINT('',(0.597172759736,12.035324874891));
#1096 = CARTESIAN_POINT('',(0.642914784247,12.09905768603));
#1097 = CARTESIAN_POINT('',(0.737718738231,12.235918693009));
#1098 = CARTESIAN_POINT('',(0.786602137947,12.30934984096));
#1099 = CARTESIAN_POINT('',(0.834571481127,12.382959979742));
#1100 = CARTESIAN_POINT('',(0.881807490579,12.455815214058));
#1101 = CARTESIAN_POINT('',(0.928489397358,12.527062139906));
#1102 = CARTESIAN_POINT('',(1.026460466609,12.672582417786));
#1103 = CARTESIAN_POINT('',(1.077692004275,12.746303830322));
#1104 = CARTESIAN_POINT('',(1.128635399078,12.815658135956));
#1105 = CARTESIAN_POINT('',(1.17942862312,12.8793062372));
#1106 = CARTESIAN_POINT('',(1.230220094516,12.935925955293));
#1107 = CARTESIAN_POINT('',(1.297481588944,12.999738639684));
#1108 = CARTESIAN_POINT('',(1.31379382393,13.014351617092));
#1109 = CARTESIAN_POINT('',(1.330116771702,13.028066998026));
#1110 = CARTESIAN_POINT('',(1.346451152004,13.040843607314));
#1111 = CARTESIAN_POINT('',(1.362798184052,13.052643792265));
#1112 = CARTESIAN_POINT('',(1.410994795486,13.084427352678));
#1113 = CARTESIAN_POINT('',(1.442894518421,13.101602626354));
#1114 = CARTESIAN_POINT('',(1.474837139897,13.114680446938));
#1115 = CARTESIAN_POINT('',(1.506807636442,13.123468030789));
#1116 = CARTESIAN_POINT('',(1.5387961109,13.127864045));
#1117 = CARTESIAN_POINT('',(1.619128342581,13.127864045));
#1118 = CARTESIAN_POINT('',(1.667384469118,13.117835202606));
#1119 = CARTESIAN_POINT('',(1.715576786673,13.097835731456));
#1120 = CARTESIAN_POINT('',(1.763704282201,13.068360574543));
#1121 = CARTESIAN_POINT('',(1.811739227068,13.030342931297));
#1122 = CARTESIAN_POINT('',(1.911230338438,12.936175197802));
#1123 = CARTESIAN_POINT('',(1.962696411351,12.878788792596));
#1124 = CARTESIAN_POINT('',(2.014164665911,12.814188649514));
#1125 = CARTESIAN_POINT('',(2.065789969628,12.743750420437));
#1126 = CARTESIAN_POINT('',(2.117716315181,12.668866341032));
#1127 = CARTESIAN_POINT('',(2.233685259999,12.496333623396));
#1128 = CARTESIAN_POINT('',(2.297952315537,12.397227250602));
#1129 = CARTESIAN_POINT('',(2.363404940147,12.295777579324));
#1130 = CARTESIAN_POINT('',(2.430531451562,12.194132575785));
#1131 = CARTESIAN_POINT('',(2.499805112631,12.094915079613));
#1132 = CARTESIAN_POINT('',(2.620349368477,11.938421110048));
#1133 = CARTESIAN_POINT('',(2.670315115309,11.877794052661));
#1134 = CARTESIAN_POINT('',(2.721660552648,11.820918055737));
#1135 = CARTESIAN_POINT('',(2.774429156129,11.769161905454));
#1136 = CARTESIAN_POINT('',(2.82868797556,11.723965269098));
#1137 = CARTESIAN_POINT('',(2.9533209165,11.641044728639));
#1138 = CARTESIAN_POINT('',(3.02477690371,11.607306266098));
#1139 = CARTESIAN_POINT('',(3.09760502507,11.589547335634));
#1140 = CARTESIAN_POINT('',(3.170814433919,11.589726068406));
#1141 = CARTESIAN_POINT('',(3.243456771098,11.607297984541));
#1142 = CARTESIAN_POINT('',(3.354278681161,11.657682824661));
#1143 = CARTESIAN_POINT('',(3.393575278274,11.680439760134));
#1144 = CARTESIAN_POINT('',(3.43223975798,11.707382839459));
#1145 = CARTESIAN_POINT('',(3.470232955417,11.73801429624));
#1146 = CARTESIAN_POINT('',(3.507503513947,11.771782931524));
#1147 = CARTESIAN_POINT('',(3.594715976967,11.858597026259));
#1148 = CARTESIAN_POINT('',(3.643997473466,11.914096804387));
#1149 = CARTESIAN_POINT('',(3.691970705403,11.973362701311));
#1150 = CARTESIAN_POINT('',(3.738765413315,12.03532487487));
#1151 = CARTESIAN_POINT('',(3.784507437866,12.099057686071));
#1152 = CARTESIAN_POINT('',(3.879311396055,12.235918699122));
#1153 = CARTESIAN_POINT('',(3.928194785188,12.309349831624));
#1154 = CARTESIAN_POINT('',(3.976164134425,12.382959979389));
#1155 = CARTESIAN_POINT('',(4.023400150372,12.455815223213));
#1156 = CARTESIAN_POINT('',(4.07008204732,12.527062134517));
#1157 = CARTESIAN_POINT('',(4.168053120211,12.672582417804));
#1158 = CARTESIAN_POINT('',(4.21928465786,12.746303830314));
#1159 = CARTESIAN_POINT('',(4.270228052656,12.815658135939));
#1160 = CARTESIAN_POINT('',(4.321021276707,12.879306237201));
#1161 = CARTESIAN_POINT('',(4.371812748118,12.935925955304));
#1162 = CARTESIAN_POINT('',(4.439074242534,12.999738639684));
#1163 = CARTESIAN_POINT('',(4.45538647752,13.014351617092));
#1164 = CARTESIAN_POINT('',(4.471709425291,13.028066998026));
#1165 = CARTESIAN_POINT('',(4.488043805594,13.040843607314));
#1166 = CARTESIAN_POINT('',(4.504390837642,13.052643792265));
#1167 = CARTESIAN_POINT('',(4.552587449076,13.084427352678));
#1168 = CARTESIAN_POINT('',(4.584487172011,13.101602626354));
#1169 = CARTESIAN_POINT('',(4.616429793487,13.114680446938));
#1170 = CARTESIAN_POINT('',(4.648400290032,13.123468030789));
#1171 = CARTESIAN_POINT('',(4.680388764489,13.127864045));
#1172 = CARTESIAN_POINT('',(4.760720996171,13.127864045));
#1173 = CARTESIAN_POINT('',(4.808977122708,13.117835202606));
#1174 = CARTESIAN_POINT('',(4.857169440263,13.097835731456));
#1175 = CARTESIAN_POINT('',(4.90529693579,13.068360574543));
#1176 = CARTESIAN_POINT('',(4.953331880657,13.030342931297));
#1177 = CARTESIAN_POINT('',(5.052822992027,12.936175197802));
#1178 = CARTESIAN_POINT('',(5.104289064941,12.878788792595));
#1179 = CARTESIAN_POINT('',(5.1557573195,12.814188649514));
#1180 = CARTESIAN_POINT('',(5.207382623218,12.743750420437));
#1181 = CARTESIAN_POINT('',(5.259308968771,12.668866341032));
#1182 = CARTESIAN_POINT('',(5.375277913589,12.496333623396));
#1183 = CARTESIAN_POINT('',(5.439544969126,12.397227250602));
#1184 = CARTESIAN_POINT('',(5.504997593737,12.295777579324));
#1185 = CARTESIAN_POINT('',(5.572124105152,12.194132575785));
#1186 = CARTESIAN_POINT('',(5.641397766221,12.094915079613));
#1187 = CARTESIAN_POINT('',(5.761942022067,11.938421110048));
#1188 = CARTESIAN_POINT('',(5.811907768899,11.877794052661));
#1189 = CARTESIAN_POINT('',(5.863253206238,11.820918055737));
#1190 = CARTESIAN_POINT('',(5.916021809718,11.769161905454));
#1191 = CARTESIAN_POINT('',(5.970280629149,11.723965269098));
#1192 = CARTESIAN_POINT('',(6.0674988839,11.659284213146));
#1193 = CARTESIAN_POINT('',(6.109741126641,11.636173015993));
#1194 = CARTESIAN_POINT('',(6.152621556706,11.618258511887));
#1195 = CARTESIAN_POINT('',(6.195942978993,11.606100106203));
#1196 = CARTESIAN_POINT('',(6.239524379953,11.6));
#1197 = CARTESIAN_POINT('',(6.28318530718,11.6));
#1198 = ( GEOMETRIC_REPRESENTATION_CONTEXT(2) 
PARAMETRIC_REPRESENTATION_CONTEXT() REPRESENTATION_CONTEXT('2D SPACE',''
  ) );
#1199 = ADVANCED_FACE('',(#1200,#1206),#233,.T.);
#1200 = FACE_BOUND('',#1201,.T.);
#1201 = EDGE_LOOP('',(#1202,#1203,#1204,#1205));
#1202 = ORIENTED_EDGE('',*,*,#219,.F.);
#1203 = ORIENTED_EDGE('',*,*,#299,.T.);
#1204 = ORIENTED_EDGE('',*,*,#380,.T.);
#1205 = ORIENTED_EDGE('',*,*,#250,.F.);
#1206 = FACE_BOUND('',#1207,.T.);
#1207 = EDGE_LOOP('',(#1208));
#1208 = ORIENTED_EDGE('',*,*,#429,.F.);
#1209 = ADVANCED_FACE('',(#1210),#362,.F.);
#1210 = FACE_BOUND('',#1211,.F.);
#1211 = EDGE_LOOP('',(#1212,#1213,#1234,#1235));
#1212 = ORIENTED_EDGE('',*,*,#850,.F.);
#1213 = ORIENTED_EDGE('',*,*,#1214,.F.);
#1214 = EDGE_CURVE('',#346,#851,#1215,.T.);
#1215 = SEAM_CURVE('',#1216,(#1220,#1227),.PCURVE_S1.);
#1216 = LINE('',#1217,#1218);
#1217 = CARTESIAN_POINT('',(249.,-9.797174393179E-16,74.9));
#1218 = VECTOR('',#1219,1.);
#1219 = DIRECTION('',(0.,0.,1.));
#1220 = PCURVE('',#362,#1221);
#1221 = DEFINITIONAL_REPRESENTATION('',(#1222),#1226);
#1222 = LINE('',#1223,#1224);
#1223 = CARTESIAN_POINT('',(6.28318530718,-0.));
#1224 = VECTOR('',#1225,1.);
#1225 = DIRECTION('',(0.,1.));
#1226 = ( GEOMETRIC_REPRESENTATION_CONTEXT(2) 
PARAMETRIC_REPRESENTATION_CONTEXT() REPRESENTATION_CONTEXT('2D SPACE',''
  ) );
#1227 = PCURVE('',#362,#1228);
#1228 = DEFINITIONAL_REPRESENTATION('',(#1229),#1233);
#1229 = LINE('',#1230,#1231);
#1230 = CARTESIAN_POINT('',(0.,-0.));
#1231 = VECTOR('',#1232,1.);
#1232 = DIRECTION('',(0.,1.));
#1233 = ( GEOMETRIC_REPRESENTATION_CONTEXT(2) 
PARAMETRIC_REPRESENTATION_CONTEXT() REPRESENTATION_CONTEXT('2D SPACE',''
  ) );
#1234 = ORIENTED_EDGE('',*,*,#345,.T.);
#1235 = ORIENTED_EDGE('',*,*,#1214,.T.);
#1236 = ADVANCED_FACE('',(#1237),#576,.F.);
#1237 = FACE_BOUND('',#1238,.F.);
#1238 = EDGE_LOOP('',(#1239,#1262,#1289,#1290,#1291));
#1239 = ORIENTED_EDGE('',*,*,#1240,.T.);
#1240 = EDGE_CURVE('',#405,#1241,#1243,.T.);
#1241 = VERTEX_POINT('',#1242);
#1242 = CARTESIAN_POINT('',(249.,-9.797174393179E-16,98.9));
#1243 = SEAM_CURVE('',#1244,(#1248,#1255),.PCURVE_S1.);
#1244 = LINE('',#1245,#1246);
#1245 = CARTESIAN_POINT('',(249.,-9.797174393179E-16,74.9));
#1246 = VECTOR('',#1247,1.);
#1247 = DIRECTION('',(0.,0.,1.));
#1248 = PCURVE('',#576,#1249);
#1249 = DEFINITIONAL_REPRESENTATION('',(#1250),#1254);
#1250 = LINE('',#1251,#1252);
#1251 = CARTESIAN_POINT('',(6.28318530718,-0.));
#1252 = VECTOR('',#1253,1.);
#1253 = DIRECTION('',(0.,1.));
#1254 = ( GEOMETRIC_REPRESENTATION_CONTEXT(2) 
PARAMETRIC_REPRESENTATION_CONTEXT() REPRESENTATION_CONTEXT('2D SPACE',''
  ) );
#1255 = PCURVE('',#576,#1256);
#1256 = DEFINITIONAL_REPRESENTATION('',(#1257),#1261);
#1257 = LINE('',#1258,#1259);
#1258 = CARTESIAN_POINT('',(0.,-0.));
#1259 = VECTOR('',#1260,1.);
#1260 = DIRECTION('',(0.,1.));
#1261 = ( GEOMETRIC_REPRESENTATION_CONTEXT(2) 
PARAMETRIC_REPRESENTATION_CONTEXT() REPRESENTATION_CONTEXT('2D SPACE',''
  ) );
#1262 = ORIENTED_EDGE('',*,*,#1263,.F.);
#1263 = EDGE_CURVE('',#1241,#1241,#1264,.T.);
#1264 = SURFACE_CURVE('',#1265,(#1270,#1277),.PCURVE_S1.);
#1265 = CIRCLE('',#1266,4.);
#1266 = AXIS2_PLACEMENT_3D('',#1267,#1268,#1269);
#1267 = CARTESIAN_POINT('',(245.,0.,98.9));
#1268 = DIRECTION('',(0.,0.,1.));
#1269 = DIRECTION('',(1.,0.,-0.));
#1270 = PCURVE('',#576,#1271);
#1271 = DEFINITIONAL_REPRESENTATION('',(#1272),#1276);
#1272 = LINE('',#1273,#1274);
#1273 = CARTESIAN_POINT('',(0.,24.));
#1274 = VECTOR('',#1275,1.);
#1275 = DIRECTION('',(1.,0.));
#1276 = ( GEOMETRIC_REPRESENTATION_CONTEXT(2) 
PARAMETRIC_REPRESENTATION_CONTEXT() REPRESENTATION_CONTEXT('2D SPACE',''
  ) );
#1277 = PCURVE('',#1278,#1283);
#1278 = PLANE('',#1279);
#1279 = AXIS2_PLACEMENT_3D('',#1280,#1281,#1282);
#1280 = CARTESIAN_POINT('',(245.,0.,98.9));
#1281 = DIRECTION('',(0.,0.,1.));
#1282 = DIRECTION('',(1.,0.,-0.));
#1283 = DEFINITIONAL_REPRESENTATION('',(#1284),#1288);
#1284 = CIRCLE('',#1285,4.);
#1285 = AXIS2_PLACEMENT_2D('',#1286,#1287);
#1286 = CARTESIAN_POINT('',(0.,0.));
#1287 = DIRECTION('',(1.,0.));
#1288 = ( GEOMETRIC_REPRESENTATION_CONTEXT(2) 
PARAMETRIC_REPRESENTATION_CONTEXT() REPRESENTATION_CONTEXT('2D SPACE',''
  ) );
#1289 = ORIENTED_EDGE('',*,*,#1240,.F.);
#1290 = ORIENTED_EDGE('',*,*,#665,.T.);
#1291 = ORIENTED_EDGE('',*,*,#452,.T.);
#1292 = ADVANCED_FACE('',(#1293),#1278,.F.);
#1293 = FACE_BOUND('',#1294,.F.);
#1294 = EDGE_LOOP('',(#1295));
#1295 = ORIENTED_EDGE('',*,*,#1263,.T.);
#1296 = ( GEOMETRIC_REPRESENTATION_CONTEXT(3) 
GLOBAL_UNCERTAINTY_ASSIGNED_CONTEXT((#1300)) 
GLOBAL_UNIT_ASSIGNED_CONTEXT((#1297,#1298,#1299)) REPRESENTATION_CONTEXT
('Context #1','3D Context with UNIT and UNCERTAINTY') );
#1297 = ( LENGTH_UNIT() NAMED_UNIT(*) SI_UNIT(.MILLI.,.METRE.) );
#1298 = ( NAMED_UNIT(*) PLANE_ANGLE_UNIT() SI_UNIT($,.RADIAN.) );
#1299 = ( NAMED_UNIT(*) SI_UNIT($,.STERADIAN.) SOLID_ANGLE_UNIT() );
#1300 = UNCERTAINTY_MEASURE_WITH_UNIT(LENGTH_MEASURE(1.E-07),#1297,
  'distance_accuracy_value','confusion accuracy');
#1301 = PRODUCT_RELATED_PRODUCT_CATEGORY('part',$,(#7));
ENDSEC;
END-ISO-10303-21;
