ISO-10303-21;
HEADER;
FILE_DESCRIPTION(('Open CASCADE Model'),'2;1');
FILE_NAME('Open CASCADE Shape Model','2026-09-14T14:59:56',('Author'),(
    'Open CASCADE'),'Open CASCADE STEP processor 7.8','Open CASCADE 7.8'
  ,'Unknown');
FILE_SCHEMA(('AUTOMOTIVE_DESIGN { 1 0 10303 214 1 1 1 1 }'));
ENDSEC;
DATA;
#1 = APPLICATION_PROTOCOL_DEFINITION('international standard',
  'automotive_design',2000,#2);
#2 = APPLICATION_CONTEXT(
  'core data for automotive mechanical design processes');
#3 = SHAPE_DEFINITION_REPRESENTATION(#4,#10);
#4 = PRODUCT_DEFINITION_SHAPE('','',#5);
#5 = PRODUCT_DEFINITION('design','',#6,#9);
#6 = PRODUCT_DEFINITION_FORMATION('','',#7);
#7 = PRODUCT('Open CASCADE STEP translator 7.8 35',
  'Open CASCADE STEP translator 7.8 35','',(#8));
#8 = PRODUCT_CONTEXT('',#2,'mechanical');
#9 = PRODUCT_DEFINITION_CONTEXT('part definition',#2,'design');
#10 = ADVANCED_BREP_SHAPE_REPRESENTATION('',(#11,#15),#1652);
#11 = AXIS2_PLACEMENT_3D('',#12,#13,#14);
#12 = CARTESIAN_POINT('',(0.,0.,0.));
#13 = DIRECTION('',(0.,0.,1.));
#14 = DIRECTION('',(1.,0.,-0.));
#15 = MANIFOLD_SOLID_BREP('',#16);
#16 = CLOSED_SHELL('',(#17,#214,#492,#539,#634,#683,#829,#856,#960,#1330
    ,#1335,#1380,#1474,#1501,#1537,#1562,#1593,#1648));
#17 = ADVANCED_FACE('',(#18),#32,.F.);
#18 = FACE_BOUND('',#19,.F.);
#19 = EDGE_LOOP('',(#20,#55,#83,#111,#137,#166,#190));
#20 = ORIENTED_EDGE('',*,*,#21,.F.);
#21 = EDGE_CURVE('',#22,#24,#26,.T.);
#22 = VERTEX_POINT('',#23);
#23 = CARTESIAN_POINT('',(237.,-26.5,94.));
#24 = VERTEX_POINT('',#25);
#25 = CARTESIAN_POINT('',(237.,-11.,94.));
#26 = SURFACE_CURVE('',#27,(#31,#43),.PCURVE_S1.);
#27 = LINE('',#28,#29);
#28 = CARTESIAN_POINT('',(237.,-26.5,94.));
#29 = VECTOR('',#30,1.);
#30 = DIRECTION('',(0.,1.,0.));
#31 = PCURVE('',#32,#37);
#32 = PLANE('',#33);
#33 = AXIS2_PLACEMENT_3D('',#34,#35,#36);
#34 = CARTESIAN_POINT('',(237.,-26.5,82.));
#35 = DIRECTION('',(1.,0.,0.));
#36 = DIRECTION('',(0.,0.,1.));
#37 = DEFINITIONAL_REPRESENTATION('',(#38),#42);
#38 = LINE('',#39,#40);
#39 = CARTESIAN_POINT('',(12.,0.));
#40 = VECTOR('',#41,1.);
#41 = DIRECTION('',(0.,-1.));
#42 = ( GEOMETRIC_REPRESENTATION_CONTEXT(2) 
PARAMETRIC_REPRESENTATION_CONTEXT() REPRESENTATION_CONTEXT('2D SPACE',''
  ) );
#43 = PCURVE('',#44,#49);
#44 = PLANE('',#45);
#45 = AXIS2_PLACEMENT_3D('',#46,#47,#48);
#46 = CARTESIAN_POINT('',(237.,-26.5,94.));
#47 = DIRECTION('',(0.,0.,1.));
#48 = DIRECTION('',(1.,0.,0.));
#49 = DEFINITIONAL_REPRESENTATION('',(#50),#54);
#50 = LINE('',#51,#52);
#51 = CARTESIAN_POINT('',(0.,0.));
#52 = VECTOR('',#53,1.);
#53 = DIRECTION('',(0.,1.));
#54 = ( GEOMETRIC_REPRESENTATION_CONTEXT(2) 
PARAMETRIC_REPRESENTATION_CONTEXT() REPRESENTATION_CONTEXT('2D SPACE',''
  ) );
#55 = ORIENTED_EDGE('',*,*,#56,.F.);
#56 = EDGE_CURVE('',#57,#22,#59,.T.);
#57 = VERTEX_POINT('',#58);
#58 = CARTESIAN_POINT('',(237.,-26.5,82.));
#59 = SURFACE_CURVE('',#60,(#64,#71),.PCURVE_S1.);
#60 = LINE('',#61,#62);
#61 = CARTESIAN_POINT('',(237.,-26.5,82.));
#62 = VECTOR('',#63,1.);
#63 = DIRECTION('',(0.,0.,1.));
#64 = PCURVE('',#32,#65);
#65 = DEFINITIONAL_REPRESENTATION('',(#66),#70);
#66 = LINE('',#67,#68);
#67 = CARTESIAN_POINT('',(0.,0.));
#68 = VECTOR('',#69,1.);
#69 = DIRECTION('',(1.,0.));
#70 = ( GEOMETRIC_REPRESENTATION_CONTEXT(2) 
PARAMETRIC_REPRESENTATION_CONTEXT() REPRESENTATION_CONTEXT('2D SPACE',''
  ) );
#71 = PCURVE('',#72,#77);
#72 = PLANE('',#73);
#73 = AXIS2_PLACEMENT_3D('',#74,#75,#76);
#74 = CARTESIAN_POINT('',(237.,-26.5,82.));
#75 = DIRECTION('',(0.,1.,0.));
#76 = DIRECTION('',(0.,0.,1.));
#77 = DEFINITIONAL_REPRESENTATION('',(#78),#82);
#78 = LINE('',#79,#80);
#79 = CARTESIAN_POINT('',(0.,0.));
#80 = VECTOR('',#81,1.);
#81 = DIRECTION('',(1.,0.));
#82 = ( GEOMETRIC_REPRESENTATION_CONTEXT(2) 
PARAMETRIC_REPRESENTATION_CONTEXT() REPRESENTATION_CONTEXT('2D SPACE',''
  ) );
#83 = ORIENTED_EDGE('',*,*,#84,.T.);
#84 = EDGE_CURVE('',#57,#85,#87,.T.);
#85 = VERTEX_POINT('',#86);
#86 = CARTESIAN_POINT('',(237.,-11.,82.));
#87 = SURFACE_CURVE('',#88,(#92,#99),.PCURVE_S1.);
#88 = LINE('',#89,#90);
#89 = CARTESIAN_POINT('',(237.,-26.5,82.));
#90 = VECTOR('',#91,1.);
#91 = DIRECTION('',(0.,1.,0.));
#92 = PCURVE('',#32,#93);
#93 = DEFINITIONAL_REPRESENTATION('',(#94),#98);
#94 = LINE('',#95,#96);
#95 = CARTESIAN_POINT('',(0.,0.));
#96 = VECTOR('',#97,1.);
#97 = DIRECTION('',(0.,-1.));
#98 = ( GEOMETRIC_REPRESENTATION_CONTEXT(2) 
PARAMETRIC_REPRESENTATION_CONTEXT() REPRESENTATION_CONTEXT('2D SPACE',''
  ) );
#99 = PCURVE('',#100,#105);
#100 = PLANE('',#101);
#101 = AXIS2_PLACEMENT_3D('',#102,#103,#104);
#102 = CARTESIAN_POINT('',(237.,-26.5,82.));
#103 = DIRECTION('',(0.,0.,1.));
#104 = DIRECTION('',(1.,0.,0.));
#105 = DEFINITIONAL_REPRESENTATION('',(#106),#110);
#106 = LINE('',#107,#108);
#107 = CARTESIAN_POINT('',(0.,0.));
#108 = VECTOR('',#109,1.);
#109 = DIRECTION('',(0.,1.));
#110 = ( GEOMETRIC_REPRESENTATION_CONTEXT(2) 
PARAMETRIC_REPRESENTATION_CONTEXT() REPRESENTATION_CONTEXT('2D SPACE',''
  ) );
#111 = ORIENTED_EDGE('',*,*,#112,.T.);
#112 = EDGE_CURVE('',#85,#113,#115,.T.);
#113 = VERTEX_POINT('',#114);
#114 = CARTESIAN_POINT('',(237.,-11.,84.877501000801));
#115 = SURFACE_CURVE('',#116,(#120,#126),.PCURVE_S1.);
#116 = LINE('',#117,#118);
#117 = CARTESIAN_POINT('',(237.,-11.,82.));
#118 = VECTOR('',#119,1.);
#119 = DIRECTION('',(0.,0.,1.));
#120 = PCURVE('',#32,#121);
#121 = DEFINITIONAL_REPRESENTATION('',(#122),#125);
#122 = B_SPLINE_CURVE_WITH_KNOTS('',1,(#123,#124),.UNSPECIFIED.,.F.,.F.,
  (2,2),(0.,12.),.PIECEWISE_BEZIER_KNOTS.);
#123 = CARTESIAN_POINT('',(0.,-15.5));
#124 = CARTESIAN_POINT('',(12.,-15.5));
#125 = ( GEOMETRIC_REPRESENTATION_CONTEXT(2) 
PARAMETRIC_REPRESENTATION_CONTEXT() REPRESENTATION_CONTEXT('2D SPACE',''
  ) );
#126 = PCURVE('',#127,#132);
#127 = PLANE('',#128);
#128 = AXIS2_PLACEMENT_3D('',#129,#130,#131);
#129 = CARTESIAN_POINT('',(207.5,-11.,82.));
#130 = DIRECTION('',(0.,1.,0.));
#131 = DIRECTION('',(0.,0.,1.));
#132 = DEFINITIONAL_REPRESENTATION('',(#133),#136);
#133 = B_SPLINE_CURVE_WITH_KNOTS('',1,(#134,#135),.UNSPECIFIED.,.F.,.F.,
  (2,2),(0.,12.),.PIECEWISE_BEZIER_KNOTS.);
#134 = CARTESIAN_POINT('',(0.,29.5));
#135 = CARTESIAN_POINT('',(12.,29.5));
#136 = ( GEOMETRIC_REPRESENTATION_CONTEXT(2) 
PARAMETRIC_REPRESENTATION_CONTEXT() REPRESENTATION_CONTEXT('2D SPACE',''
  ) );
#137 = ORIENTED_EDGE('',*,*,#138,.F.);
#138 = EDGE_CURVE('',#139,#113,#141,.T.);
#139 = VERTEX_POINT('',#140);
#140 = CARTESIAN_POINT('',(237.,-13.5,92.));
#141 = SURFACE_CURVE('',#142,(#147,#154),.PCURVE_S1.);
#142 = CIRCLE('',#143,4.);
#143 = AXIS2_PLACEMENT_3D('',#144,#145,#146);
#144 = CARTESIAN_POINT('',(237.,-13.5,88.));
#145 = DIRECTION('',(1.,0.,0.));
#146 = DIRECTION('',(-0.,0.,1.));
#147 = PCURVE('',#32,#148);
#148 = DEFINITIONAL_REPRESENTATION('',(#149),#153);
#149 = CIRCLE('',#150,4.);
#150 = AXIS2_PLACEMENT_2D('',#151,#152);
#151 = CARTESIAN_POINT('',(6.,-13.));
#152 = DIRECTION('',(1.,0.));
#153 = ( GEOMETRIC_REPRESENTATION_CONTEXT(2) 
PARAMETRIC_REPRESENTATION_CONTEXT() REPRESENTATION_CONTEXT('2D SPACE',''
  ) );
#154 = PCURVE('',#155,#160);
#155 = CYLINDRICAL_SURFACE('',#156,4.);
#156 = AXIS2_PLACEMENT_3D('',#157,#158,#159);
#157 = CARTESIAN_POINT('',(236.9,-13.5,88.));
#158 = DIRECTION('',(1.,0.,0.));
#159 = DIRECTION('',(-0.,0.,1.));
#160 = DEFINITIONAL_REPRESENTATION('',(#161),#165);
#161 = LINE('',#162,#163);
#162 = CARTESIAN_POINT('',(0.,9.999999999999E-02));
#163 = VECTOR('',#164,1.);
#164 = DIRECTION('',(1.,0.));
#165 = ( GEOMETRIC_REPRESENTATION_CONTEXT(2) 
PARAMETRIC_REPRESENTATION_CONTEXT() REPRESENTATION_CONTEXT('2D SPACE',''
  ) );
#166 = ORIENTED_EDGE('',*,*,#167,.F.);
#167 = EDGE_CURVE('',#168,#139,#170,.T.);
#168 = VERTEX_POINT('',#169);
#169 = CARTESIAN_POINT('',(237.,-11.,91.122498999199));
#170 = SURFACE_CURVE('',#171,(#176,#183),.PCURVE_S1.);
#171 = CIRCLE('',#172,4.);
#172 = AXIS2_PLACEMENT_3D('',#173,#174,#175);
#173 = CARTESIAN_POINT('',(237.,-13.5,88.));
#174 = DIRECTION('',(1.,0.,0.));
#175 = DIRECTION('',(-0.,0.,1.));
#176 = PCURVE('',#32,#177);
#177 = DEFINITIONAL_REPRESENTATION('',(#178),#182);
#178 = CIRCLE('',#179,4.);
#179 = AXIS2_PLACEMENT_2D('',#180,#181);
#180 = CARTESIAN_POINT('',(6.,-13.));
#181 = DIRECTION('',(1.,0.));
#182 = ( GEOMETRIC_REPRESENTATION_CONTEXT(2) 
PARAMETRIC_REPRESENTATION_CONTEXT() REPRESENTATION_CONTEXT('2D SPACE',''
  ) );
#183 = PCURVE('',#155,#184);
#184 = DEFINITIONAL_REPRESENTATION('',(#185),#189);
#185 = LINE('',#186,#187);
#186 = CARTESIAN_POINT('',(0.,9.999999999999E-02));
#187 = VECTOR('',#188,1.);
#188 = DIRECTION('',(1.,0.));
#189 = ( GEOMETRIC_REPRESENTATION_CONTEXT(2) 
PARAMETRIC_REPRESENTATION_CONTEXT() REPRESENTATION_CONTEXT('2D SPACE',''
  ) );
#190 = ORIENTED_EDGE('',*,*,#191,.T.);
#191 = EDGE_CURVE('',#168,#24,#192,.T.);
#192 = SURFACE_CURVE('',#193,(#197,#203),.PCURVE_S1.);
#193 = LINE('',#194,#195);
#194 = CARTESIAN_POINT('',(237.,-11.,82.));
#195 = VECTOR('',#196,1.);
#196 = DIRECTION('',(0.,0.,1.));
#197 = PCURVE('',#32,#198);
#198 = DEFINITIONAL_REPRESENTATION('',(#199),#202);
#199 = B_SPLINE_CURVE_WITH_KNOTS('',1,(#200,#201),.UNSPECIFIED.,.F.,.F.,
  (2,2),(0.,12.),.PIECEWISE_BEZIER_KNOTS.);
#200 = CARTESIAN_POINT('',(0.,-15.5));
#201 = CARTESIAN_POINT('',(12.,-15.5));
#202 = ( GEOMETRIC_REPRESENTATION_CONTEXT(2) 
PARAMETRIC_REPRESENTATION_CONTEXT() REPRESENTATION_CONTEXT('2D SPACE',''
  ) );
#203 = PCURVE('',#204,#209);
#204 = PLANE('',#205);
#205 = AXIS2_PLACEMENT_3D('',#206,#207,#208);
#206 = CARTESIAN_POINT('',(207.5,-11.,82.));
#207 = DIRECTION('',(0.,1.,0.));
#208 = DIRECTION('',(0.,0.,1.));
#209 = DEFINITIONAL_REPRESENTATION('',(#210),#213);
#210 = B_SPLINE_CURVE_WITH_KNOTS('',1,(#211,#212),.UNSPECIFIED.,.F.,.F.,
  (2,2),(0.,12.),.PIECEWISE_BEZIER_KNOTS.);
#211 = CARTESIAN_POINT('',(0.,29.5));
#212 = CARTESIAN_POINT('',(12.,29.5));
#213 = ( GEOMETRIC_REPRESENTATION_CONTEXT(2) 
PARAMETRIC_REPRESENTATION_CONTEXT() REPRESENTATION_CONTEXT('2D SPACE',''
  ) );
#214 = ADVANCED_FACE('',(#215),#44,.T.);
#215 = FACE_BOUND('',#216,.T.);
#216 = EDGE_LOOP('',(#217,#218,#241,#269,#297,#325,#351,#377,#403,#431,
    #452,#473));
#217 = ORIENTED_EDGE('',*,*,#21,.F.);
#218 = ORIENTED_EDGE('',*,*,#219,.T.);
#219 = EDGE_CURVE('',#22,#220,#222,.T.);
#220 = VERTEX_POINT('',#221);
#221 = CARTESIAN_POINT('',(283.,-26.5,94.));
#222 = SURFACE_CURVE('',#223,(#227,#234),.PCURVE_S1.);
#223 = LINE('',#224,#225);
#224 = CARTESIAN_POINT('',(237.,-26.5,94.));
#225 = VECTOR('',#226,1.);
#226 = DIRECTION('',(1.,0.,0.));
#227 = PCURVE('',#44,#228);
#228 = DEFINITIONAL_REPRESENTATION('',(#229),#233);
#229 = LINE('',#230,#231);
#230 = CARTESIAN_POINT('',(0.,0.));
#231 = VECTOR('',#232,1.);
#232 = DIRECTION('',(1.,0.));
#233 = ( GEOMETRIC_REPRESENTATION_CONTEXT(2) 
PARAMETRIC_REPRESENTATION_CONTEXT() REPRESENTATION_CONTEXT('2D SPACE',''
  ) );
#234 = PCURVE('',#72,#235);
#235 = DEFINITIONAL_REPRESENTATION('',(#236),#240);
#236 = LINE('',#237,#238);
#237 = CARTESIAN_POINT('',(12.,0.));
#238 = VECTOR('',#239,1.);
#239 = DIRECTION('',(0.,1.));
#240 = ( GEOMETRIC_REPRESENTATION_CONTEXT(2) 
PARAMETRIC_REPRESENTATION_CONTEXT() REPRESENTATION_CONTEXT('2D SPACE',''
  ) );
#241 = ORIENTED_EDGE('',*,*,#242,.T.);
#242 = EDGE_CURVE('',#220,#243,#245,.T.);
#243 = VERTEX_POINT('',#244);
#244 = CARTESIAN_POINT('',(283.,26.5,94.));
#245 = SURFACE_CURVE('',#246,(#250,#257),.PCURVE_S1.);
#246 = LINE('',#247,#248);
#247 = CARTESIAN_POINT('',(283.,-26.5,94.));
#248 = VECTOR('',#249,1.);
#249 = DIRECTION('',(0.,1.,0.));
#250 = PCURVE('',#44,#251);
#251 = DEFINITIONAL_REPRESENTATION('',(#252),#256);
#252 = LINE('',#253,#254);
#253 = CARTESIAN_POINT('',(46.,0.));
#254 = VECTOR('',#255,1.);
#255 = DIRECTION('',(0.,1.));
#256 = ( GEOMETRIC_REPRESENTATION_CONTEXT(2) 
PARAMETRIC_REPRESENTATION_CONTEXT() REPRESENTATION_CONTEXT('2D SPACE',''
  ) );
#257 = PCURVE('',#258,#263);
#258 = PLANE('',#259);
#259 = AXIS2_PLACEMENT_3D('',#260,#261,#262);
#260 = CARTESIAN_POINT('',(283.,-26.5,82.));
#261 = DIRECTION('',(1.,0.,0.));
#262 = DIRECTION('',(0.,0.,1.));
#263 = DEFINITIONAL_REPRESENTATION('',(#264),#268);
#264 = LINE('',#265,#266);
#265 = CARTESIAN_POINT('',(12.,0.));
#266 = VECTOR('',#267,1.);
#267 = DIRECTION('',(0.,-1.));
#268 = ( GEOMETRIC_REPRESENTATION_CONTEXT(2) 
PARAMETRIC_REPRESENTATION_CONTEXT() REPRESENTATION_CONTEXT('2D SPACE',''
  ) );
#269 = ORIENTED_EDGE('',*,*,#270,.F.);
#270 = EDGE_CURVE('',#271,#243,#273,.T.);
#271 = VERTEX_POINT('',#272);
#272 = CARTESIAN_POINT('',(237.,26.5,94.));
#273 = SURFACE_CURVE('',#274,(#278,#285),.PCURVE_S1.);
#274 = LINE('',#275,#276);
#275 = CARTESIAN_POINT('',(237.,26.5,94.));
#276 = VECTOR('',#277,1.);
#277 = DIRECTION('',(1.,0.,0.));
#278 = PCURVE('',#44,#279);
#279 = DEFINITIONAL_REPRESENTATION('',(#280),#284);
#280 = LINE('',#281,#282);
#281 = CARTESIAN_POINT('',(0.,53.));
#282 = VECTOR('',#283,1.);
#283 = DIRECTION('',(1.,0.));
#284 = ( GEOMETRIC_REPRESENTATION_CONTEXT(2) 
PARAMETRIC_REPRESENTATION_CONTEXT() REPRESENTATION_CONTEXT('2D SPACE',''
  ) );
#285 = PCURVE('',#286,#291);
#286 = PLANE('',#287);
#287 = AXIS2_PLACEMENT_3D('',#288,#289,#290);
#288 = CARTESIAN_POINT('',(237.,26.5,82.));
#289 = DIRECTION('',(0.,1.,0.));
#290 = DIRECTION('',(0.,0.,1.));
#291 = DEFINITIONAL_REPRESENTATION('',(#292),#296);
#292 = LINE('',#293,#294);
#293 = CARTESIAN_POINT('',(12.,0.));
#294 = VECTOR('',#295,1.);
#295 = DIRECTION('',(0.,1.));
#296 = ( GEOMETRIC_REPRESENTATION_CONTEXT(2) 
PARAMETRIC_REPRESENTATION_CONTEXT() REPRESENTATION_CONTEXT('2D SPACE',''
  ) );
#297 = ORIENTED_EDGE('',*,*,#298,.F.);
#298 = EDGE_CURVE('',#299,#271,#301,.T.);
#299 = VERTEX_POINT('',#300);
#300 = CARTESIAN_POINT('',(237.,11.,94.));
#301 = SURFACE_CURVE('',#302,(#306,#313),.PCURVE_S1.);
#302 = LINE('',#303,#304);
#303 = CARTESIAN_POINT('',(237.,-26.5,94.));
#304 = VECTOR('',#305,1.);
#305 = DIRECTION('',(0.,1.,0.));
#306 = PCURVE('',#44,#307);
#307 = DEFINITIONAL_REPRESENTATION('',(#308),#312);
#308 = LINE('',#309,#310);
#309 = CARTESIAN_POINT('',(0.,0.));
#310 = VECTOR('',#311,1.);
#311 = DIRECTION('',(0.,1.));
#312 = ( GEOMETRIC_REPRESENTATION_CONTEXT(2) 
PARAMETRIC_REPRESENTATION_CONTEXT() REPRESENTATION_CONTEXT('2D SPACE',''
  ) );
#313 = PCURVE('',#314,#319);
#314 = PLANE('',#315);
#315 = AXIS2_PLACEMENT_3D('',#316,#317,#318);
#316 = CARTESIAN_POINT('',(237.,-26.5,82.));
#317 = DIRECTION('',(1.,0.,0.));
#318 = DIRECTION('',(0.,0.,1.));
#319 = DEFINITIONAL_REPRESENTATION('',(#320),#324);
#320 = LINE('',#321,#322);
#321 = CARTESIAN_POINT('',(12.,0.));
#322 = VECTOR('',#323,1.);
#323 = DIRECTION('',(0.,-1.));
#324 = ( GEOMETRIC_REPRESENTATION_CONTEXT(2) 
PARAMETRIC_REPRESENTATION_CONTEXT() REPRESENTATION_CONTEXT('2D SPACE',''
  ) );
#325 = ORIENTED_EDGE('',*,*,#326,.F.);
#326 = EDGE_CURVE('',#327,#299,#329,.T.);
#327 = VERTEX_POINT('',#328);
#328 = CARTESIAN_POINT('',(250.5,11.,94.));
#329 = SURFACE_CURVE('',#330,(#334,#340),.PCURVE_S1.);
#330 = LINE('',#331,#332);
#331 = CARTESIAN_POINT('',(222.25,11.,94.));
#332 = VECTOR('',#333,1.);
#333 = DIRECTION('',(-1.,0.,0.));
#334 = PCURVE('',#44,#335);
#335 = DEFINITIONAL_REPRESENTATION('',(#336),#339);
#336 = B_SPLINE_CURVE_WITH_KNOTS('',1,(#337,#338),.UNSPECIFIED.,.F.,.F.,
  (2,2),(-28.25,-14.75),.PIECEWISE_BEZIER_KNOTS.);
#337 = CARTESIAN_POINT('',(13.5,37.5));
#338 = CARTESIAN_POINT('',(0.,37.5));
#339 = ( GEOMETRIC_REPRESENTATION_CONTEXT(2) 
PARAMETRIC_REPRESENTATION_CONTEXT() REPRESENTATION_CONTEXT('2D SPACE',''
  ) );
#340 = PCURVE('',#341,#346);
#341 = PLANE('',#342);
#342 = AXIS2_PLACEMENT_3D('',#343,#344,#345);
#343 = CARTESIAN_POINT('',(207.5,11.,82.));
#344 = DIRECTION('',(0.,1.,0.));
#345 = DIRECTION('',(0.,0.,1.));
#346 = DEFINITIONAL_REPRESENTATION('',(#347),#350);
#347 = B_SPLINE_CURVE_WITH_KNOTS('',1,(#348,#349),.UNSPECIFIED.,.F.,.F.,
  (2,2),(-28.25,-14.75),.PIECEWISE_BEZIER_KNOTS.);
#348 = CARTESIAN_POINT('',(12.,43.));
#349 = CARTESIAN_POINT('',(12.,29.5));
#350 = ( GEOMETRIC_REPRESENTATION_CONTEXT(2) 
PARAMETRIC_REPRESENTATION_CONTEXT() REPRESENTATION_CONTEXT('2D SPACE',''
  ) );
#351 = ORIENTED_EDGE('',*,*,#352,.F.);
#352 = EDGE_CURVE('',#353,#327,#355,.T.);
#353 = VERTEX_POINT('',#354);
#354 = CARTESIAN_POINT('',(250.5,2.397915761656,94.));
#355 = SURFACE_CURVE('',#356,(#360,#366),.PCURVE_S1.);
#356 = LINE('',#357,#358);
#357 = CARTESIAN_POINT('',(250.5,-18.75,94.));
#358 = VECTOR('',#359,1.);
#359 = DIRECTION('',(0.,1.,0.));
#360 = PCURVE('',#44,#361);
#361 = DEFINITIONAL_REPRESENTATION('',(#362),#365);
#362 = B_SPLINE_CURVE_WITH_KNOTS('',1,(#363,#364),.UNSPECIFIED.,.F.,.F.,
  (2,2),(7.75,29.75),.PIECEWISE_BEZIER_KNOTS.);
#363 = CARTESIAN_POINT('',(13.5,15.5));
#364 = CARTESIAN_POINT('',(13.5,37.5));
#365 = ( GEOMETRIC_REPRESENTATION_CONTEXT(2) 
PARAMETRIC_REPRESENTATION_CONTEXT() REPRESENTATION_CONTEXT('2D SPACE',''
  ) );
#366 = PCURVE('',#367,#372);
#367 = PLANE('',#368);
#368 = AXIS2_PLACEMENT_3D('',#369,#370,#371);
#369 = CARTESIAN_POINT('',(250.5,-11.,82.));
#370 = DIRECTION('',(1.,0.,0.));
#371 = DIRECTION('',(0.,0.,1.));
#372 = DEFINITIONAL_REPRESENTATION('',(#373),#376);
#373 = B_SPLINE_CURVE_WITH_KNOTS('',1,(#374,#375),.UNSPECIFIED.,.F.,.F.,
  (2,2),(7.75,29.75),.PIECEWISE_BEZIER_KNOTS.);
#374 = CARTESIAN_POINT('',(12.,0.));
#375 = CARTESIAN_POINT('',(12.,-22.));
#376 = ( GEOMETRIC_REPRESENTATION_CONTEXT(2) 
PARAMETRIC_REPRESENTATION_CONTEXT() REPRESENTATION_CONTEXT('2D SPACE',''
  ) );
#377 = ORIENTED_EDGE('',*,*,#378,.F.);
#378 = EDGE_CURVE('',#379,#353,#381,.T.);
#379 = VERTEX_POINT('',#380);
#380 = CARTESIAN_POINT('',(237.,2.397915761656,94.));
#381 = SURFACE_CURVE('',#382,(#386,#392),.PCURVE_S1.);
#382 = LINE('',#383,#384);
#383 = CARTESIAN_POINT('',(207.4,2.397915761656,94.));
#384 = VECTOR('',#385,1.);
#385 = DIRECTION('',(1.,0.,0.));
#386 = PCURVE('',#44,#387);
#387 = DEFINITIONAL_REPRESENTATION('',(#388),#391);
#388 = B_SPLINE_CURVE_WITH_KNOTS('',1,(#389,#390),.UNSPECIFIED.,.F.,.F.,
  (2,2),(25.,43.1000006),.PIECEWISE_BEZIER_KNOTS.);
#389 = CARTESIAN_POINT('',(-4.6,28.897915761656));
#390 = CARTESIAN_POINT('',(13.5000006,28.897915761656));
#391 = ( GEOMETRIC_REPRESENTATION_CONTEXT(2) 
PARAMETRIC_REPRESENTATION_CONTEXT() REPRESENTATION_CONTEXT('2D SPACE',''
  ) );
#392 = PCURVE('',#393,#398);
#393 = CYLINDRICAL_SURFACE('',#394,6.);
#394 = AXIS2_PLACEMENT_3D('',#395,#396,#397);
#395 = CARTESIAN_POINT('',(207.4,0.,88.5));
#396 = DIRECTION('',(1.,0.,0.));
#397 = DIRECTION('',(-0.,0.,1.));
#398 = DEFINITIONAL_REPRESENTATION('',(#399),#402);
#399 = B_SPLINE_CURVE_WITH_KNOTS('',1,(#400,#401),.UNSPECIFIED.,.F.,.F.,
  (2,2),(25.,43.1000006),.PIECEWISE_BEZIER_KNOTS.);
#400 = CARTESIAN_POINT('',(5.872047444857,25.));
#401 = CARTESIAN_POINT('',(5.872047444857,43.1000006));
#402 = ( GEOMETRIC_REPRESENTATION_CONTEXT(2) 
PARAMETRIC_REPRESENTATION_CONTEXT() REPRESENTATION_CONTEXT('2D SPACE',''
  ) );
#403 = ORIENTED_EDGE('',*,*,#404,.F.);
#404 = EDGE_CURVE('',#405,#379,#407,.T.);
#405 = VERTEX_POINT('',#406);
#406 = CARTESIAN_POINT('',(237.,-2.397915761656,94.));
#407 = SURFACE_CURVE('',#408,(#412,#419),.PCURVE_S1.);
#408 = LINE('',#409,#410);
#409 = CARTESIAN_POINT('',(237.,-26.5,94.));
#410 = VECTOR('',#411,1.);
#411 = DIRECTION('',(0.,1.,0.));
#412 = PCURVE('',#44,#413);
#413 = DEFINITIONAL_REPRESENTATION('',(#414),#418);
#414 = LINE('',#415,#416);
#415 = CARTESIAN_POINT('',(0.,0.));
#416 = VECTOR('',#417,1.);
#417 = DIRECTION('',(0.,1.));
#418 = ( GEOMETRIC_REPRESENTATION_CONTEXT(2) 
PARAMETRIC_REPRESENTATION_CONTEXT() REPRESENTATION_CONTEXT('2D SPACE',''
  ) );
#419 = PCURVE('',#420,#425);
#420 = PLANE('',#421);
#421 = AXIS2_PLACEMENT_3D('',#422,#423,#424);
#422 = CARTESIAN_POINT('',(237.,-26.5,82.));
#423 = DIRECTION('',(1.,0.,0.));
#424 = DIRECTION('',(0.,0.,1.));
#425 = DEFINITIONAL_REPRESENTATION('',(#426),#430);
#426 = LINE('',#427,#428);
#427 = CARTESIAN_POINT('',(12.,0.));
#428 = VECTOR('',#429,1.);
#429 = DIRECTION('',(0.,-1.));
#430 = ( GEOMETRIC_REPRESENTATION_CONTEXT(2) 
PARAMETRIC_REPRESENTATION_CONTEXT() REPRESENTATION_CONTEXT('2D SPACE',''
  ) );
#431 = ORIENTED_EDGE('',*,*,#432,.T.);
#432 = EDGE_CURVE('',#405,#433,#435,.T.);
#433 = VERTEX_POINT('',#434);
#434 = CARTESIAN_POINT('',(250.5,-2.397915761656,94.));
#435 = SURFACE_CURVE('',#436,(#440,#446),.PCURVE_S1.);
#436 = LINE('',#437,#438);
#437 = CARTESIAN_POINT('',(207.4,-2.397915761656,94.));
#438 = VECTOR('',#439,1.);
#439 = DIRECTION('',(1.,0.,0.));
#440 = PCURVE('',#44,#441);
#441 = DEFINITIONAL_REPRESENTATION('',(#442),#445);
#442 = B_SPLINE_CURVE_WITH_KNOTS('',1,(#443,#444),.UNSPECIFIED.,.F.,.F.,
  (2,2),(25.,43.1000006),.PIECEWISE_BEZIER_KNOTS.);
#443 = CARTESIAN_POINT('',(-4.6,24.102084238344));
#444 = CARTESIAN_POINT('',(13.5000006,24.102084238344));
#445 = ( GEOMETRIC_REPRESENTATION_CONTEXT(2) 
PARAMETRIC_REPRESENTATION_CONTEXT() REPRESENTATION_CONTEXT('2D SPACE',''
  ) );
#446 = PCURVE('',#393,#447);
#447 = DEFINITIONAL_REPRESENTATION('',(#448),#451);
#448 = B_SPLINE_CURVE_WITH_KNOTS('',1,(#449,#450),.UNSPECIFIED.,.F.,.F.,
  (2,2),(25.,43.1000006),.PIECEWISE_BEZIER_KNOTS.);
#449 = CARTESIAN_POINT('',(0.411137862322,25.));
#450 = CARTESIAN_POINT('',(0.411137862322,43.1000006));
#451 = ( GEOMETRIC_REPRESENTATION_CONTEXT(2) 
PARAMETRIC_REPRESENTATION_CONTEXT() REPRESENTATION_CONTEXT('2D SPACE',''
  ) );
#452 = ORIENTED_EDGE('',*,*,#453,.F.);
#453 = EDGE_CURVE('',#454,#433,#456,.T.);
#454 = VERTEX_POINT('',#455);
#455 = CARTESIAN_POINT('',(250.5,-11.,94.));
#456 = SURFACE_CURVE('',#457,(#461,#467),.PCURVE_S1.);
#457 = LINE('',#458,#459);
#458 = CARTESIAN_POINT('',(250.5,-18.75,94.));
#459 = VECTOR('',#460,1.);
#460 = DIRECTION('',(0.,1.,0.));
#461 = PCURVE('',#44,#462);
#462 = DEFINITIONAL_REPRESENTATION('',(#463),#466);
#463 = B_SPLINE_CURVE_WITH_KNOTS('',1,(#464,#465),.UNSPECIFIED.,.F.,.F.,
  (2,2),(7.75,29.75),.PIECEWISE_BEZIER_KNOTS.);
#464 = CARTESIAN_POINT('',(13.5,15.5));
#465 = CARTESIAN_POINT('',(13.5,37.5));
#466 = ( GEOMETRIC_REPRESENTATION_CONTEXT(2) 
PARAMETRIC_REPRESENTATION_CONTEXT() REPRESENTATION_CONTEXT('2D SPACE',''
  ) );
#467 = PCURVE('',#367,#468);
#468 = DEFINITIONAL_REPRESENTATION('',(#469),#472);
#469 = B_SPLINE_CURVE_WITH_KNOTS('',1,(#470,#471),.UNSPECIFIED.,.F.,.F.,
  (2,2),(7.75,29.75),.PIECEWISE_BEZIER_KNOTS.);
#470 = CARTESIAN_POINT('',(12.,0.));
#471 = CARTESIAN_POINT('',(12.,-22.));
#472 = ( GEOMETRIC_REPRESENTATION_CONTEXT(2) 
PARAMETRIC_REPRESENTATION_CONTEXT() REPRESENTATION_CONTEXT('2D SPACE',''
  ) );
#473 = ORIENTED_EDGE('',*,*,#474,.T.);
#474 = EDGE_CURVE('',#454,#24,#475,.T.);
#475 = SURFACE_CURVE('',#476,(#480,#486),.PCURVE_S1.);
#476 = LINE('',#477,#478);
#477 = CARTESIAN_POINT('',(222.25,-11.,94.));
#478 = VECTOR('',#479,1.);
#479 = DIRECTION('',(-1.,0.,0.));
#480 = PCURVE('',#44,#481);
#481 = DEFINITIONAL_REPRESENTATION('',(#482),#485);
#482 = B_SPLINE_CURVE_WITH_KNOTS('',1,(#483,#484),.UNSPECIFIED.,.F.,.F.,
  (2,2),(-28.25,-14.75),.PIECEWISE_BEZIER_KNOTS.);
#483 = CARTESIAN_POINT('',(13.5,15.5));
#484 = CARTESIAN_POINT('',(0.,15.5));
#485 = ( GEOMETRIC_REPRESENTATION_CONTEXT(2) 
PARAMETRIC_REPRESENTATION_CONTEXT() REPRESENTATION_CONTEXT('2D SPACE',''
  ) );
#486 = PCURVE('',#204,#487);
#487 = DEFINITIONAL_REPRESENTATION('',(#488),#491);
#488 = B_SPLINE_CURVE_WITH_KNOTS('',1,(#489,#490),.UNSPECIFIED.,.F.,.F.,
  (2,2),(-28.25,-14.75),.PIECEWISE_BEZIER_KNOTS.);
#489 = CARTESIAN_POINT('',(12.,43.));
#490 = CARTESIAN_POINT('',(12.,29.5));
#491 = ( GEOMETRIC_REPRESENTATION_CONTEXT(2) 
PARAMETRIC_REPRESENTATION_CONTEXT() REPRESENTATION_CONTEXT('2D SPACE',''
  ) );
#492 = ADVANCED_FACE('',(#493),#204,.T.);
#493 = FACE_BOUND('',#494,.T.);
#494 = EDGE_LOOP('',(#495,#496,#519,#538));
#495 = ORIENTED_EDGE('',*,*,#474,.F.);
#496 = ORIENTED_EDGE('',*,*,#497,.F.);
#497 = EDGE_CURVE('',#498,#454,#500,.T.);
#498 = VERTEX_POINT('',#499);
#499 = CARTESIAN_POINT('',(250.5,-11.,91.122498999199));
#500 = SURFACE_CURVE('',#501,(#505,#512),.PCURVE_S1.);
#501 = LINE('',#502,#503);
#502 = CARTESIAN_POINT('',(250.5,-11.,82.));
#503 = VECTOR('',#504,1.);
#504 = DIRECTION('',(0.,0.,1.));
#505 = PCURVE('',#204,#506);
#506 = DEFINITIONAL_REPRESENTATION('',(#507),#511);
#507 = LINE('',#508,#509);
#508 = CARTESIAN_POINT('',(0.,43.));
#509 = VECTOR('',#510,1.);
#510 = DIRECTION('',(1.,0.));
#511 = ( GEOMETRIC_REPRESENTATION_CONTEXT(2) 
PARAMETRIC_REPRESENTATION_CONTEXT() REPRESENTATION_CONTEXT('2D SPACE',''
  ) );
#512 = PCURVE('',#367,#513);
#513 = DEFINITIONAL_REPRESENTATION('',(#514),#518);
#514 = LINE('',#515,#516);
#515 = CARTESIAN_POINT('',(0.,0.));
#516 = VECTOR('',#517,1.);
#517 = DIRECTION('',(1.,0.));
#518 = ( GEOMETRIC_REPRESENTATION_CONTEXT(2) 
PARAMETRIC_REPRESENTATION_CONTEXT() REPRESENTATION_CONTEXT('2D SPACE',''
  ) );
#519 = ORIENTED_EDGE('',*,*,#520,.F.);
#520 = EDGE_CURVE('',#168,#498,#521,.T.);
#521 = SURFACE_CURVE('',#522,(#526,#532),.PCURVE_S1.);
#522 = LINE('',#523,#524);
#523 = CARTESIAN_POINT('',(236.9,-11.,91.122498999199));
#524 = VECTOR('',#525,1.);
#525 = DIRECTION('',(1.,0.,0.));
#526 = PCURVE('',#204,#527);
#527 = DEFINITIONAL_REPRESENTATION('',(#528),#531);
#528 = B_SPLINE_CURVE_WITH_KNOTS('',1,(#529,#530),.UNSPECIFIED.,.F.,.F.,
  (2,2),(9.99994E-02,17.9),.PIECEWISE_BEZIER_KNOTS.);
#529 = CARTESIAN_POINT('',(9.122498999199,29.4999994));
#530 = CARTESIAN_POINT('',(9.122498999199,47.3));
#531 = ( GEOMETRIC_REPRESENTATION_CONTEXT(2) 
PARAMETRIC_REPRESENTATION_CONTEXT() REPRESENTATION_CONTEXT('2D SPACE',''
  ) );
#532 = PCURVE('',#155,#533);
#533 = DEFINITIONAL_REPRESENTATION('',(#534),#537);
#534 = B_SPLINE_CURVE_WITH_KNOTS('',1,(#535,#536),.UNSPECIFIED.,.F.,.F.,
  (2,2),(9.99994E-02,17.9),.PIECEWISE_BEZIER_KNOTS.);
#535 = CARTESIAN_POINT('',(5.608053774243,9.99994E-02));
#536 = CARTESIAN_POINT('',(5.608053774243,17.9));
#537 = ( GEOMETRIC_REPRESENTATION_CONTEXT(2) 
PARAMETRIC_REPRESENTATION_CONTEXT() REPRESENTATION_CONTEXT('2D SPACE',''
  ) );
#538 = ORIENTED_EDGE('',*,*,#191,.T.);
#539 = ADVANCED_FACE('',(#540),#155,.F.);
#540 = FACE_BOUND('',#541,.F.);
#541 = EDGE_LOOP('',(#542,#565,#587,#588,#589,#610,#632,#633));
#542 = ORIENTED_EDGE('',*,*,#543,.T.);
#543 = EDGE_CURVE('',#139,#544,#546,.T.);
#544 = VERTEX_POINT('',#545);
#545 = CARTESIAN_POINT('',(283.,-13.5,92.));
#546 = SEAM_CURVE('',#547,(#551,#558),.PCURVE_S1.);
#547 = LINE('',#548,#549);
#548 = CARTESIAN_POINT('',(236.9,-13.5,92.));
#549 = VECTOR('',#550,1.);
#550 = DIRECTION('',(1.,0.,0.));
#551 = PCURVE('',#155,#552);
#552 = DEFINITIONAL_REPRESENTATION('',(#553),#557);
#553 = LINE('',#554,#555);
#554 = CARTESIAN_POINT('',(6.28318530718,-0.));
#555 = VECTOR('',#556,1.);
#556 = DIRECTION('',(0.,1.));
#557 = ( GEOMETRIC_REPRESENTATION_CONTEXT(2) 
PARAMETRIC_REPRESENTATION_CONTEXT() REPRESENTATION_CONTEXT('2D SPACE',''
  ) );
#558 = PCURVE('',#155,#559);
#559 = DEFINITIONAL_REPRESENTATION('',(#560),#564);
#560 = LINE('',#561,#562);
#561 = CARTESIAN_POINT('',(0.,-0.));
#562 = VECTOR('',#563,1.);
#563 = DIRECTION('',(0.,1.));
#564 = ( GEOMETRIC_REPRESENTATION_CONTEXT(2) 
PARAMETRIC_REPRESENTATION_CONTEXT() REPRESENTATION_CONTEXT('2D SPACE',''
  ) );
#565 = ORIENTED_EDGE('',*,*,#566,.F.);
#566 = EDGE_CURVE('',#544,#544,#567,.T.);
#567 = SURFACE_CURVE('',#568,(#573,#580),.PCURVE_S1.);
#568 = CIRCLE('',#569,4.);
#569 = AXIS2_PLACEMENT_3D('',#570,#571,#572);
#570 = CARTESIAN_POINT('',(283.,-13.5,88.));
#571 = DIRECTION('',(1.,0.,0.));
#572 = DIRECTION('',(-0.,0.,1.));
#573 = PCURVE('',#155,#574);
#574 = DEFINITIONAL_REPRESENTATION('',(#575),#579);
#575 = LINE('',#576,#577);
#576 = CARTESIAN_POINT('',(0.,46.1));
#577 = VECTOR('',#578,1.);
#578 = DIRECTION('',(1.,0.));
#579 = ( GEOMETRIC_REPRESENTATION_CONTEXT(2) 
PARAMETRIC_REPRESENTATION_CONTEXT() REPRESENTATION_CONTEXT('2D SPACE',''
  ) );
#580 = PCURVE('',#258,#581);
#581 = DEFINITIONAL_REPRESENTATION('',(#582),#586);
#582 = CIRCLE('',#583,4.);
#583 = AXIS2_PLACEMENT_2D('',#584,#585);
#584 = CARTESIAN_POINT('',(6.,-13.));
#585 = DIRECTION('',(1.,0.));
#586 = ( GEOMETRIC_REPRESENTATION_CONTEXT(2) 
PARAMETRIC_REPRESENTATION_CONTEXT() REPRESENTATION_CONTEXT('2D SPACE',''
  ) );
#587 = ORIENTED_EDGE('',*,*,#543,.F.);
#588 = ORIENTED_EDGE('',*,*,#138,.T.);
#589 = ORIENTED_EDGE('',*,*,#590,.T.);
#590 = EDGE_CURVE('',#113,#591,#593,.T.);
#591 = VERTEX_POINT('',#592);
#592 = CARTESIAN_POINT('',(250.5,-11.,84.877501000801));
#593 = SURFACE_CURVE('',#594,(#598,#604),.PCURVE_S1.);
#594 = LINE('',#595,#596);
#595 = CARTESIAN_POINT('',(236.9,-11.,84.877501000801));
#596 = VECTOR('',#597,1.);
#597 = DIRECTION('',(1.,0.,0.));
#598 = PCURVE('',#155,#599);
#599 = DEFINITIONAL_REPRESENTATION('',(#600),#603);
#600 = B_SPLINE_CURVE_WITH_KNOTS('',1,(#601,#602),.UNSPECIFIED.,.F.,.F.,
  (2,2),(9.99994E-02,17.9),.PIECEWISE_BEZIER_KNOTS.);
#601 = CARTESIAN_POINT('',(3.816724186527,9.99994E-02));
#602 = CARTESIAN_POINT('',(3.816724186527,17.9));
#603 = ( GEOMETRIC_REPRESENTATION_CONTEXT(2) 
PARAMETRIC_REPRESENTATION_CONTEXT() REPRESENTATION_CONTEXT('2D SPACE',''
  ) );
#604 = PCURVE('',#127,#605);
#605 = DEFINITIONAL_REPRESENTATION('',(#606),#609);
#606 = B_SPLINE_CURVE_WITH_KNOTS('',1,(#607,#608),.UNSPECIFIED.,.F.,.F.,
  (2,2),(9.99994E-02,17.9),.PIECEWISE_BEZIER_KNOTS.);
#607 = CARTESIAN_POINT('',(2.877501000801,29.4999994));
#608 = CARTESIAN_POINT('',(2.877501000801,47.3));
#609 = ( GEOMETRIC_REPRESENTATION_CONTEXT(2) 
PARAMETRIC_REPRESENTATION_CONTEXT() REPRESENTATION_CONTEXT('2D SPACE',''
  ) );
#610 = ORIENTED_EDGE('',*,*,#611,.T.);
#611 = EDGE_CURVE('',#591,#498,#612,.T.);
#612 = SURFACE_CURVE('',#613,(#618,#625),.PCURVE_S1.);
#613 = CIRCLE('',#614,4.);
#614 = AXIS2_PLACEMENT_3D('',#615,#616,#617);
#615 = CARTESIAN_POINT('',(250.5,-13.5,88.));
#616 = DIRECTION('',(1.,0.,0.));
#617 = DIRECTION('',(-0.,0.,1.));
#618 = PCURVE('',#155,#619);
#619 = DEFINITIONAL_REPRESENTATION('',(#620),#624);
#620 = LINE('',#621,#622);
#621 = CARTESIAN_POINT('',(0.,13.6));
#622 = VECTOR('',#623,1.);
#623 = DIRECTION('',(1.,0.));
#624 = ( GEOMETRIC_REPRESENTATION_CONTEXT(2) 
PARAMETRIC_REPRESENTATION_CONTEXT() REPRESENTATION_CONTEXT('2D SPACE',''
  ) );
#625 = PCURVE('',#367,#626);
#626 = DEFINITIONAL_REPRESENTATION('',(#627),#631);
#627 = CIRCLE('',#628,4.);
#628 = AXIS2_PLACEMENT_2D('',#629,#630);
#629 = CARTESIAN_POINT('',(6.,2.5));
#630 = DIRECTION('',(1.,0.));
#631 = ( GEOMETRIC_REPRESENTATION_CONTEXT(2) 
PARAMETRIC_REPRESENTATION_CONTEXT() REPRESENTATION_CONTEXT('2D SPACE',''
  ) );
#632 = ORIENTED_EDGE('',*,*,#520,.F.);
#633 = ORIENTED_EDGE('',*,*,#167,.T.);
#634 = ADVANCED_FACE('',(#635),#127,.T.);
#635 = FACE_BOUND('',#636,.T.);
#636 = EDGE_LOOP('',(#637,#660,#661,#662));
#637 = ORIENTED_EDGE('',*,*,#638,.F.);
#638 = EDGE_CURVE('',#85,#639,#641,.T.);
#639 = VERTEX_POINT('',#640);
#640 = CARTESIAN_POINT('',(250.5,-11.,82.));
#641 = SURFACE_CURVE('',#642,(#646,#653),.PCURVE_S1.);
#642 = LINE('',#643,#644);
#643 = CARTESIAN_POINT('',(207.5,-11.,82.));
#644 = VECTOR('',#645,1.);
#645 = DIRECTION('',(1.,0.,0.));
#646 = PCURVE('',#127,#647);
#647 = DEFINITIONAL_REPRESENTATION('',(#648),#652);
#648 = LINE('',#649,#650);
#649 = CARTESIAN_POINT('',(0.,0.));
#650 = VECTOR('',#651,1.);
#651 = DIRECTION('',(0.,1.));
#652 = ( GEOMETRIC_REPRESENTATION_CONTEXT(2) 
PARAMETRIC_REPRESENTATION_CONTEXT() REPRESENTATION_CONTEXT('2D SPACE',''
  ) );
#653 = PCURVE('',#100,#654);
#654 = DEFINITIONAL_REPRESENTATION('',(#655),#659);
#655 = LINE('',#656,#657);
#656 = CARTESIAN_POINT('',(-29.5,15.5));
#657 = VECTOR('',#658,1.);
#658 = DIRECTION('',(1.,0.));
#659 = ( GEOMETRIC_REPRESENTATION_CONTEXT(2) 
PARAMETRIC_REPRESENTATION_CONTEXT() REPRESENTATION_CONTEXT('2D SPACE',''
  ) );
#660 = ORIENTED_EDGE('',*,*,#112,.T.);
#661 = ORIENTED_EDGE('',*,*,#590,.T.);
#662 = ORIENTED_EDGE('',*,*,#663,.F.);
#663 = EDGE_CURVE('',#639,#591,#664,.T.);
#664 = SURFACE_CURVE('',#665,(#669,#676),.PCURVE_S1.);
#665 = LINE('',#666,#667);
#666 = CARTESIAN_POINT('',(250.5,-11.,82.));
#667 = VECTOR('',#668,1.);
#668 = DIRECTION('',(0.,0.,1.));
#669 = PCURVE('',#127,#670);
#670 = DEFINITIONAL_REPRESENTATION('',(#671),#675);
#671 = LINE('',#672,#673);
#672 = CARTESIAN_POINT('',(0.,43.));
#673 = VECTOR('',#674,1.);
#674 = DIRECTION('',(1.,0.));
#675 = ( GEOMETRIC_REPRESENTATION_CONTEXT(2) 
PARAMETRIC_REPRESENTATION_CONTEXT() REPRESENTATION_CONTEXT('2D SPACE',''
  ) );
#676 = PCURVE('',#367,#677);
#677 = DEFINITIONAL_REPRESENTATION('',(#678),#682);
#678 = LINE('',#679,#680);
#679 = CARTESIAN_POINT('',(0.,0.));
#680 = VECTOR('',#681,1.);
#681 = DIRECTION('',(1.,0.));
#682 = ( GEOMETRIC_REPRESENTATION_CONTEXT(2) 
PARAMETRIC_REPRESENTATION_CONTEXT() REPRESENTATION_CONTEXT('2D SPACE',''
  ) );
#683 = ADVANCED_FACE('',(#684),#100,.F.);
#684 = FACE_BOUND('',#685,.F.);
#685 = EDGE_LOOP('',(#686,#687,#710,#733,#756,#779,#807,#828));
#686 = ORIENTED_EDGE('',*,*,#84,.F.);
#687 = ORIENTED_EDGE('',*,*,#688,.T.);
#688 = EDGE_CURVE('',#57,#689,#691,.T.);
#689 = VERTEX_POINT('',#690);
#690 = CARTESIAN_POINT('',(283.,-26.5,82.));
#691 = SURFACE_CURVE('',#692,(#696,#703),.PCURVE_S1.);
#692 = LINE('',#693,#694);
#693 = CARTESIAN_POINT('',(237.,-26.5,82.));
#694 = VECTOR('',#695,1.);
#695 = DIRECTION('',(1.,0.,0.));
#696 = PCURVE('',#100,#697);
#697 = DEFINITIONAL_REPRESENTATION('',(#698),#702);
#698 = LINE('',#699,#700);
#699 = CARTESIAN_POINT('',(0.,0.));
#700 = VECTOR('',#701,1.);
#701 = DIRECTION('',(1.,0.));
#702 = ( GEOMETRIC_REPRESENTATION_CONTEXT(2) 
PARAMETRIC_REPRESENTATION_CONTEXT() REPRESENTATION_CONTEXT('2D SPACE',''
  ) );
#703 = PCURVE('',#72,#704);
#704 = DEFINITIONAL_REPRESENTATION('',(#705),#709);
#705 = LINE('',#706,#707);
#706 = CARTESIAN_POINT('',(0.,0.));
#707 = VECTOR('',#708,1.);
#708 = DIRECTION('',(0.,1.));
#709 = ( GEOMETRIC_REPRESENTATION_CONTEXT(2) 
PARAMETRIC_REPRESENTATION_CONTEXT() REPRESENTATION_CONTEXT('2D SPACE',''
  ) );
#710 = ORIENTED_EDGE('',*,*,#711,.T.);
#711 = EDGE_CURVE('',#689,#712,#714,.T.);
#712 = VERTEX_POINT('',#713);
#713 = CARTESIAN_POINT('',(283.,26.5,82.));
#714 = SURFACE_CURVE('',#715,(#719,#726),.PCURVE_S1.);
#715 = LINE('',#716,#717);
#716 = CARTESIAN_POINT('',(283.,-26.5,82.));
#717 = VECTOR('',#718,1.);
#718 = DIRECTION('',(0.,1.,0.));
#719 = PCURVE('',#100,#720);
#720 = DEFINITIONAL_REPRESENTATION('',(#721),#725);
#721 = LINE('',#722,#723);
#722 = CARTESIAN_POINT('',(46.,0.));
#723 = VECTOR('',#724,1.);
#724 = DIRECTION('',(0.,1.));
#725 = ( GEOMETRIC_REPRESENTATION_CONTEXT(2) 
PARAMETRIC_REPRESENTATION_CONTEXT() REPRESENTATION_CONTEXT('2D SPACE',''
  ) );
#726 = PCURVE('',#258,#727);
#727 = DEFINITIONAL_REPRESENTATION('',(#728),#732);
#728 = LINE('',#729,#730);
#729 = CARTESIAN_POINT('',(0.,0.));
#730 = VECTOR('',#731,1.);
#731 = DIRECTION('',(0.,-1.));
#732 = ( GEOMETRIC_REPRESENTATION_CONTEXT(2) 
PARAMETRIC_REPRESENTATION_CONTEXT() REPRESENTATION_CONTEXT('2D SPACE',''
  ) );
#733 = ORIENTED_EDGE('',*,*,#734,.F.);
#734 = EDGE_CURVE('',#735,#712,#737,.T.);
#735 = VERTEX_POINT('',#736);
#736 = CARTESIAN_POINT('',(237.,26.5,82.));
#737 = SURFACE_CURVE('',#738,(#742,#749),.PCURVE_S1.);
#738 = LINE('',#739,#740);
#739 = CARTESIAN_POINT('',(237.,26.5,82.));
#740 = VECTOR('',#741,1.);
#741 = DIRECTION('',(1.,0.,0.));
#742 = PCURVE('',#100,#743);
#743 = DEFINITIONAL_REPRESENTATION('',(#744),#748);
#744 = LINE('',#745,#746);
#745 = CARTESIAN_POINT('',(0.,53.));
#746 = VECTOR('',#747,1.);
#747 = DIRECTION('',(1.,0.));
#748 = ( GEOMETRIC_REPRESENTATION_CONTEXT(2) 
PARAMETRIC_REPRESENTATION_CONTEXT() REPRESENTATION_CONTEXT('2D SPACE',''
  ) );
#749 = PCURVE('',#286,#750);
#750 = DEFINITIONAL_REPRESENTATION('',(#751),#755);
#751 = LINE('',#752,#753);
#752 = CARTESIAN_POINT('',(0.,0.));
#753 = VECTOR('',#754,1.);
#754 = DIRECTION('',(0.,1.));
#755 = ( GEOMETRIC_REPRESENTATION_CONTEXT(2) 
PARAMETRIC_REPRESENTATION_CONTEXT() REPRESENTATION_CONTEXT('2D SPACE',''
  ) );
#756 = ORIENTED_EDGE('',*,*,#757,.F.);
#757 = EDGE_CURVE('',#758,#735,#760,.T.);
#758 = VERTEX_POINT('',#759);
#759 = CARTESIAN_POINT('',(237.,11.,82.));
#760 = SURFACE_CURVE('',#761,(#765,#772),.PCURVE_S1.);
#761 = LINE('',#762,#763);
#762 = CARTESIAN_POINT('',(237.,-26.5,82.));
#763 = VECTOR('',#764,1.);
#764 = DIRECTION('',(0.,1.,0.));
#765 = PCURVE('',#100,#766);
#766 = DEFINITIONAL_REPRESENTATION('',(#767),#771);
#767 = LINE('',#768,#769);
#768 = CARTESIAN_POINT('',(0.,0.));
#769 = VECTOR('',#770,1.);
#770 = DIRECTION('',(0.,1.));
#771 = ( GEOMETRIC_REPRESENTATION_CONTEXT(2) 
PARAMETRIC_REPRESENTATION_CONTEXT() REPRESENTATION_CONTEXT('2D SPACE',''
  ) );
#772 = PCURVE('',#314,#773);
#773 = DEFINITIONAL_REPRESENTATION('',(#774),#778);
#774 = LINE('',#775,#776);
#775 = CARTESIAN_POINT('',(0.,0.));
#776 = VECTOR('',#777,1.);
#777 = DIRECTION('',(0.,-1.));
#778 = ( GEOMETRIC_REPRESENTATION_CONTEXT(2) 
PARAMETRIC_REPRESENTATION_CONTEXT() REPRESENTATION_CONTEXT('2D SPACE',''
  ) );
#779 = ORIENTED_EDGE('',*,*,#780,.T.);
#780 = EDGE_CURVE('',#758,#781,#783,.T.);
#781 = VERTEX_POINT('',#782);
#782 = CARTESIAN_POINT('',(250.5,11.,82.));
#783 = SURFACE_CURVE('',#784,(#788,#795),.PCURVE_S1.);
#784 = LINE('',#785,#786);
#785 = CARTESIAN_POINT('',(207.5,11.,82.));
#786 = VECTOR('',#787,1.);
#787 = DIRECTION('',(1.,0.,0.));
#788 = PCURVE('',#100,#789);
#789 = DEFINITIONAL_REPRESENTATION('',(#790),#794);
#790 = LINE('',#791,#792);
#791 = CARTESIAN_POINT('',(-29.5,37.5));
#792 = VECTOR('',#793,1.);
#793 = DIRECTION('',(1.,0.));
#794 = ( GEOMETRIC_REPRESENTATION_CONTEXT(2) 
PARAMETRIC_REPRESENTATION_CONTEXT() REPRESENTATION_CONTEXT('2D SPACE',''
  ) );
#795 = PCURVE('',#796,#801);
#796 = PLANE('',#797);
#797 = AXIS2_PLACEMENT_3D('',#798,#799,#800);
#798 = CARTESIAN_POINT('',(207.5,11.,82.));
#799 = DIRECTION('',(0.,1.,0.));
#800 = DIRECTION('',(0.,0.,1.));
#801 = DEFINITIONAL_REPRESENTATION('',(#802),#806);
#802 = LINE('',#803,#804);
#803 = CARTESIAN_POINT('',(0.,0.));
#804 = VECTOR('',#805,1.);
#805 = DIRECTION('',(0.,1.));
#806 = ( GEOMETRIC_REPRESENTATION_CONTEXT(2) 
PARAMETRIC_REPRESENTATION_CONTEXT() REPRESENTATION_CONTEXT('2D SPACE',''
  ) );
#807 = ORIENTED_EDGE('',*,*,#808,.F.);
#808 = EDGE_CURVE('',#639,#781,#809,.T.);
#809 = SURFACE_CURVE('',#810,(#814,#821),.PCURVE_S1.);
#810 = LINE('',#811,#812);
#811 = CARTESIAN_POINT('',(250.5,-11.,82.));
#812 = VECTOR('',#813,1.);
#813 = DIRECTION('',(0.,1.,0.));
#814 = PCURVE('',#100,#815);
#815 = DEFINITIONAL_REPRESENTATION('',(#816),#820);
#816 = LINE('',#817,#818);
#817 = CARTESIAN_POINT('',(13.5,15.5));
#818 = VECTOR('',#819,1.);
#819 = DIRECTION('',(0.,1.));
#820 = ( GEOMETRIC_REPRESENTATION_CONTEXT(2) 
PARAMETRIC_REPRESENTATION_CONTEXT() REPRESENTATION_CONTEXT('2D SPACE',''
  ) );
#821 = PCURVE('',#367,#822);
#822 = DEFINITIONAL_REPRESENTATION('',(#823),#827);
#823 = LINE('',#824,#825);
#824 = CARTESIAN_POINT('',(0.,0.));
#825 = VECTOR('',#826,1.);
#826 = DIRECTION('',(0.,-1.));
#827 = ( GEOMETRIC_REPRESENTATION_CONTEXT(2) 
PARAMETRIC_REPRESENTATION_CONTEXT() REPRESENTATION_CONTEXT('2D SPACE',''
  ) );
#828 = ORIENTED_EDGE('',*,*,#638,.F.);
#829 = ADVANCED_FACE('',(#830),#72,.F.);
#830 = FACE_BOUND('',#831,.F.);
#831 = EDGE_LOOP('',(#832,#833,#834,#835));
#832 = ORIENTED_EDGE('',*,*,#688,.F.);
#833 = ORIENTED_EDGE('',*,*,#56,.T.);
#834 = ORIENTED_EDGE('',*,*,#219,.T.);
#835 = ORIENTED_EDGE('',*,*,#836,.F.);
#836 = EDGE_CURVE('',#689,#220,#837,.T.);
#837 = SURFACE_CURVE('',#838,(#842,#849),.PCURVE_S1.);
#838 = LINE('',#839,#840);
#839 = CARTESIAN_POINT('',(283.,-26.5,82.));
#840 = VECTOR('',#841,1.);
#841 = DIRECTION('',(0.,0.,1.));
#842 = PCURVE('',#72,#843);
#843 = DEFINITIONAL_REPRESENTATION('',(#844),#848);
#844 = LINE('',#845,#846);
#845 = CARTESIAN_POINT('',(0.,46.));
#846 = VECTOR('',#847,1.);
#847 = DIRECTION('',(1.,0.));
#848 = ( GEOMETRIC_REPRESENTATION_CONTEXT(2) 
PARAMETRIC_REPRESENTATION_CONTEXT() REPRESENTATION_CONTEXT('2D SPACE',''
  ) );
#849 = PCURVE('',#258,#850);
#850 = DEFINITIONAL_REPRESENTATION('',(#851),#855);
#851 = LINE('',#852,#853);
#852 = CARTESIAN_POINT('',(0.,0.));
#853 = VECTOR('',#854,1.);
#854 = DIRECTION('',(1.,0.));
#855 = ( GEOMETRIC_REPRESENTATION_CONTEXT(2) 
PARAMETRIC_REPRESENTATION_CONTEXT() REPRESENTATION_CONTEXT('2D SPACE',''
  ) );
#856 = ADVANCED_FACE('',(#857),#367,.F.);
#857 = FACE_BOUND('',#858,.F.);
#858 = EDGE_LOOP('',(#859,#860,#861,#884,#913,#934,#935,#957,#958,#959)
  );
#859 = ORIENTED_EDGE('',*,*,#663,.F.);
#860 = ORIENTED_EDGE('',*,*,#808,.T.);
#861 = ORIENTED_EDGE('',*,*,#862,.T.);
#862 = EDGE_CURVE('',#781,#863,#865,.T.);
#863 = VERTEX_POINT('',#864);
#864 = CARTESIAN_POINT('',(250.5,11.,84.877501000801));
#865 = SURFACE_CURVE('',#866,(#870,#877),.PCURVE_S1.);
#866 = LINE('',#867,#868);
#867 = CARTESIAN_POINT('',(250.5,11.,82.));
#868 = VECTOR('',#869,1.);
#869 = DIRECTION('',(0.,0.,1.));
#870 = PCURVE('',#367,#871);
#871 = DEFINITIONAL_REPRESENTATION('',(#872),#876);
#872 = LINE('',#873,#874);
#873 = CARTESIAN_POINT('',(0.,-22.));
#874 = VECTOR('',#875,1.);
#875 = DIRECTION('',(1.,0.));
#876 = ( GEOMETRIC_REPRESENTATION_CONTEXT(2) 
PARAMETRIC_REPRESENTATION_CONTEXT() REPRESENTATION_CONTEXT('2D SPACE',''
  ) );
#877 = PCURVE('',#796,#878);
#878 = DEFINITIONAL_REPRESENTATION('',(#879),#883);
#879 = LINE('',#880,#881);
#880 = CARTESIAN_POINT('',(0.,43.));
#881 = VECTOR('',#882,1.);
#882 = DIRECTION('',(1.,0.));
#883 = ( GEOMETRIC_REPRESENTATION_CONTEXT(2) 
PARAMETRIC_REPRESENTATION_CONTEXT() REPRESENTATION_CONTEXT('2D SPACE',''
  ) );
#884 = ORIENTED_EDGE('',*,*,#885,.F.);
#885 = EDGE_CURVE('',#886,#863,#888,.T.);
#886 = VERTEX_POINT('',#887);
#887 = CARTESIAN_POINT('',(250.5,11.,91.122498999199));
#888 = SURFACE_CURVE('',#889,(#894,#901),.PCURVE_S1.);
#889 = CIRCLE('',#890,4.);
#890 = AXIS2_PLACEMENT_3D('',#891,#892,#893);
#891 = CARTESIAN_POINT('',(250.5,13.5,88.));
#892 = DIRECTION('',(1.,0.,0.));
#893 = DIRECTION('',(-0.,0.,1.));
#894 = PCURVE('',#367,#895);
#895 = DEFINITIONAL_REPRESENTATION('',(#896),#900);
#896 = CIRCLE('',#897,4.);
#897 = AXIS2_PLACEMENT_2D('',#898,#899);
#898 = CARTESIAN_POINT('',(6.,-24.5));
#899 = DIRECTION('',(1.,0.));
#900 = ( GEOMETRIC_REPRESENTATION_CONTEXT(2) 
PARAMETRIC_REPRESENTATION_CONTEXT() REPRESENTATION_CONTEXT('2D SPACE',''
  ) );
#901 = PCURVE('',#902,#907);
#902 = CYLINDRICAL_SURFACE('',#903,4.);
#903 = AXIS2_PLACEMENT_3D('',#904,#905,#906);
#904 = CARTESIAN_POINT('',(236.9,13.5,88.));
#905 = DIRECTION('',(1.,0.,0.));
#906 = DIRECTION('',(-0.,0.,1.));
#907 = DEFINITIONAL_REPRESENTATION('',(#908),#912);
#908 = LINE('',#909,#910);
#909 = CARTESIAN_POINT('',(0.,13.6));
#910 = VECTOR('',#911,1.);
#911 = DIRECTION('',(1.,0.));
#912 = ( GEOMETRIC_REPRESENTATION_CONTEXT(2) 
PARAMETRIC_REPRESENTATION_CONTEXT() REPRESENTATION_CONTEXT('2D SPACE',''
  ) );
#913 = ORIENTED_EDGE('',*,*,#914,.T.);
#914 = EDGE_CURVE('',#886,#327,#915,.T.);
#915 = SURFACE_CURVE('',#916,(#920,#927),.PCURVE_S1.);
#916 = LINE('',#917,#918);
#917 = CARTESIAN_POINT('',(250.5,11.,82.));
#918 = VECTOR('',#919,1.);
#919 = DIRECTION('',(0.,0.,1.));
#920 = PCURVE('',#367,#921);
#921 = DEFINITIONAL_REPRESENTATION('',(#922),#926);
#922 = LINE('',#923,#924);
#923 = CARTESIAN_POINT('',(0.,-22.));
#924 = VECTOR('',#925,1.);
#925 = DIRECTION('',(1.,0.));
#926 = ( GEOMETRIC_REPRESENTATION_CONTEXT(2) 
PARAMETRIC_REPRESENTATION_CONTEXT() REPRESENTATION_CONTEXT('2D SPACE',''
  ) );
#927 = PCURVE('',#341,#928);
#928 = DEFINITIONAL_REPRESENTATION('',(#929),#933);
#929 = LINE('',#930,#931);
#930 = CARTESIAN_POINT('',(0.,43.));
#931 = VECTOR('',#932,1.);
#932 = DIRECTION('',(1.,0.));
#933 = ( GEOMETRIC_REPRESENTATION_CONTEXT(2) 
PARAMETRIC_REPRESENTATION_CONTEXT() REPRESENTATION_CONTEXT('2D SPACE',''
  ) );
#934 = ORIENTED_EDGE('',*,*,#352,.F.);
#935 = ORIENTED_EDGE('',*,*,#936,.F.);
#936 = EDGE_CURVE('',#433,#353,#937,.T.);
#937 = SURFACE_CURVE('',#938,(#943,#950),.PCURVE_S1.);
#938 = CIRCLE('',#939,6.);
#939 = AXIS2_PLACEMENT_3D('',#940,#941,#942);
#940 = CARTESIAN_POINT('',(250.5,0.,88.5));
#941 = DIRECTION('',(1.,0.,0.));
#942 = DIRECTION('',(-0.,0.,1.));
#943 = PCURVE('',#367,#944);
#944 = DEFINITIONAL_REPRESENTATION('',(#945),#949);
#945 = CIRCLE('',#946,6.);
#946 = AXIS2_PLACEMENT_2D('',#947,#948);
#947 = CARTESIAN_POINT('',(6.5,-11.));
#948 = DIRECTION('',(1.,0.));
#949 = ( GEOMETRIC_REPRESENTATION_CONTEXT(2) 
PARAMETRIC_REPRESENTATION_CONTEXT() REPRESENTATION_CONTEXT('2D SPACE',''
  ) );
#950 = PCURVE('',#393,#951);
#951 = DEFINITIONAL_REPRESENTATION('',(#952),#956);
#952 = LINE('',#953,#954);
#953 = CARTESIAN_POINT('',(0.,43.1));
#954 = VECTOR('',#955,1.);
#955 = DIRECTION('',(1.,0.));
#956 = ( GEOMETRIC_REPRESENTATION_CONTEXT(2) 
PARAMETRIC_REPRESENTATION_CONTEXT() REPRESENTATION_CONTEXT('2D SPACE',''
  ) );
#957 = ORIENTED_EDGE('',*,*,#453,.F.);
#958 = ORIENTED_EDGE('',*,*,#497,.F.);
#959 = ORIENTED_EDGE('',*,*,#611,.F.);
#960 = ADVANCED_FACE('',(#961,#988),#393,.T.);
#961 = FACE_BOUND('',#962,.T.);
#962 = EDGE_LOOP('',(#963,#964,#965,#987));
#963 = ORIENTED_EDGE('',*,*,#936,.F.);
#964 = ORIENTED_EDGE('',*,*,#432,.F.);
#965 = ORIENTED_EDGE('',*,*,#966,.T.);
#966 = EDGE_CURVE('',#405,#379,#967,.T.);
#967 = SURFACE_CURVE('',#968,(#973,#980),.PCURVE_S1.);
#968 = CIRCLE('',#969,6.);
#969 = AXIS2_PLACEMENT_3D('',#970,#971,#972);
#970 = CARTESIAN_POINT('',(237.,0.,88.5));
#971 = DIRECTION('',(1.,0.,0.));
#972 = DIRECTION('',(-0.,0.,1.));
#973 = PCURVE('',#393,#974);
#974 = DEFINITIONAL_REPRESENTATION('',(#975),#979);
#975 = LINE('',#976,#977);
#976 = CARTESIAN_POINT('',(0.,29.6));
#977 = VECTOR('',#978,1.);
#978 = DIRECTION('',(1.,0.));
#979 = ( GEOMETRIC_REPRESENTATION_CONTEXT(2) 
PARAMETRIC_REPRESENTATION_CONTEXT() REPRESENTATION_CONTEXT('2D SPACE',''
  ) );
#980 = PCURVE('',#420,#981);
#981 = DEFINITIONAL_REPRESENTATION('',(#982),#986);
#982 = CIRCLE('',#983,6.);
#983 = AXIS2_PLACEMENT_2D('',#984,#985);
#984 = CARTESIAN_POINT('',(6.5,-26.5));
#985 = DIRECTION('',(1.,0.));
#986 = ( GEOMETRIC_REPRESENTATION_CONTEXT(2) 
PARAMETRIC_REPRESENTATION_CONTEXT() REPRESENTATION_CONTEXT('2D SPACE',''
  ) );
#987 = ORIENTED_EDGE('',*,*,#378,.T.);
#988 = FACE_BOUND('',#989,.T.);
#989 = EDGE_LOOP('',(#990));
#990 = ORIENTED_EDGE('',*,*,#991,.T.);
#991 = EDGE_CURVE('',#992,#992,#994,.T.);
#992 = VERTEX_POINT('',#993);
#993 = CARTESIAN_POINT('',(249.,-9.797174393179E-16,82.5));
#994 = SURFACE_CURVE('',#995,(#1103,#1214),.PCURVE_S1.);
#995 = B_SPLINE_CURVE_WITH_KNOTS('',6,(#996,#997,#998,#999,#1000,#1001,
    #1002,#1003,#1004,#1005,#1006,#1007,#1008,#1009,#1010,#1011,#1012,
    #1013,#1014,#1015,#1016,#1017,#1018,#1019,#1020,#1021,#1022,#1023,
    #1024,#1025,#1026,#1027,#1028,#1029,#1030,#1031,#1032,#1033,#1034,
    #1035,#1036,#1037,#1038,#1039,#1040,#1041,#1042,#1043,#1044,#1045,
    #1046,#1047,#1048,#1049,#1050,#1051,#1052,#1053,#1054,#1055,#1056,
    #1057,#1058,#1059,#1060,#1061,#1062,#1063,#1064,#1065,#1066,#1067,
    #1068,#1069,#1070,#1071,#1072,#1073,#1074,#1075,#1076,#1077,#1078,
    #1079,#1080,#1081,#1082,#1083,#1084,#1085,#1086,#1087,#1088,#1089,
    #1090,#1091,#1092,#1093,#1094,#1095,#1096,#1097,#1098,#1099,#1100,
    #1101,#1102),.UNSPECIFIED.,.T.,.F.,(7,5,5,5,5,5,5,5,5,5,5,5,5,5,5,5,
    5,5,5,5,5,7),(0.,5.323338794175E-02,9.723579285431E-02,
    0.145593883122,0.199590595412,0.250100576561,0.283606626983,
    0.300832078726,0.355543589751,0.420771762846,0.467625629853,
    0.522150109019,0.578575989099,0.645639933024,0.69961291622,
    0.750100700534,0.783592026573,0.800809909868,0.855497386253,
    0.920696904762,0.967530188974,1.),.UNSPECIFIED.);
#996 = CARTESIAN_POINT('',(249.,-8.881784197001E-16,82.5));
#997 = CARTESIAN_POINT('',(249.,0.280806209908,82.5));
#998 = CARTESIAN_POINT('',(248.97634406877,0.559034267504,
    82.515770878697));
#999 = CARTESIAN_POINT('',(248.92984858006,0.830546661558,
    82.546766614311));
#1000 = CARTESIAN_POINT('',(248.86258396191,1.091336375511,
    82.591224365075));
#1001 = CARTESIAN_POINT('',(248.77787211522,1.337719704853,
    82.64622635454));
#1002 = CARTESIAN_POINT('',(248.60002667878,1.755574338643,
    82.759239559677));
#1003 = CARTESIAN_POINT('',(248.51021893745,1.934228865365,
    82.815509135671));
#1004 = CARTESIAN_POINT('',(248.41249912213,2.102631644911,
    82.87562437448));
#1005 = CARTESIAN_POINT('',(248.30800635726,2.261091434102,
    82.938476903555));
#1006 = CARTESIAN_POINT('',(248.19763291397,2.409983808194,
    83.003110042986));
#1007 = CARTESIAN_POINT('',(247.95503206573,2.703237857745,
    83.140776582197));
#1008 = CARTESIAN_POINT('',(247.82160519642,2.845834244554,
    83.214074482583));
#1009 = CARTESIAN_POINT('',(247.68261584503,2.977995262179,
    83.287509783681));
#1010 = CARTESIAN_POINT('',(247.53861945696,3.100198201602,
    83.36015687494));
#1011 = CARTESIAN_POINT('',(247.38994358464,3.212836076384,
    83.431168032007));
#1012 = CARTESIAN_POINT('',(247.06568965797,3.4315447565,83.576214074787
    ));
#1013 = CARTESIAN_POINT('',(246.88888336695,3.535394623562,83.6496864368
    ));
#1014 = CARTESIAN_POINT('',(246.70690670045,3.627796779873,
    83.718759761264));
#1015 = CARTESIAN_POINT('',(246.5202068397,3.70876191005,83.782097001235
    ));
#1016 = CARTESIAN_POINT('',(246.32910924438,3.778218292922,
    83.838379972478));
#1017 = CARTESIAN_POINT('',(245.95116432696,3.889931766564,
    83.931262604308));
#1018 = CARTESIAN_POINT('',(245.76470791488,3.933694319362,
    83.968930774918));
#1019 = CARTESIAN_POINT('',(245.57551525896,3.966752200141,
    83.998126228082));
#1020 = CARTESIAN_POINT('',(245.38447812149,3.988896236755,
    84.017932559877));
#1021 = CARTESIAN_POINT('',(245.19238735623,4.,84.027864045));
#1022 = CARTESIAN_POINT('',(244.87237887816,4.,84.027864045));
#1023 = CARTESIAN_POINT('',(244.74480414668,3.995113784529,
    84.023494072062));
#1024 = CARTESIAN_POINT('',(244.61753422833,3.985348342367,
    84.01475849432));
#1025 = CARTESIAN_POINT('',(244.49084228306,3.97073092554,84.00175746032
    ));
#1026 = CARTESIAN_POINT('',(244.36501654556,3.951318324189,
    83.984681554059));
#1027 = CARTESIAN_POINT('',(244.17627510604,3.914810074591,
    83.953074564531));
#1028 = CARTESIAN_POINT('',(244.11248837084,3.901170025511,
    83.941336675618));
#1029 = CARTESIAN_POINT('',(244.0490237947,3.886294496234,
    83.928626580381));
#1030 = CARTESIAN_POINT('',(243.98590629454,3.870192906158,
    83.914981576395));
#1031 = CARTESIAN_POINT('',(243.9231623666,3.852875592032,
    83.900442461728));
#1032 = CARTESIAN_POINT('',(243.66280842342,3.775524883848,
    83.836175197802));
#1033 = CARTESIAN_POINT('',(243.46911500945,3.704625047383,
    83.778788792596));
#1034 = CARTESIAN_POINT('',(243.27996231324,3.621890581343,
    83.714188649514));
#1035 = CARTESIAN_POINT('',(243.09568552499,3.527390502347,
    83.643750420437));
#1036 = CARTESIAN_POINT('',(242.91674933123,3.421104604899,
    83.568866341032));
#1037 = CARTESIAN_POINT('',(242.53751535269,3.162049055346,
    83.398046986161));
#1038 = CARTESIAN_POINT('',(242.33967786185,3.004240541568,
    83.300811535651));
#1039 = CARTESIAN_POINT('',(242.15050758557,2.828801047155,
    83.201278127002));
#1040 = CARTESIAN_POINT('',(241.97093076016,2.634555569013,
    83.101483526251));
#1041 = CARTESIAN_POINT('',(241.80276534671,2.420119354262,
    83.003895136917));
#1042 = CARTESIAN_POINT('',(241.53856109716,2.01478289622,
    82.845466670806));
#1043 = CARTESIAN_POINT('',(241.43519082811,1.833719112992,
    82.781804090203));
#1044 = CARTESIAN_POINT('',(241.34046569772,1.640996950784,
    82.722139469984));
#1045 = CARTESIAN_POINT('',(241.2560587573,1.436709850861,
    82.668024153081));
#1046 = CARTESIAN_POINT('',(241.18378958305,1.22113067919,
    82.621094308751));
#1047 = CARTESIAN_POINT('',(241.05802973262,0.731328400306,
    82.538748774751));
#1048 = CARTESIAN_POINT('',(241.00935467851,0.452521140394,
    82.506347027506));
#1049 = CARTESIAN_POINT('',(240.9844596982,0.164562046508,
    82.489561667243));
#1050 = CARTESIAN_POINT('',(240.98534133055,-0.125904420051,
    82.490213499693));
#1051 = CARTESIAN_POINT('',(241.01146801656,-0.412146316913,
    82.50774790074));
#1052 = CARTESIAN_POINT('',(241.10933455236,-0.972896282938,
    82.572447127106));
#1053 = CARTESIAN_POINT('',(241.18223574912,-1.244371989394,
    82.620361521814));
#1054 = CARTESIAN_POINT('',(241.27483744119,-1.50052172431,
    82.680520217293));
#1055 = CARTESIAN_POINT('',(241.3838741681,-1.740216101628,
    82.749996773263));
#1056 = CARTESIAN_POINT('',(241.50612634597,-1.962737128303,
    82.825849004739));
#1057 = CARTESIAN_POINT('',(241.79540662535,-2.411351804745,
    82.999668289854));
#1058 = CARTESIAN_POINT('',(241.9678628036,-2.632276055107,
    83.099909619357));
#1059 = CARTESIAN_POINT('',(242.15238335455,-2.831862232857,
    83.202519013184));
#1060 = CARTESIAN_POINT('',(242.34699315026,-3.011615142733,
    83.304821311679));
#1061 = CARTESIAN_POINT('',(242.55070397838,-3.172802966274,
    83.404618357808));
#1062 = CARTESIAN_POINT('',(242.93431034202,-3.4315447565,
    83.576214074787));
#1063 = CARTESIAN_POINT('',(243.11111663304,-3.535394623561,
    83.6496864368));
#1064 = CARTESIAN_POINT('',(243.29309329954,-3.627796779873,
    83.718759761265));
#1065 = CARTESIAN_POINT('',(243.47979316029,-3.70876191005,
    83.782097001234));
#1066 = CARTESIAN_POINT('',(243.67089075561,-3.778218292922,
    83.838379972478));
#1067 = CARTESIAN_POINT('',(244.04883567303,-3.889931766564,
    83.931262604308));
#1068 = CARTESIAN_POINT('',(244.23529208511,-3.933694319362,
    83.968930774918));
#1069 = CARTESIAN_POINT('',(244.42448474103,-3.966752200141,
    83.998126228082));
#1070 = CARTESIAN_POINT('',(244.6155218785,-3.988896236755,
    84.017932559877));
#1071 = CARTESIAN_POINT('',(244.80761264376,-4.,84.027864045));
#1072 = CARTESIAN_POINT('',(245.12762112184,-4.,84.027864045));
#1073 = CARTESIAN_POINT('',(245.25519585331,-3.995113784529,
    84.023494072062));
#1074 = CARTESIAN_POINT('',(245.38246577167,-3.985348342367,
    84.01475849432));
#1075 = CARTESIAN_POINT('',(245.50915771694,-3.97073092554,
    84.00175746032));
#1076 = CARTESIAN_POINT('',(245.63498345443,-3.951318324189,
    83.984681554059));
#1077 = CARTESIAN_POINT('',(245.82372489899,-3.914810073617,
    83.953074563687));
#1078 = CARTESIAN_POINT('',(245.8875116279,-3.901170026025,
    83.941336676035));
#1079 = CARTESIAN_POINT('',(245.95097620033,-3.886294497446,
    83.928626581406));
#1080 = CARTESIAN_POINT('',(246.01409370406,-3.870192906291,
    83.914981576525));
#1081 = CARTESIAN_POINT('',(246.07683763827,-3.852875590583,
    83.900442460524));
#1082 = CARTESIAN_POINT('',(246.33719157657,-3.775524883848,
    83.836175197802));
#1083 = CARTESIAN_POINT('',(246.53088499054,-3.704625047383,
    83.778788792595));
#1084 = CARTESIAN_POINT('',(246.72003768676,-3.621890581343,
    83.714188649514));
#1085 = CARTESIAN_POINT('',(246.904314475,-3.527390502346,
    83.643750420437));
#1086 = CARTESIAN_POINT('',(247.08325066876,-3.4211046049,
    83.568866341032));
#1087 = CARTESIAN_POINT('',(247.4624846473,-3.162049055346,
    83.398046986161));
#1088 = CARTESIAN_POINT('',(247.66032213814,-3.004240541568,
    83.300811535651));
#1089 = CARTESIAN_POINT('',(247.84949241442,-2.828801047155,
    83.201278127002));
#1090 = CARTESIAN_POINT('',(248.02906923983,-2.634555569014,
    83.101483526251));
#1091 = CARTESIAN_POINT('',(248.19723465329,-2.420119354261,
    83.003895136917));
#1092 = CARTESIAN_POINT('',(248.46143890283,-2.01478289622,
    82.845466670806));
#1093 = CARTESIAN_POINT('',(248.56480917188,-1.833719112992,
    82.781804090203));
#1094 = CARTESIAN_POINT('',(248.65953430228,-1.640996950784,
    82.722139469984));
#1095 = CARTESIAN_POINT('',(248.74394124269,-1.436709850861,
    82.668024153081));
#1096 = CARTESIAN_POINT('',(248.81621041694,-1.22113067919,
    82.621094308751));
#1097 = CARTESIAN_POINT('',(248.91462915109,-0.837815017569,
    82.556651299383));
#1098 = CARTESIAN_POINT('',(248.94810730933,-0.675752767729,
    82.534541588912));
#1099 = CARTESIAN_POINT('',(248.97385888354,-0.509724005982,
    82.517428506936));
#1100 = CARTESIAN_POINT('',(248.99126735286,-0.340931993011,
    82.505821153029));
#1101 = CARTESIAN_POINT('',(249.,-0.170610122452,82.5));
#1102 = CARTESIAN_POINT('',(249.,-8.881784197001E-16,82.5));
#1103 = PCURVE('',#393,#1104);
#1104 = DEFINITIONAL_REPRESENTATION('',(#1105),#1213);
#1105 = B_SPLINE_CURVE_WITH_KNOTS('',6,(#1106,#1107,#1108,#1109,#1110,
    #1111,#1112,#1113,#1114,#1115,#1116,#1117,#1118,#1119,#1120,#1121,
    #1122,#1123,#1124,#1125,#1126,#1127,#1128,#1129,#1130,#1131,#1132,
    #1133,#1134,#1135,#1136,#1137,#1138,#1139,#1140,#1141,#1142,#1143,
    #1144,#1145,#1146,#1147,#1148,#1149,#1150,#1151,#1152,#1153,#1154,
    #1155,#1156,#1157,#1158,#1159,#1160,#1161,#1162,#1163,#1164,#1165,
    #1166,#1167,#1168,#1169,#1170,#1171,#1172,#1173,#1174,#1175,#1176,
    #1177,#1178,#1179,#1180,#1181,#1182,#1183,#1184,#1185,#1186,#1187,
    #1188,#1189,#1190,#1191,#1192,#1193,#1194,#1195,#1196,#1197,#1198,
    #1199,#1200,#1201,#1202,#1203,#1204,#1205,#1206,#1207,#1208,#1209,
    #1210,#1211,#1212),.UNSPECIFIED.,.T.,.F.,(7,5,5,5,5,5,5,5,5,5,5,5,5,
    5,5,5,5,5,5,5,5,7),(0.,5.323338794175E-02,9.723579285431E-02,
    0.145593883122,0.199590595412,0.250100576561,0.283606626983,
    0.300832078726,0.355543589751,0.420771762846,0.467625629853,
    0.522150109019,0.578575989099,0.645639933024,0.69961291622,
    0.750100700534,0.783592026573,0.800809909868,0.855497386253,
    0.920696904762,0.967530188974,1.),.UNSPECIFIED.);
#1106 = CARTESIAN_POINT('',(3.14159265359,41.6));
#1107 = CARTESIAN_POINT('',(3.188393688575,41.6));
#1108 = CARTESIAN_POINT('',(3.2347651108,41.576344068773));
#1109 = CARTESIAN_POINT('',(3.280201314966,41.529848580064));
#1110 = CARTESIAN_POINT('',(3.324203857363,41.462583961914));
#1111 = CARTESIAN_POINT('',(3.366236919588,41.37787211522));
#1112 = CARTESIAN_POINT('',(3.438381542764,41.200026678784));
#1113 = CARTESIAN_POINT('',(3.469573130064,41.110218937452));
#1114 = CARTESIAN_POINT('',(3.499345091923,41.012499122138));
#1115 = CARTESIAN_POINT('',(3.527734145582,40.908006357266));
#1116 = CARTESIAN_POINT('',(3.554775053139,40.797632913972));
#1117 = CARTESIAN_POINT('',(3.608768368979,40.555032065736));
#1118 = CARTESIAN_POINT('',(3.635473229736,40.421605196428));
#1119 = CARTESIAN_POINT('',(3.66065373805,40.282615845031));
#1120 = CARTESIAN_POINT('',(3.684335451566,40.138619456966));
#1121 = CARTESIAN_POINT('',(3.706521714147,39.989943584648));
#1122 = CARTESIAN_POINT('',(3.750260789381,39.665689657978));
#1123 = CARTESIAN_POINT('',(3.771453221925,39.488883366953));
#1124 = CARTESIAN_POINT('',(3.79067247556,39.306906700459));
#1125 = CARTESIAN_POINT('',(3.807801021141,39.120206839709));
#1126 = CARTESIAN_POINT('',(3.822699467163,38.929109244384));
#1127 = CARTESIAN_POINT('',(3.846913262295,38.551164326967));
#1128 = CARTESIAN_POINT('',(3.856535384632,38.364707914886));
#1129 = CARTESIAN_POINT('',(3.863885816907,38.175515258964));
#1130 = CARTESIAN_POINT('',(3.868837448914,37.984478121496));
#1131 = CARTESIAN_POINT('',(3.871320309817,37.792387356231));
#1132 = CARTESIAN_POINT('',(3.871320309817,37.47237887816));
#1133 = CARTESIAN_POINT('',(3.870227770798,37.344804146687));
#1134 = CARTESIAN_POINT('',(3.868044004202,37.21753422833));
#1135 = CARTESIAN_POINT('',(3.864783610794,37.09084228306));
#1136 = CARTESIAN_POINT('',(3.860474716123,36.965016545564));
#1137 = CARTESIAN_POINT('',(3.85242650363,36.776275106041));
#1138 = CARTESIAN_POINT('',(3.849427304782,36.712488370841));
#1139 = CARTESIAN_POINT('',(3.84616634311,36.649023794705));
#1140 = CARTESIAN_POINT('',(3.842648793668,36.585906294542));
#1141 = CARTESIAN_POINT('',(3.838880272911,36.523162366602));
#1142 = CARTESIAN_POINT('',(3.822119361649,36.262808423427));
#1143 = CARTESIAN_POINT('',(3.806918284362,36.069115009454));
#1144 = CARTESIAN_POINT('',(3.789428034987,35.87996231324));
#1145 = CARTESIAN_POINT('',(3.769793060309,35.695685524999));
#1146 = CARTESIAN_POINT('',(3.748133917649,35.516749331238));
#1147 = CARTESIAN_POINT('',(3.696416461497,35.137515352697));
#1148 = CARTESIAN_POINT('',(3.665537729085,34.939677861854));
#1149 = CARTESIAN_POINT('',(3.631955040451,34.750507585575));
#1150 = CARTESIAN_POINT('',(3.595612068638,34.570930760163));
#1151 = CARTESIAN_POINT('',(3.556403985703,34.40276534671));
#1152 = CARTESIAN_POINT('',(3.483871000277,34.138561097162));
#1153 = CARTESIAN_POINT('',(3.45190171168,34.035190828119));
#1154 = CARTESIAN_POINT('',(3.418315203024,33.94046569772));
#1155 = CARTESIAN_POINT('',(3.38314234953,33.856058757307));
#1156 = CARTESIAN_POINT('',(3.346412993046,33.783789583053));
#1157 = CARTESIAN_POINT('',(3.263633657969,33.658029732627));
#1158 = CARTESIAN_POINT('',(3.216913308192,33.60935467851));
#1159 = CARTESIAN_POINT('',(3.168962801365,33.584459698204));
#1160 = CARTESIAN_POINT('',(3.120681605241,33.585341330555));
#1161 = CARTESIAN_POINT('',(3.072953834439,33.611468016564));
#1162 = CARTESIAN_POINT('',(2.978875481413,33.709334552369));
#1163 = CARTESIAN_POINT('',(2.933012404794,33.782235749126));
#1164 = CARTESIAN_POINT('',(2.889255766379,33.874837441191));
#1165 = CARTESIAN_POINT('',(2.847733028353,33.983874168102));
#1166 = CARTESIAN_POINT('',(2.808583833577,34.106126345974));
#1167 = CARTESIAN_POINT('',(2.728398584206,34.395406625353));
#1168 = CARTESIAN_POINT('',(2.688028931869,34.567862803603));
#1169 = CARTESIAN_POINT('',(2.650684349518,34.752383354552));
#1170 = CARTESIAN_POINT('',(2.616251187104,34.946993150263));
#1171 = CARTESIAN_POINT('',(2.584669728016,35.150703978388));
#1172 = CARTESIAN_POINT('',(2.532924517799,35.534310342021));
#1173 = CARTESIAN_POINT('',(2.511732085254,35.711116633046));
#1174 = CARTESIAN_POINT('',(2.492512831619,35.893093299542));
#1175 = CARTESIAN_POINT('',(2.475384286039,36.07979316029));
#1176 = CARTESIAN_POINT('',(2.460485840016,36.270890755616));
#1177 = CARTESIAN_POINT('',(2.436272044884,36.648835673034));
#1178 = CARTESIAN_POINT('',(2.426649922548,36.835292085113));
#1179 = CARTESIAN_POINT('',(2.419299490273,37.024484741036));
#1180 = CARTESIAN_POINT('',(2.414347858265,37.215521878504));
#1181 = CARTESIAN_POINT('',(2.411864997363,37.407612643769));
#1182 = CARTESIAN_POINT('',(2.411864997363,37.727621121841));
#1183 = CARTESIAN_POINT('',(2.412957536382,37.855195853313));
#1184 = CARTESIAN_POINT('',(2.415141302977,37.98246577167));
#1185 = CARTESIAN_POINT('',(2.418401696386,38.10915771694));
#1186 = CARTESIAN_POINT('',(2.422710591057,38.234983454436));
#1187 = CARTESIAN_POINT('',(2.430758803764,38.423724898997));
#1188 = CARTESIAN_POINT('',(2.433758002287,38.4875116279));
#1189 = CARTESIAN_POINT('',(2.437018963805,38.550976200334));
#1190 = CARTESIAN_POINT('',(2.44053651348,38.614093704068));
#1191 = CARTESIAN_POINT('',(2.444305034582,38.676837638273));
#1192 = CARTESIAN_POINT('',(2.461065945531,38.937191576573));
#1193 = CARTESIAN_POINT('',(2.476267022817,39.130884990547));
#1194 = CARTESIAN_POINT('',(2.493757272192,39.32003768676));
#1195 = CARTESIAN_POINT('',(2.51339224687,39.504314475002));
#1196 = CARTESIAN_POINT('',(2.53505138953,39.683250668762));
#1197 = CARTESIAN_POINT('',(2.586768845683,40.062484647304));
#1198 = CARTESIAN_POINT('',(2.617647578094,40.260322138145));
#1199 = CARTESIAN_POINT('',(2.651230266728,40.449492414425));
#1200 = CARTESIAN_POINT('',(2.687573238542,40.629069239836));
#1201 = CARTESIAN_POINT('',(2.726781321477,40.797234653291));
#1202 = CARTESIAN_POINT('',(2.799314306903,41.061438902838));
#1203 = CARTESIAN_POINT('',(2.831283595499,41.164809171881));
#1204 = CARTESIAN_POINT('',(2.864870104155,41.25953430228));
#1205 = CARTESIAN_POINT('',(2.90004295765,41.343941242693));
#1206 = CARTESIAN_POINT('',(2.936772314134,41.416210416947));
#1207 = CARTESIAN_POINT('',(3.001554813035,41.514629151097));
#1208 = CARTESIAN_POINT('',(3.028802357755,41.548107309338));
#1209 = CARTESIAN_POINT('',(3.056597204288,41.573858883547));
#1210 = CARTESIAN_POINT('',(3.0847706958,41.591267352862));
#1211 = CARTESIAN_POINT('',(3.113157633181,41.6));
#1212 = CARTESIAN_POINT('',(3.14159265359,41.6));
#1213 = ( GEOMETRIC_REPRESENTATION_CONTEXT(2) 
PARAMETRIC_REPRESENTATION_CONTEXT() REPRESENTATION_CONTEXT('2D SPACE',''
  ) );
#1214 = PCURVE('',#1215,#1220);
#1215 = CYLINDRICAL_SURFACE('',#1216,4.);
#1216 = AXIS2_PLACEMENT_3D('',#1217,#1218,#1219);
#1217 = CARTESIAN_POINT('',(245.,0.,74.9));
#1218 = DIRECTION('',(0.,0.,1.));
#1219 = DIRECTION('',(1.,0.,-0.));
#1220 = DEFINITIONAL_REPRESENTATION('',(#1221),#1329);
#1221 = B_SPLINE_CURVE_WITH_KNOTS('',6,(#1222,#1223,#1224,#1225,#1226,
    #1227,#1228,#1229,#1230,#1231,#1232,#1233,#1234,#1235,#1236,#1237,
    #1238,#1239,#1240,#1241,#1242,#1243,#1244,#1245,#1246,#1247,#1248,
    #1249,#1250,#1251,#1252,#1253,#1254,#1255,#1256,#1257,#1258,#1259,
    #1260,#1261,#1262,#1263,#1264,#1265,#1266,#1267,#1268,#1269,#1270,
    #1271,#1272,#1273,#1274,#1275,#1276,#1277,#1278,#1279,#1280,#1281,
    #1282,#1283,#1284,#1285,#1286,#1287,#1288,#1289,#1290,#1291,#1292,
    #1293,#1294,#1295,#1296,#1297,#1298,#1299,#1300,#1301,#1302,#1303,
    #1304,#1305,#1306,#1307,#1308,#1309,#1310,#1311,#1312,#1313,#1314,
    #1315,#1316,#1317,#1318,#1319,#1320,#1321,#1322,#1323,#1324,#1325,
    #1326,#1327,#1328),.UNSPECIFIED.,.F.,.F.,(7,5,5,5,5,5,5,5,5,5,5,5,5,
    5,5,5,5,5,5,5,5,7),(0.,5.323338794175E-02,9.723579285431E-02,
    0.145593883122,0.199590595412,0.250100576561,0.283606626983,
    0.300832078726,0.355543589751,0.420771762846,0.467625629853,
    0.522150109019,0.578575989099,0.645639933024,0.69961291622,
    0.750100700534,0.783592026573,0.800809909868,0.855497386253,
    0.920696904762,0.967530188974,1.),.UNSPECIFIED.);
#1222 = CARTESIAN_POINT('',(0.,7.6));
#1223 = CARTESIAN_POINT('',(7.020155247711E-02,7.6));
#1224 = CARTESIAN_POINT('',(0.139758536343,7.615770878697));
#1225 = CARTESIAN_POINT('',(0.208259574707,7.646766614311));
#1226 = CARTESIAN_POINT('',(0.275267336854,7.691224365075));
#1227 = CARTESIAN_POINT('',(0.340237010599,7.74622635454));
#1228 = CARTESIAN_POINT('',(0.453768805221,7.859239559677));
#1229 = CARTESIAN_POINT('',(0.503657851718,7.915509135671));
#1230 = CARTESIAN_POINT('',(0.552206605876,7.97562437448));
#1231 = CARTESIAN_POINT('',(0.599550128949,8.038476903555));
#1232 = CARTESIAN_POINT('',(0.645819511118,8.103110042986));
#1233 = CARTESIAN_POINT('',(0.740968443437,8.240776582197));
#1234 = CARTESIAN_POINT('',(0.789699074537,8.314074482583));
#1235 = CARTESIAN_POINT('',(0.837527897481,8.387509783681));
#1236 = CARTESIAN_POINT('',(0.884634004093,8.46015687494));
#1237 = CARTESIAN_POINT('',(0.931194907608,8.531168032007));
#1238 = CARTESIAN_POINT('',(1.028974665137,8.676214074787));
#1239 = CARTESIAN_POINT('',(1.080137502146,8.7496864368));
#1240 = CARTESIAN_POINT('',(1.131018524364,8.818759761264));
#1241 = CARTESIAN_POINT('',(1.181754010784,8.882097001235));
#1242 = CARTESIAN_POINT('',(1.232490941029,8.938379972478));
#1243 = CARTESIAN_POINT('',(1.331018304232,9.031262604308));
#1244 = CARTESIAN_POINT('',(1.378821689324,9.068930774918));
#1245 = CARTESIAN_POINT('',(1.426717087653,9.098126228082));
#1246 = CARTESIAN_POINT('',(1.47467683633,9.117932559877));
#1247 = CARTESIAN_POINT('',(1.522699487737,9.127864045));
#1248 = CARTESIAN_POINT('',(1.602701607255,9.127864045));
#1249 = CARTESIAN_POINT('',(1.634595311211,9.123494072062));
#1250 = CARTESIAN_POINT('',(1.666471193637,9.11475849432));
#1251 = CARTESIAN_POINT('',(1.698319398821,9.10175746032));
#1252 = CARTESIAN_POINT('',(1.730125016088,9.084681554059));
#1253 = CARTESIAN_POINT('',(1.778184993773,9.053074564531));
#1254 = CARTESIAN_POINT('',(1.794489067256,9.041336675618));
#1255 = CARTESIAN_POINT('',(1.810780544928,9.028626580381));
#1256 = CARTESIAN_POINT('',(1.827060620868,9.014981576395));
#1257 = CARTESIAN_POINT('',(1.843329994282,9.000442461728));
#1258 = CARTESIAN_POINT('',(1.911230338438,8.936175197802));
#1259 = CARTESIAN_POINT('',(1.962696411351,8.878788792596));
#1260 = CARTESIAN_POINT('',(2.014164665911,8.814188649514));
#1261 = CARTESIAN_POINT('',(2.065789969628,8.743750420437));
#1262 = CARTESIAN_POINT('',(2.117716315181,8.668866341032));
#1263 = CARTESIAN_POINT('',(2.232533612505,8.498046986161));
#1264 = CARTESIAN_POINT('',(2.295627382503,8.400811535651));
#1265 = CARTESIAN_POINT('',(2.359855699557,8.301278127002));
#1266 = CARTESIAN_POINT('',(2.425679888157,8.201483526251));
#1267 = CARTESIAN_POINT('',(2.493547879693,8.103895136917));
#1268 = CARTESIAN_POINT('',(2.614507978924,7.945466670806));
#1269 = CARTESIAN_POINT('',(2.666540635476,7.881804090203));
#1270 = CARTESIAN_POINT('',(2.720068707732,7.822139469984));
#1271 = CARTESIAN_POINT('',(2.775141692623,7.768024153081));
#1272 = CARTESIAN_POINT('',(2.831836822449,7.721094308751));
#1273 = CARTESIAN_POINT('',(2.958259183105,7.638748774751));
#1274 = CARTESIAN_POINT('',(3.028797364391,7.606347027506));
#1275 = CARTESIAN_POINT('',(3.1006393527,7.589561667243));
#1276 = CARTESIAN_POINT('',(3.172828559525,7.590213499693));
#1277 = CARTESIAN_POINT('',(3.244446365833,7.60774790074));
#1278 = CARTESIAN_POINT('',(3.386752897488,7.672447127106));
#1279 = CARTESIAN_POINT('',(3.456744731139,7.720361521814));
#1280 = CARTESIAN_POINT('',(3.524490837181,7.780520217293));
#1281 = CARTESIAN_POINT('',(3.590032374693,7.849996773263));
#1282 = CARTESIAN_POINT('',(3.653348455471,7.925849004739));
#1283 = CARTESIAN_POINT('',(3.786797464449,8.099668289854));
#1284 = CARTESIAN_POINT('',(3.85657992432,8.199909619357));
#1285 = CARTESIAN_POINT('',(3.924197774061,8.302519013184));
#1286 = CARTESIAN_POINT('',(3.990134786361,8.404821311679));
#1287 = CARTESIAN_POINT('',(4.054889653361,8.504618357808));
#1288 = CARTESIAN_POINT('',(4.170567318726,8.676214074787));
#1289 = CARTESIAN_POINT('',(4.221730155736,8.7496864368));
#1290 = CARTESIAN_POINT('',(4.272611177954,8.818759761265));
#1291 = CARTESIAN_POINT('',(4.323346664374,8.882097001234));
#1292 = CARTESIAN_POINT('',(4.374083594619,8.938379972478));
#1293 = CARTESIAN_POINT('',(4.472610957822,9.031262604308));
#1294 = CARTESIAN_POINT('',(4.520414342914,9.068930774918));
#1295 = CARTESIAN_POINT('',(4.568309741242,9.098126228082));
#1296 = CARTESIAN_POINT('',(4.61626948992,9.117932559877));
#1297 = CARTESIAN_POINT('',(4.664292141327,9.127864045));
#1298 = CARTESIAN_POINT('',(4.744294260845,9.127864045));
#1299 = CARTESIAN_POINT('',(4.7761879648,9.123494072062));
#1300 = CARTESIAN_POINT('',(4.808063847227,9.11475849432));
#1301 = CARTESIAN_POINT('',(4.839912052411,9.10175746032));
#1302 = CARTESIAN_POINT('',(4.871717669678,9.084681554059));
#1303 = CARTESIAN_POINT('',(4.919777648646,9.053074563687));
#1304 = CARTESIAN_POINT('',(4.936081720509,9.041336676035));
#1305 = CARTESIAN_POINT('',(4.95237319724,9.028626581406));
#1306 = CARTESIAN_POINT('',(4.968653274112,9.014981576525));
#1307 = CARTESIAN_POINT('',(4.984922649143,9.000442460524));
#1308 = CARTESIAN_POINT('',(5.052822992027,8.936175197802));
#1309 = CARTESIAN_POINT('',(5.104289064941,8.878788792595));
#1310 = CARTESIAN_POINT('',(5.1557573195,8.814188649514));
#1311 = CARTESIAN_POINT('',(5.207382623218,8.743750420437));
#1312 = CARTESIAN_POINT('',(5.259308968771,8.668866341032));
#1313 = CARTESIAN_POINT('',(5.374126266095,8.498046986161));
#1314 = CARTESIAN_POINT('',(5.437220036093,8.400811535651));
#1315 = CARTESIAN_POINT('',(5.501448353147,8.301278127002));
#1316 = CARTESIAN_POINT('',(5.567272541746,8.201483526251));
#1317 = CARTESIAN_POINT('',(5.635140533283,8.103895136917));
#1318 = CARTESIAN_POINT('',(5.756100632514,7.945466670806));
#1319 = CARTESIAN_POINT('',(5.808133289066,7.881804090203));
#1320 = CARTESIAN_POINT('',(5.861661361322,7.822139469984));
#1321 = CARTESIAN_POINT('',(5.916734346213,7.768024153081));
#1322 = CARTESIAN_POINT('',(5.973429476039,7.721094308751));
#1323 = CARTESIAN_POINT('',(6.072366685823,7.656651299383));
#1324 = CARTESIAN_POINT('',(6.113690802027,7.634541588912));
#1325 = CARTESIAN_POINT('',(6.155614647429,7.617428506936));
#1326 = CARTESIAN_POINT('',(6.197952299363,7.605821153029));
#1327 = CARTESIAN_POINT('',(6.240532776567,7.6));
#1328 = CARTESIAN_POINT('',(6.28318530718,7.6));
#1329 = ( GEOMETRIC_REPRESENTATION_CONTEXT(2) 
PARAMETRIC_REPRESENTATION_CONTEXT() REPRESENTATION_CONTEXT('2D SPACE',''
  ) );
#1330 = ADVANCED_FACE('',(#1331),#420,.F.);
#1331 = FACE_BOUND('',#1332,.F.);
#1332 = EDGE_LOOP('',(#1333,#1334));
#1333 = ORIENTED_EDGE('',*,*,#404,.F.);
#1334 = ORIENTED_EDGE('',*,*,#966,.T.);
#1335 = ADVANCED_FACE('',(#1336),#341,.F.);
#1336 = FACE_BOUND('',#1337,.F.);
#1337 = EDGE_LOOP('',(#1338,#1339,#1340,#1361));
#1338 = ORIENTED_EDGE('',*,*,#326,.F.);
#1339 = ORIENTED_EDGE('',*,*,#914,.F.);
#1340 = ORIENTED_EDGE('',*,*,#1341,.F.);
#1341 = EDGE_CURVE('',#1342,#886,#1344,.T.);
#1342 = VERTEX_POINT('',#1343);
#1343 = CARTESIAN_POINT('',(237.,11.,91.122498999199));
#1344 = SURFACE_CURVE('',#1345,(#1349,#1355),.PCURVE_S1.);
#1345 = LINE('',#1346,#1347);
#1346 = CARTESIAN_POINT('',(236.9,11.,91.122498999199));
#1347 = VECTOR('',#1348,1.);
#1348 = DIRECTION('',(1.,0.,0.));
#1349 = PCURVE('',#341,#1350);
#1350 = DEFINITIONAL_REPRESENTATION('',(#1351),#1354);
#1351 = B_SPLINE_CURVE_WITH_KNOTS('',1,(#1352,#1353),.UNSPECIFIED.,.F.,
  .F.,(2,2),(9.99994E-02,17.9),.PIECEWISE_BEZIER_KNOTS.);
#1352 = CARTESIAN_POINT('',(9.122498999199,29.4999994));
#1353 = CARTESIAN_POINT('',(9.122498999199,47.3));
#1354 = ( GEOMETRIC_REPRESENTATION_CONTEXT(2) 
PARAMETRIC_REPRESENTATION_CONTEXT() REPRESENTATION_CONTEXT('2D SPACE',''
  ) );
#1355 = PCURVE('',#902,#1356);
#1356 = DEFINITIONAL_REPRESENTATION('',(#1357),#1360);
#1357 = B_SPLINE_CURVE_WITH_KNOTS('',1,(#1358,#1359),.UNSPECIFIED.,.F.,
  .F.,(2,2),(9.99994E-02,17.9),.PIECEWISE_BEZIER_KNOTS.);
#1358 = CARTESIAN_POINT('',(0.675131532937,9.99994E-02));
#1359 = CARTESIAN_POINT('',(0.675131532937,17.9));
#1360 = ( GEOMETRIC_REPRESENTATION_CONTEXT(2) 
PARAMETRIC_REPRESENTATION_CONTEXT() REPRESENTATION_CONTEXT('2D SPACE',''
  ) );
#1361 = ORIENTED_EDGE('',*,*,#1362,.T.);
#1362 = EDGE_CURVE('',#1342,#299,#1363,.T.);
#1363 = SURFACE_CURVE('',#1364,(#1368,#1374),.PCURVE_S1.);
#1364 = LINE('',#1365,#1366);
#1365 = CARTESIAN_POINT('',(237.,11.,82.));
#1366 = VECTOR('',#1367,1.);
#1367 = DIRECTION('',(0.,0.,1.));
#1368 = PCURVE('',#341,#1369);
#1369 = DEFINITIONAL_REPRESENTATION('',(#1370),#1373);
#1370 = B_SPLINE_CURVE_WITH_KNOTS('',1,(#1371,#1372),.UNSPECIFIED.,.F.,
  .F.,(2,2),(0.,12.),.PIECEWISE_BEZIER_KNOTS.);
#1371 = CARTESIAN_POINT('',(0.,29.5));
#1372 = CARTESIAN_POINT('',(12.,29.5));
#1373 = ( GEOMETRIC_REPRESENTATION_CONTEXT(2) 
PARAMETRIC_REPRESENTATION_CONTEXT() REPRESENTATION_CONTEXT('2D SPACE',''
  ) );
#1374 = PCURVE('',#314,#1375);
#1375 = DEFINITIONAL_REPRESENTATION('',(#1376),#1379);
#1376 = B_SPLINE_CURVE_WITH_KNOTS('',1,(#1377,#1378),.UNSPECIFIED.,.F.,
  .F.,(2,2),(0.,12.),.PIECEWISE_BEZIER_KNOTS.);
#1377 = CARTESIAN_POINT('',(0.,-37.5));
#1378 = CARTESIAN_POINT('',(12.,-37.5));
#1379 = ( GEOMETRIC_REPRESENTATION_CONTEXT(2) 
PARAMETRIC_REPRESENTATION_CONTEXT() REPRESENTATION_CONTEXT('2D SPACE',''
  ) );
#1380 = ADVANCED_FACE('',(#1381),#314,.F.);
#1381 = FACE_BOUND('',#1382,.F.);
#1382 = EDGE_LOOP('',(#1383,#1404,#1405,#1426,#1427,#1428,#1452));
#1383 = ORIENTED_EDGE('',*,*,#1384,.F.);
#1384 = EDGE_CURVE('',#758,#1385,#1387,.T.);
#1385 = VERTEX_POINT('',#1386);
#1386 = CARTESIAN_POINT('',(237.,11.,84.877501000801));
#1387 = SURFACE_CURVE('',#1388,(#1392,#1398),.PCURVE_S1.);
#1388 = LINE('',#1389,#1390);
#1389 = CARTESIAN_POINT('',(237.,11.,82.));
#1390 = VECTOR('',#1391,1.);
#1391 = DIRECTION('',(0.,0.,1.));
#1392 = PCURVE('',#314,#1393);
#1393 = DEFINITIONAL_REPRESENTATION('',(#1394),#1397);
#1394 = B_SPLINE_CURVE_WITH_KNOTS('',1,(#1395,#1396),.UNSPECIFIED.,.F.,
  .F.,(2,2),(0.,12.),.PIECEWISE_BEZIER_KNOTS.);
#1395 = CARTESIAN_POINT('',(0.,-37.5));
#1396 = CARTESIAN_POINT('',(12.,-37.5));
#1397 = ( GEOMETRIC_REPRESENTATION_CONTEXT(2) 
PARAMETRIC_REPRESENTATION_CONTEXT() REPRESENTATION_CONTEXT('2D SPACE',''
  ) );
#1398 = PCURVE('',#796,#1399);
#1399 = DEFINITIONAL_REPRESENTATION('',(#1400),#1403);
#1400 = B_SPLINE_CURVE_WITH_KNOTS('',1,(#1401,#1402),.UNSPECIFIED.,.F.,
  .F.,(2,2),(0.,12.),.PIECEWISE_BEZIER_KNOTS.);
#1401 = CARTESIAN_POINT('',(0.,29.5));
#1402 = CARTESIAN_POINT('',(12.,29.5));
#1403 = ( GEOMETRIC_REPRESENTATION_CONTEXT(2) 
PARAMETRIC_REPRESENTATION_CONTEXT() REPRESENTATION_CONTEXT('2D SPACE',''
  ) );
#1404 = ORIENTED_EDGE('',*,*,#757,.T.);
#1405 = ORIENTED_EDGE('',*,*,#1406,.T.);
#1406 = EDGE_CURVE('',#735,#271,#1407,.T.);
#1407 = SURFACE_CURVE('',#1408,(#1412,#1419),.PCURVE_S1.);
#1408 = LINE('',#1409,#1410);
#1409 = CARTESIAN_POINT('',(237.,26.5,82.));
#1410 = VECTOR('',#1411,1.);
#1411 = DIRECTION('',(0.,0.,1.));
#1412 = PCURVE('',#314,#1413);
#1413 = DEFINITIONAL_REPRESENTATION('',(#1414),#1418);
#1414 = LINE('',#1415,#1416);
#1415 = CARTESIAN_POINT('',(0.,-53.));
#1416 = VECTOR('',#1417,1.);
#1417 = DIRECTION('',(1.,0.));
#1418 = ( GEOMETRIC_REPRESENTATION_CONTEXT(2) 
PARAMETRIC_REPRESENTATION_CONTEXT() REPRESENTATION_CONTEXT('2D SPACE',''
  ) );
#1419 = PCURVE('',#286,#1420);
#1420 = DEFINITIONAL_REPRESENTATION('',(#1421),#1425);
#1421 = LINE('',#1422,#1423);
#1422 = CARTESIAN_POINT('',(0.,0.));
#1423 = VECTOR('',#1424,1.);
#1424 = DIRECTION('',(1.,0.));
#1425 = ( GEOMETRIC_REPRESENTATION_CONTEXT(2) 
PARAMETRIC_REPRESENTATION_CONTEXT() REPRESENTATION_CONTEXT('2D SPACE',''
  ) );
#1426 = ORIENTED_EDGE('',*,*,#298,.F.);
#1427 = ORIENTED_EDGE('',*,*,#1362,.F.);
#1428 = ORIENTED_EDGE('',*,*,#1429,.F.);
#1429 = EDGE_CURVE('',#1430,#1342,#1432,.T.);
#1430 = VERTEX_POINT('',#1431);
#1431 = CARTESIAN_POINT('',(237.,13.5,92.));
#1432 = SURFACE_CURVE('',#1433,(#1438,#1445),.PCURVE_S1.);
#1433 = CIRCLE('',#1434,4.);
#1434 = AXIS2_PLACEMENT_3D('',#1435,#1436,#1437);
#1435 = CARTESIAN_POINT('',(237.,13.5,88.));
#1436 = DIRECTION('',(1.,0.,0.));
#1437 = DIRECTION('',(-0.,0.,1.));
#1438 = PCURVE('',#314,#1439);
#1439 = DEFINITIONAL_REPRESENTATION('',(#1440),#1444);
#1440 = CIRCLE('',#1441,4.);
#1441 = AXIS2_PLACEMENT_2D('',#1442,#1443);
#1442 = CARTESIAN_POINT('',(6.,-40.));
#1443 = DIRECTION('',(1.,0.));
#1444 = ( GEOMETRIC_REPRESENTATION_CONTEXT(2) 
PARAMETRIC_REPRESENTATION_CONTEXT() REPRESENTATION_CONTEXT('2D SPACE',''
  ) );
#1445 = PCURVE('',#902,#1446);
#1446 = DEFINITIONAL_REPRESENTATION('',(#1447),#1451);
#1447 = LINE('',#1448,#1449);
#1448 = CARTESIAN_POINT('',(0.,9.999999999999E-02));
#1449 = VECTOR('',#1450,1.);
#1450 = DIRECTION('',(1.,0.));
#1451 = ( GEOMETRIC_REPRESENTATION_CONTEXT(2) 
PARAMETRIC_REPRESENTATION_CONTEXT() REPRESENTATION_CONTEXT('2D SPACE',''
  ) );
#1452 = ORIENTED_EDGE('',*,*,#1453,.F.);
#1453 = EDGE_CURVE('',#1385,#1430,#1454,.T.);
#1454 = SURFACE_CURVE('',#1455,(#1460,#1467),.PCURVE_S1.);
#1455 = CIRCLE('',#1456,4.);
#1456 = AXIS2_PLACEMENT_3D('',#1457,#1458,#1459);
#1457 = CARTESIAN_POINT('',(237.,13.5,88.));
#1458 = DIRECTION('',(1.,0.,0.));
#1459 = DIRECTION('',(-0.,0.,1.));
#1460 = PCURVE('',#314,#1461);
#1461 = DEFINITIONAL_REPRESENTATION('',(#1462),#1466);
#1462 = CIRCLE('',#1463,4.);
#1463 = AXIS2_PLACEMENT_2D('',#1464,#1465);
#1464 = CARTESIAN_POINT('',(6.,-40.));
#1465 = DIRECTION('',(1.,0.));
#1466 = ( GEOMETRIC_REPRESENTATION_CONTEXT(2) 
PARAMETRIC_REPRESENTATION_CONTEXT() REPRESENTATION_CONTEXT('2D SPACE',''
  ) );
#1467 = PCURVE('',#902,#1468);
#1468 = DEFINITIONAL_REPRESENTATION('',(#1469),#1473);
#1469 = LINE('',#1470,#1471);
#1470 = CARTESIAN_POINT('',(0.,9.999999999999E-02));
#1471 = VECTOR('',#1472,1.);
#1472 = DIRECTION('',(1.,0.));
#1473 = ( GEOMETRIC_REPRESENTATION_CONTEXT(2) 
PARAMETRIC_REPRESENTATION_CONTEXT() REPRESENTATION_CONTEXT('2D SPACE',''
  ) );
#1474 = ADVANCED_FACE('',(#1475),#286,.T.);
#1475 = FACE_BOUND('',#1476,.T.);
#1476 = EDGE_LOOP('',(#1477,#1478,#1479,#1480));
#1477 = ORIENTED_EDGE('',*,*,#734,.F.);
#1478 = ORIENTED_EDGE('',*,*,#1406,.T.);
#1479 = ORIENTED_EDGE('',*,*,#270,.T.);
#1480 = ORIENTED_EDGE('',*,*,#1481,.F.);
#1481 = EDGE_CURVE('',#712,#243,#1482,.T.);
#1482 = SURFACE_CURVE('',#1483,(#1487,#1494),.PCURVE_S1.);
#1483 = LINE('',#1484,#1485);
#1484 = CARTESIAN_POINT('',(283.,26.5,82.));
#1485 = VECTOR('',#1486,1.);
#1486 = DIRECTION('',(0.,0.,1.));
#1487 = PCURVE('',#286,#1488);
#1488 = DEFINITIONAL_REPRESENTATION('',(#1489),#1493);
#1489 = LINE('',#1490,#1491);
#1490 = CARTESIAN_POINT('',(0.,46.));
#1491 = VECTOR('',#1492,1.);
#1492 = DIRECTION('',(1.,0.));
#1493 = ( GEOMETRIC_REPRESENTATION_CONTEXT(2) 
PARAMETRIC_REPRESENTATION_CONTEXT() REPRESENTATION_CONTEXT('2D SPACE',''
  ) );
#1494 = PCURVE('',#258,#1495);
#1495 = DEFINITIONAL_REPRESENTATION('',(#1496),#1500);
#1496 = LINE('',#1497,#1498);
#1497 = CARTESIAN_POINT('',(0.,-53.));
#1498 = VECTOR('',#1499,1.);
#1499 = DIRECTION('',(1.,0.));
#1500 = ( GEOMETRIC_REPRESENTATION_CONTEXT(2) 
PARAMETRIC_REPRESENTATION_CONTEXT() REPRESENTATION_CONTEXT('2D SPACE',''
  ) );
#1501 = ADVANCED_FACE('',(#1502,#1508,#1534),#258,.T.);
#1502 = FACE_BOUND('',#1503,.T.);
#1503 = EDGE_LOOP('',(#1504,#1505,#1506,#1507));
#1504 = ORIENTED_EDGE('',*,*,#836,.F.);
#1505 = ORIENTED_EDGE('',*,*,#711,.T.);
#1506 = ORIENTED_EDGE('',*,*,#1481,.T.);
#1507 = ORIENTED_EDGE('',*,*,#242,.F.);
#1508 = FACE_BOUND('',#1509,.T.);
#1509 = EDGE_LOOP('',(#1510));
#1510 = ORIENTED_EDGE('',*,*,#1511,.F.);
#1511 = EDGE_CURVE('',#1512,#1512,#1514,.T.);
#1512 = VERTEX_POINT('',#1513);
#1513 = CARTESIAN_POINT('',(283.,13.5,92.));
#1514 = SURFACE_CURVE('',#1515,(#1520,#1527),.PCURVE_S1.);
#1515 = CIRCLE('',#1516,4.);
#1516 = AXIS2_PLACEMENT_3D('',#1517,#1518,#1519);
#1517 = CARTESIAN_POINT('',(283.,13.5,88.));
#1518 = DIRECTION('',(1.,0.,0.));
#1519 = DIRECTION('',(-0.,0.,1.));
#1520 = PCURVE('',#258,#1521);
#1521 = DEFINITIONAL_REPRESENTATION('',(#1522),#1526);
#1522 = CIRCLE('',#1523,4.);
#1523 = AXIS2_PLACEMENT_2D('',#1524,#1525);
#1524 = CARTESIAN_POINT('',(6.,-40.));
#1525 = DIRECTION('',(1.,0.));
#1526 = ( GEOMETRIC_REPRESENTATION_CONTEXT(2) 
PARAMETRIC_REPRESENTATION_CONTEXT() REPRESENTATION_CONTEXT('2D SPACE',''
  ) );
#1527 = PCURVE('',#902,#1528);
#1528 = DEFINITIONAL_REPRESENTATION('',(#1529),#1533);
#1529 = LINE('',#1530,#1531);
#1530 = CARTESIAN_POINT('',(0.,46.1));
#1531 = VECTOR('',#1532,1.);
#1532 = DIRECTION('',(1.,0.));
#1533 = ( GEOMETRIC_REPRESENTATION_CONTEXT(2) 
PARAMETRIC_REPRESENTATION_CONTEXT() REPRESENTATION_CONTEXT('2D SPACE',''
  ) );
#1534 = FACE_BOUND('',#1535,.T.);
#1535 = EDGE_LOOP('',(#1536));
#1536 = ORIENTED_EDGE('',*,*,#566,.F.);
#1537 = ADVANCED_FACE('',(#1538),#796,.F.);
#1538 = FACE_BOUND('',#1539,.F.);
#1539 = EDGE_LOOP('',(#1540,#1541,#1542,#1561));
#1540 = ORIENTED_EDGE('',*,*,#780,.F.);
#1541 = ORIENTED_EDGE('',*,*,#1384,.T.);
#1542 = ORIENTED_EDGE('',*,*,#1543,.T.);
#1543 = EDGE_CURVE('',#1385,#863,#1544,.T.);
#1544 = SURFACE_CURVE('',#1545,(#1549,#1555),.PCURVE_S1.);
#1545 = LINE('',#1546,#1547);
#1546 = CARTESIAN_POINT('',(236.9,11.,84.877501000801));
#1547 = VECTOR('',#1548,1.);
#1548 = DIRECTION('',(1.,0.,0.));
#1549 = PCURVE('',#796,#1550);
#1550 = DEFINITIONAL_REPRESENTATION('',(#1551),#1554);
#1551 = B_SPLINE_CURVE_WITH_KNOTS('',1,(#1552,#1553),.UNSPECIFIED.,.F.,
  .F.,(2,2),(9.99994E-02,17.9),.PIECEWISE_BEZIER_KNOTS.);
#1552 = CARTESIAN_POINT('',(2.877501000801,29.4999994));
#1553 = CARTESIAN_POINT('',(2.877501000801,47.3));
#1554 = ( GEOMETRIC_REPRESENTATION_CONTEXT(2) 
PARAMETRIC_REPRESENTATION_CONTEXT() REPRESENTATION_CONTEXT('2D SPACE',''
  ) );
#1555 = PCURVE('',#902,#1556);
#1556 = DEFINITIONAL_REPRESENTATION('',(#1557),#1560);
#1557 = B_SPLINE_CURVE_WITH_KNOTS('',1,(#1558,#1559),.UNSPECIFIED.,.F.,
  .F.,(2,2),(9.99994E-02,17.9),.PIECEWISE_BEZIER_KNOTS.);
#1558 = CARTESIAN_POINT('',(2.466461120653,9.99994E-02));
#1559 = CARTESIAN_POINT('',(2.466461120653,17.9));
#1560 = ( GEOMETRIC_REPRESENTATION_CONTEXT(2) 
PARAMETRIC_REPRESENTATION_CONTEXT() REPRESENTATION_CONTEXT('2D SPACE',''
  ) );
#1561 = ORIENTED_EDGE('',*,*,#862,.F.);
#1562 = ADVANCED_FACE('',(#1563),#902,.F.);
#1563 = FACE_BOUND('',#1564,.F.);
#1564 = EDGE_LOOP('',(#1565,#1586,#1587,#1588,#1589,#1590,#1591,#1592));
#1565 = ORIENTED_EDGE('',*,*,#1566,.T.);
#1566 = EDGE_CURVE('',#1430,#1512,#1567,.T.);
#1567 = SEAM_CURVE('',#1568,(#1572,#1579),.PCURVE_S1.);
#1568 = LINE('',#1569,#1570);
#1569 = CARTESIAN_POINT('',(236.9,13.5,92.));
#1570 = VECTOR('',#1571,1.);
#1571 = DIRECTION('',(1.,0.,0.));
#1572 = PCURVE('',#902,#1573);
#1573 = DEFINITIONAL_REPRESENTATION('',(#1574),#1578);
#1574 = LINE('',#1575,#1576);
#1575 = CARTESIAN_POINT('',(6.28318530718,-0.));
#1576 = VECTOR('',#1577,1.);
#1577 = DIRECTION('',(0.,1.));
#1578 = ( GEOMETRIC_REPRESENTATION_CONTEXT(2) 
PARAMETRIC_REPRESENTATION_CONTEXT() REPRESENTATION_CONTEXT('2D SPACE',''
  ) );
#1579 = PCURVE('',#902,#1580);
#1580 = DEFINITIONAL_REPRESENTATION('',(#1581),#1585);
#1581 = LINE('',#1582,#1583);
#1582 = CARTESIAN_POINT('',(0.,-0.));
#1583 = VECTOR('',#1584,1.);
#1584 = DIRECTION('',(0.,1.));
#1585 = ( GEOMETRIC_REPRESENTATION_CONTEXT(2) 
PARAMETRIC_REPRESENTATION_CONTEXT() REPRESENTATION_CONTEXT('2D SPACE',''
  ) );
#1586 = ORIENTED_EDGE('',*,*,#1511,.F.);
#1587 = ORIENTED_EDGE('',*,*,#1566,.F.);
#1588 = ORIENTED_EDGE('',*,*,#1429,.T.);
#1589 = ORIENTED_EDGE('',*,*,#1341,.T.);
#1590 = ORIENTED_EDGE('',*,*,#885,.T.);
#1591 = ORIENTED_EDGE('',*,*,#1543,.F.);
#1592 = ORIENTED_EDGE('',*,*,#1453,.T.);
#1593 = ADVANCED_FACE('',(#1594),#1215,.T.);
#1594 = FACE_BOUND('',#1595,.T.);
#1595 = EDGE_LOOP('',(#1596,#1597,#1620,#1647));
#1596 = ORIENTED_EDGE('',*,*,#991,.F.);
#1597 = ORIENTED_EDGE('',*,*,#1598,.F.);
#1598 = EDGE_CURVE('',#1599,#992,#1601,.T.);
#1599 = VERTEX_POINT('',#1600);
#1600 = CARTESIAN_POINT('',(249.,-9.797174393179E-16,82.));
#1601 = SEAM_CURVE('',#1602,(#1606,#1613),.PCURVE_S1.);
#1602 = LINE('',#1603,#1604);
#1603 = CARTESIAN_POINT('',(249.,-9.797174393179E-16,74.9));
#1604 = VECTOR('',#1605,1.);
#1605 = DIRECTION('',(0.,0.,1.));
#1606 = PCURVE('',#1215,#1607);
#1607 = DEFINITIONAL_REPRESENTATION('',(#1608),#1612);
#1608 = LINE('',#1609,#1610);
#1609 = CARTESIAN_POINT('',(6.28318530718,-0.));
#1610 = VECTOR('',#1611,1.);
#1611 = DIRECTION('',(0.,1.));
#1612 = ( GEOMETRIC_REPRESENTATION_CONTEXT(2) 
PARAMETRIC_REPRESENTATION_CONTEXT() REPRESENTATION_CONTEXT('2D SPACE',''
  ) );
#1613 = PCURVE('',#1215,#1614);
#1614 = DEFINITIONAL_REPRESENTATION('',(#1615),#1619);
#1615 = LINE('',#1616,#1617);
#1616 = CARTESIAN_POINT('',(0.,-0.));
#1617 = VECTOR('',#1618,1.);
#1618 = DIRECTION('',(0.,1.));
#1619 = ( GEOMETRIC_REPRESENTATION_CONTEXT(2) 
PARAMETRIC_REPRESENTATION_CONTEXT() REPRESENTATION_CONTEXT('2D SPACE',''
  ) );
#1620 = ORIENTED_EDGE('',*,*,#1621,.T.);
#1621 = EDGE_CURVE('',#1599,#1599,#1622,.T.);
#1622 = SURFACE_CURVE('',#1623,(#1628,#1635),.PCURVE_S1.);
#1623 = CIRCLE('',#1624,4.);
#1624 = AXIS2_PLACEMENT_3D('',#1625,#1626,#1627);
#1625 = CARTESIAN_POINT('',(245.,0.,82.));
#1626 = DIRECTION('',(0.,0.,1.));
#1627 = DIRECTION('',(1.,0.,-0.));
#1628 = PCURVE('',#1215,#1629);
#1629 = DEFINITIONAL_REPRESENTATION('',(#1630),#1634);
#1630 = LINE('',#1631,#1632);
#1631 = CARTESIAN_POINT('',(0.,7.1));
#1632 = VECTOR('',#1633,1.);
#1633 = DIRECTION('',(1.,0.));
#1634 = ( GEOMETRIC_REPRESENTATION_CONTEXT(2) 
PARAMETRIC_REPRESENTATION_CONTEXT() REPRESENTATION_CONTEXT('2D SPACE',''
  ) );
#1635 = PCURVE('',#1636,#1641);
#1636 = PLANE('',#1637);
#1637 = AXIS2_PLACEMENT_3D('',#1638,#1639,#1640);
#1638 = CARTESIAN_POINT('',(237.,-26.5,82.));
#1639 = DIRECTION('',(0.,0.,1.));
#1640 = DIRECTION('',(1.,0.,0.));
#1641 = DEFINITIONAL_REPRESENTATION('',(#1642),#1646);
#1642 = CIRCLE('',#1643,4.);
#1643 = AXIS2_PLACEMENT_2D('',#1644,#1645);
#1644 = CARTESIAN_POINT('',(8.,26.5));
#1645 = DIRECTION('',(1.,0.));
#1646 = ( GEOMETRIC_REPRESENTATION_CONTEXT(2) 
PARAMETRIC_REPRESENTATION_CONTEXT() REPRESENTATION_CONTEXT('2D SPACE',''
  ) );
#1647 = ORIENTED_EDGE('',*,*,#1598,.T.);
#1648 = ADVANCED_FACE('',(#1649),#1636,.F.);
#1649 = FACE_BOUND('',#1650,.F.);
#1650 = EDGE_LOOP('',(#1651));
#1651 = ORIENTED_EDGE('',*,*,#1621,.T.);
#1652 = ( GEOMETRIC_REPRESENTATION_CONTEXT(3) 
GLOBAL_UNCERTAINTY_ASSIGNED_CONTEXT((#1656)) 
GLOBAL_UNIT_ASSIGNED_CONTEXT((#1653,#1654,#1655)) REPRESENTATION_CONTEXT
('Context #1','3D Context with UNIT and UNCERTAINTY') );
#1653 = ( LENGTH_UNIT() NAMED_UNIT(*) SI_UNIT(.MILLI.,.METRE.) );
#1654 = ( NAMED_UNIT(*) PLANE_ANGLE_UNIT() SI_UNIT($,.RADIAN.) );
#1655 = ( NAMED_UNIT(*) SI_UNIT($,.STERADIAN.) SOLID_ANGLE_UNIT() );
#1656 = UNCERTAINTY_MEASURE_WITH_UNIT(LENGTH_MEASURE(1.E-07),#1653,
  'distance_accuracy_value','confusion accuracy');
#1657 = PRODUCT_RELATED_PRODUCT_CATEGORY('part',$,(#7));
ENDSEC;
END-ISO-10303-21;
